<svg xmlns="http://www.w3.org/2000/svg" width="222" height="28" viewBox="0 0 222 28" fill="none" id="svg1730066111_15542">
<g clip-path="url(#svg1730066111_15542_clip0_520_3625)">
<path d="M39.5988 11.2187H50.7748V2.36328H53.193V24.1596H50.7748V13.5067H39.5988V24.1596H37.1816V2.36328H39.5988V11.2187Z" fill="#242424"/>
<path d="M59.792 13.2586C59.792 6.75545 64.8537 1.98438 71.1311 1.98438C77.4086 1.98438 82.4703 6.75545 82.4703 13.2586C82.4703 19.729 77.4376 24.5328 71.1311 24.5328C64.8247 24.5328 59.792 19.729 59.792 13.2586ZM62.2712 13.2586C62.2712 18.2585 66.2255 22.2448 71.127 22.2448C76.0286 22.2448 79.9818 18.2596 79.9818 13.2586C79.9818 8.25758 76.0286 4.27232 71.127 4.27232C66.2255 4.27232 62.2753 8.25861 62.2753 13.2586H62.2712Z" fill="#242424"/>
<path d="M91.3665 2.35938V21.8677H97.3785V24.1557H88.9482V2.35938H91.3665Z" fill="#242424"/>
<path d="M101.826 13.2586C101.826 6.75545 106.888 1.98438 113.164 1.98438C119.441 1.98438 124.503 6.75545 124.503 13.2586C124.503 19.729 119.472 24.5328 113.164 24.5328C106.857 24.5328 101.826 19.729 101.826 13.2586ZM104.305 13.2586C104.305 18.2585 108.259 22.2448 113.16 22.2448C118.062 22.2448 122.016 18.2596 122.016 13.2586C122.016 8.25758 118.063 4.27232 113.16 4.27232C108.258 4.27232 104.309 8.25861 104.309 13.2586H104.305Z" fill="#242424"/>
<path d="M147.594 7.14974C146.765 6.32495 145.804 5.64039 144.751 5.12339C143.573 4.58081 142.292 4.29139 140.993 4.27422C135.96 4.27422 132.235 8.32591 132.235 13.3586C132.235 19.2731 137.039 22.2488 141.025 22.2488C142.438 22.2313 143.826 21.8844 145.077 21.2361C146.009 20.7611 146.858 20.1434 147.594 19.406V22.4123C145.683 23.7841 143.386 24.5272 141.025 24.5367C134.555 24.5367 129.752 19.6318 129.752 13.3279C129.752 6.82479 134.62 1.98525 141.156 1.98525C143.488 1.95483 145.76 2.7162 147.594 4.1424V7.14974Z" fill="#242424"/>
<path d="M166.694 4.65021H157.806V11.1206H166.432V13.4086H157.806V21.8716H166.694V24.1596H155.388V2.36328H166.694V4.65021Z" fill="#242424"/>
<path d="M213.075 4.6463H204.187V11.1167H212.813V13.4047H204.187V21.8677H213.075V24.1557H201.769V2.35938H213.075V4.6463Z" fill="#242424"/>
<path d="M193.755 2.36328H191.337V19.2577L175.932 2.72809H174.711V24.1596H177.129V7.39595L192.503 23.8275H193.755V2.36328Z" fill="#242424"/>
<path d="M6.53628 27.4235H1.26802C1.07624 27.4235 0.892318 27.3482 0.756711 27.214C0.621105 27.0799 0.544922 26.8979 0.544922 26.7082V21.4926C0.544922 21.3029 0.621105 21.121 0.756711 20.9869C0.892318 20.8527 1.07624 20.7773 1.26802 20.7773H6.53628C6.72805 20.7773 6.91198 20.8527 7.04758 20.9869C7.18319 21.121 7.25937 21.3029 7.25937 21.4926V26.7103C7.25937 26.9 7.18319 27.0819 7.04758 27.2161C6.91198 27.3502 6.72805 27.4256 6.53628 27.4256" fill="#242424"/>
<path d="M6.53628 6.66554H1.26802C1.07624 6.66554 0.892318 6.59018 0.756711 6.45603C0.621105 6.32189 0.544922 6.13995 0.544922 5.95024V0.738741C0.544922 0.549031 0.621105 0.36709 0.756711 0.232945C0.892318 0.0987996 1.07624 0.0234375 1.26802 0.0234375L6.53628 0.0234375C6.72805 0.0234375 6.91198 0.0987996 7.04758 0.232945C7.18319 0.36709 7.25937 0.549031 7.25937 0.738741V5.95024C7.25937 6.13995 7.18319 6.32189 7.04758 6.45603C6.91198 6.59018 6.72805 6.66554 6.53628 6.66554Z" fill="#242424"/>
<path d="M16.0531 0.0234375H10.7786C10.3804 0.0234375 10.0576 0.342775 10.0576 0.736697V5.95432C10.0576 6.34825 10.3804 6.66758 10.7786 6.66758H16.0531C16.4513 6.66758 16.7741 6.34825 16.7741 5.95432V0.736697C16.7741 0.342775 16.4513 0.0234375 16.0531 0.0234375Z" fill="#242424"/>
<path d="M16.0531 20.7773H10.7786C10.3804 20.7773 10.0576 21.0967 10.0576 21.4906V26.7082C10.0576 27.1022 10.3804 27.4215 10.7786 27.4215H16.0531C16.4513 27.4215 16.7741 27.1022 16.7741 26.7082V21.4906C16.7741 21.0967 16.4513 20.7773 16.0531 20.7773Z" fill="#242424"/>
<path opacity="0.5" d="M1.26802 16.9067C1.07624 16.9067 0.892318 16.8313 0.756711 16.6972C0.621105 16.5631 0.544922 16.3811 0.544922 16.1914V21.4887C0.544922 21.299 0.621105 21.1171 0.756711 20.9829C0.892318 20.8488 1.07624 20.7734 1.26802 20.7734H6.54144C6.73322 20.7734 6.91714 20.8488 7.05275 20.9829C7.18835 21.1171 7.26454 21.299 7.26454 21.4887V16.9067H1.26802Z" fill="#242424"/>
<path d="M6.53628 20.7784H1.26802C1.07624 20.7784 0.892318 20.8537 0.756711 20.9879C0.621105 21.122 0.544922 21.304 0.544922 21.4937L0.544922 26.7113C0.544922 26.901 0.621105 27.0829 0.756711 27.2171C0.892318 27.3512 1.07624 27.4266 1.26802 27.4266H6.53628C6.72805 27.4266 6.91198 27.3512 7.04758 27.2171C7.18319 27.0829 7.25937 26.901 7.25937 26.7113V21.4926C7.25937 21.3029 7.18319 21.121 7.04758 20.9869C6.91198 20.8527 6.72805 20.7773 6.53628 20.7773" fill="#242424"/>
<path d="M6.53628 20.7784H1.26802C1.07624 20.7784 0.892318 20.8537 0.756711 20.9879C0.621105 21.122 0.544922 21.304 0.544922 21.4937L0.544922 26.7113C0.544922 26.901 0.621105 27.0829 0.756711 27.2171C0.892318 27.3512 1.07624 27.4266 1.26802 27.4266H6.53628C6.72805 27.4266 6.91198 27.3512 7.04758 27.2171C7.18319 27.0829 7.25937 26.901 7.25937 26.7113V21.4926C7.25937 21.3029 7.18319 21.121 7.04758 20.9869C6.91198 20.8527 6.72805 20.7773 6.53628 20.7773" fill="#242424"/>
<path d="M6.53628 0.0234375H1.26802C1.07624 0.0234375 0.892318 0.0987996 0.756711 0.232945C0.621105 0.36709 0.544922 0.549031 0.544922 0.738741L0.544922 5.95024C0.544922 6.13995 0.621105 6.32189 0.756711 6.45603C0.892318 6.59018 1.07624 6.66554 1.26802 6.66554H6.53628C6.72805 6.66554 6.91198 6.59018 7.04758 6.45603C7.18319 6.32189 7.25937 6.13995 7.25937 5.95024V0.738741C7.25937 0.549031 7.18319 0.36709 7.04758 0.232945C6.91198 0.0987996 6.72805 0.0234375 6.53628 0.0234375Z" fill="#242424"/>
<path opacity="0.5" d="M1.26802 10.2615H7.25937V5.94922C7.25937 6.13893 7.18319 6.32087 7.04758 6.45501C6.91198 6.58916 6.72805 6.66452 6.53628 6.66452H1.26802C1.07624 6.66452 0.892318 6.58916 0.756711 6.45501C0.621105 6.32087 0.544922 6.13893 0.544922 5.94922V10.9717C0.546285 10.7828 0.62307 10.6022 0.758529 10.4692C0.893988 10.3361 1.07713 10.2615 1.26802 10.2615V10.2615Z" fill="#242424"/>
<path d="M16.0531 10.2617H10.7786C10.3804 10.2617 10.0576 10.5811 10.0576 10.975V16.1926C10.0576 16.5865 10.3804 16.9059 10.7786 16.9059H16.0531C16.4513 16.9059 16.7741 16.5865 16.7741 16.1926V10.975C16.7741 10.5811 16.4513 10.2617 16.0531 10.2617Z" fill="#242424"/>
<path d="M25.5658 10.2617H20.2913C19.8931 10.2617 19.5703 10.5811 19.5703 10.975V16.1926C19.5703 16.5865 19.8931 16.9059 20.2913 16.9059H25.5658C25.964 16.9059 26.2868 16.5865 26.2868 16.1926V10.975C26.2868 10.5811 25.964 10.2617 25.5658 10.2617Z" fill="#242424"/>
<path d="M6.54041 10.2617H1.26595C0.867737 10.2617 0.544922 10.5811 0.544922 10.975V16.1926C0.544922 16.5865 0.867737 16.9059 1.26595 16.9059H6.54041C6.93862 16.9059 7.26144 16.5865 7.26144 16.1926V10.975C7.26144 10.5811 6.93862 10.2617 6.54041 10.2617Z" fill="#242424"/>
<path opacity="0.5" d="M19.5708 16.1936V10.977C19.5708 10.7873 19.647 10.6054 19.7826 10.4712C19.9182 10.3371 20.1021 10.2617 20.2939 10.2617H16.0586C16.2504 10.2617 16.4343 10.3371 16.5699 10.4712C16.7055 10.6054 16.7817 10.7873 16.7817 10.977V16.1946C16.7817 16.3844 16.7055 16.5663 16.5699 16.7004C16.4343 16.8346 16.2504 16.9099 16.0586 16.9099H20.2939C20.1988 16.9099 20.1047 16.8914 20.0169 16.8554C19.9291 16.8194 19.8494 16.7666 19.7822 16.7001C19.715 16.6335 19.6618 16.5546 19.6255 16.4677C19.5892 16.3808 19.5706 16.2876 19.5708 16.1936V16.1936Z" fill="#242424"/>
<path opacity="0.5" d="M7.2602 10.977V16.1936C7.2602 16.3833 7.18402 16.5653 7.04841 16.6994C6.91281 16.8336 6.72889 16.9089 6.53711 16.9089H10.7724C10.5806 16.9089 10.3967 16.8336 10.2611 16.6994C10.1255 16.5653 10.0493 16.3833 10.0493 16.1936V10.977C10.0493 10.7873 10.1255 10.6054 10.2611 10.4712C10.3967 10.3371 10.5806 10.2617 10.7724 10.2617H6.53711C6.72889 10.2617 6.91281 10.3371 7.04841 10.4712C7.18402 10.6054 7.2602 10.7873 7.2602 10.977V10.977Z" fill="#242424"/>
<path opacity="0.5" d="M25.5665 16.9086H19.5752V21.4926C19.5752 21.3029 19.6514 21.121 19.787 20.9868C19.9226 20.8527 20.1065 20.7773 20.2983 20.7773H25.5727C25.7645 20.7773 25.9484 20.8527 26.0841 20.9868C26.2197 21.121 26.2958 21.3029 26.2958 21.4926V16.1953C26.2956 16.2896 26.2765 16.3829 26.2396 16.4698C26.2028 16.5568 26.1489 16.6357 26.0811 16.702C26.0134 16.7683 25.933 16.8206 25.8447 16.8561C25.7564 16.8915 25.6619 16.9094 25.5665 16.9086V16.9086Z" fill="#242424"/>
<path opacity="0.5" d="M25.5665 10.2615H19.5752V5.94922C19.5752 6.13893 19.6514 6.32087 19.787 6.45501C19.9226 6.58916 20.1065 6.66452 20.2983 6.66452H25.5727C25.7645 6.66452 25.9484 6.58916 26.0841 6.45501C26.2197 6.32087 26.2958 6.13893 26.2958 5.94922V10.9717C26.2952 10.8776 26.2758 10.7847 26.2387 10.6981C26.2017 10.6115 26.1478 10.533 26.08 10.467C26.0123 10.401 25.9321 10.3489 25.844 10.3137C25.7559 10.2784 25.6616 10.2607 25.5665 10.2615V10.2615Z" fill="#242424"/>
<path d="M6.53628 27.4235H1.26802C1.07624 27.4235 0.892318 27.3482 0.756711 27.214C0.621105 27.0799 0.544922 26.8979 0.544922 26.7082V21.4926C0.544922 21.3029 0.621105 21.121 0.756711 20.9869C0.892318 20.8527 1.07624 20.7773 1.26802 20.7773H6.53628C6.72805 20.7773 6.91198 20.8527 7.04758 20.9869C7.18319 21.121 7.25937 21.3029 7.25937 21.4926V26.7103C7.25937 26.9 7.18319 27.0819 7.04758 27.2161C6.91198 27.3502 6.72805 27.4256 6.53628 27.4256" fill="#242424"/>
<path d="M6.53628 6.66554H1.26802C1.07624 6.66554 0.892318 6.59018 0.756711 6.45603C0.621105 6.32189 0.544922 6.13995 0.544922 5.95024V0.738741C0.544922 0.549031 0.621105 0.36709 0.756711 0.232945C0.892318 0.0987996 1.07624 0.0234375 1.26802 0.0234375L6.53628 0.0234375C6.72805 0.0234375 6.91198 0.0987996 7.04758 0.232945C7.18319 0.36709 7.25937 0.549031 7.25937 0.738741V5.95024C7.25937 6.13995 7.18319 6.32189 7.04758 6.45603C6.91198 6.59018 6.72805 6.66554 6.53628 6.66554Z" fill="#242424"/>
<path d="M6.53628 20.7784H1.26802C1.07624 20.7784 0.892318 20.8537 0.756711 20.9879C0.621105 21.122 0.544922 21.304 0.544922 21.4937L0.544922 26.7113C0.544922 26.901 0.621105 27.0829 0.756711 27.2171C0.892318 27.3512 1.07624 27.4266 1.26802 27.4266H6.53628C6.72805 27.4266 6.91198 27.3512 7.04758 27.2171C7.18319 27.0829 7.25937 26.901 7.25937 26.7113V21.4926C7.25937 21.3029 7.18319 21.121 7.04758 20.9869C6.91198 20.8527 6.72805 20.7773 6.53628 20.7773" fill="#242424"/>
<path d="M6.53628 20.7784H1.26802C1.07624 20.7784 0.892318 20.8537 0.756711 20.9879C0.621105 21.122 0.544922 21.304 0.544922 21.4937L0.544922 26.7113C0.544922 26.901 0.621105 27.0829 0.756711 27.2171C0.892318 27.3512 1.07624 27.4266 1.26802 27.4266H6.53628C6.72805 27.4266 6.91198 27.3512 7.04758 27.2171C7.18319 27.0829 7.25937 26.901 7.25937 26.7113V21.4926C7.25937 21.3029 7.18319 21.121 7.04758 20.9869C6.91198 20.8527 6.72805 20.7773 6.53628 20.7773" fill="#242424"/>
<path d="M6.53628 0.0234375H1.26802C1.07624 0.0234375 0.892318 0.0987996 0.756711 0.232945C0.621105 0.36709 0.544922 0.549031 0.544922 0.738741L0.544922 5.95024C0.544922 6.13995 0.621105 6.32189 0.756711 6.45603C0.892318 6.59018 1.07624 6.66554 1.26802 6.66554H6.53628C6.72805 6.66554 6.91198 6.59018 7.04758 6.45603C7.18319 6.32189 7.25937 6.13995 7.25937 5.95024V0.738741C7.25937 0.549031 7.18319 0.36709 7.04758 0.232945C6.91198 0.0987996 6.72805 0.0234375 6.53628 0.0234375Z" fill="#242424"/>
<path d="M25.5659 27.4235H20.2915C20.0997 27.4235 19.9158 27.3482 19.7801 27.214C19.6445 27.0799 19.5684 26.8979 19.5684 26.7082V21.4926C19.5684 21.3029 19.6445 21.121 19.7801 20.9869C19.9158 20.8527 20.0997 20.7773 20.2915 20.7773H25.5659C25.7577 20.7773 25.9416 20.8527 26.0772 20.9869C26.2128 21.121 26.289 21.3029 26.289 21.4926V26.7103C26.289 26.9 26.2128 27.0819 26.0772 27.2161C25.9416 27.3502 25.7577 27.4256 25.5659 27.4256" fill="#242424"/>
<path d="M25.5662 6.66554H20.2917C20.0999 6.66554 19.916 6.59018 19.7804 6.45603C19.6448 6.32189 19.5686 6.13995 19.5686 5.95024V0.738741C19.5686 0.549031 19.6448 0.36709 19.7804 0.232945C19.916 0.0987996 20.0999 0.0234375 20.2917 0.0234375L25.5662 0.0234375C25.7579 0.0234375 25.9419 0.0987996 26.0775 0.232945C26.2131 0.36709 26.2892 0.549031 26.2892 0.738741V5.95024C26.2892 6.13995 26.2131 6.32189 26.0775 6.45603C25.9419 6.59018 25.7579 6.66554 25.5662 6.66554Z" fill="#242424"/>
<path d="M25.5659 20.7784H20.2915C20.0997 20.7784 19.9158 20.8537 19.7801 20.9879C19.6445 21.122 19.5684 21.304 19.5684 21.4937V26.7113C19.5684 26.901 19.6445 27.0829 19.7801 27.2171C19.9158 27.3512 20.0997 27.4266 20.2915 27.4266H25.5659C25.7577 27.4266 25.9416 27.3512 26.0772 27.2171C26.2128 27.0829 26.289 26.901 26.289 26.7113V21.4926C26.289 21.3029 26.2128 21.121 26.0772 20.9869C25.9416 20.8527 25.7577 20.7773 25.5659 20.7773" fill="#242424"/>
<path d="M25.5659 20.7773H20.2915C20.0997 20.7773 19.9158 20.8527 19.7801 20.9869C19.6445 21.121 19.5684 21.3029 19.5684 21.4926V26.7103C19.5684 26.9 19.6445 27.0819 19.7801 27.2161C19.9158 27.3502 20.0997 27.4256 20.2915 27.4256H25.5659C25.7577 27.4256 25.9416 27.3502 26.0772 27.2161C26.2128 27.0819 26.289 26.9 26.289 26.7103V21.4916C26.289 21.3019 26.2128 21.12 26.0772 20.9858C25.9416 20.8517 25.7577 20.7773 25.5659 20.7773Z" fill="#242424"/>
<path d="M25.5662 0.0234375H20.2917C20.0999 0.0234375 19.916 0.0987996 19.7804 0.232945C19.6448 0.36709 19.5686 0.549031 19.5686 0.738741V5.95024C19.5686 6.13995 19.6448 6.32189 19.7804 6.45603C19.916 6.59018 20.0999 6.66554 20.2917 6.66554H25.5662C25.7579 6.66554 25.9419 6.59018 26.0775 6.45603C26.2131 6.32189 26.2892 6.13995 26.2892 5.95024V0.738741C26.2892 0.549031 26.2131 0.36709 26.0775 0.232945C25.9419 0.0987996 25.7579 0.0234375 25.5662 0.0234375Z" fill="#242424"/>
</g>
<path d="M219.546 24.4401C219.219 24.4401 218.913 24.3791 218.626 24.2571C218.342 24.1352 218.094 23.967 217.879 23.7527C217.665 23.5352 217.497 23.2846 217.375 23.0011C217.253 22.7175 217.192 22.4126 217.192 22.0862C217.192 21.7631 217.253 21.4598 217.375 21.1763C217.497 20.8928 217.665 20.6439 217.879 20.4296C218.094 20.212 218.342 20.0438 218.626 19.9252C218.913 19.8032 219.219 19.7422 219.546 19.7422C219.869 19.7422 220.172 19.8032 220.456 19.9252C220.739 20.0438 220.988 20.212 221.202 20.4296C221.417 20.6439 221.585 20.8928 221.707 21.1763C221.829 21.4598 221.89 21.7631 221.89 22.0862C221.89 22.4126 221.829 22.7175 221.707 23.0011C221.585 23.2846 221.417 23.5352 221.202 23.7527C220.988 23.967 220.739 24.1352 220.456 24.2571C220.172 24.3791 219.869 24.4401 219.546 24.4401ZM219.546 23.9456C219.885 23.9456 220.195 23.8615 220.476 23.6934C220.759 23.5253 220.983 23.3011 221.148 23.0209C221.316 22.7406 221.4 22.4291 221.4 22.0862C221.4 21.7433 221.316 21.4318 221.148 21.1516C220.983 20.8713 220.759 20.6488 220.476 20.484C220.195 20.3158 219.885 20.2318 219.546 20.2318C219.203 20.2318 218.89 20.3158 218.606 20.484C218.326 20.6488 218.102 20.8713 217.934 21.1516C217.766 21.4318 217.681 21.7433 217.681 22.0862C217.681 22.4291 217.766 22.7406 217.934 23.0209C218.102 23.3011 218.326 23.5253 218.606 23.6934C218.89 23.8615 219.203 23.9456 219.546 23.9456ZM218.74 23.2137V20.9241H219.744C219.948 20.9241 220.124 20.9966 220.273 21.1417C220.421 21.2867 220.497 21.4615 220.5 21.6659C220.5 21.7944 220.462 21.923 220.386 22.0516C220.311 22.1769 220.205 22.2708 220.07 22.3335L220.505 23.2137H220.08L219.689 22.4027H219.111V23.2137H218.74ZM219.111 22.0516H219.739C219.838 22.0516 219.925 22.0137 220.001 21.9379C220.08 21.862 220.119 21.7714 220.119 21.6659C220.119 21.5472 220.078 21.4532 219.996 21.384C219.917 21.3115 219.831 21.2752 219.739 21.2752H219.111V22.0516Z" fill="#242424"/>
<defs>
<clipPath id="svg1730066111_15542_clip0_520_3625">
<rect width="212.267" height="27.3859" fill="white" transform="translate(0.544922 0.0234375)"/>
</clipPath>
</defs>
</svg>

