<svg xmlns="http://www.w3.org/2000/svg" width="159" height="33" viewBox="0 0 159 33" fill="none" id="svg2039136257_8506">
<g clip-path="url(#svg2039136257_8506_clip0_520_3526)">
<path d="M10.4456 12.3116V8.93646H6.87817V29.0172H10.4456V18.3752C10.4456 16.1693 11.0806 14.5854 12.3299 13.5862C13.6063 12.5947 15.2166 12.1094 16.8412 12.2266V8.57617C13.7527 8.57617 11.6255 9.81677 10.4456 12.3116Z" fill="#242424"/>
<path d="M39.0148 19.0084C39.0693 16.2519 38.0507 13.5784 36.1658 11.5308C34.2675 9.45065 31.8072 8.40039 28.8019 8.40039C25.6371 8.40039 23.0518 9.42006 21.0668 11.4152C19.0818 13.4104 18.0754 15.9426 18.0754 18.9744C18.0754 22.0062 19.0783 24.535 21.1188 26.5335C23.1593 28.5321 25.7967 29.5314 29.0483 29.5314C33.0738 29.5314 36.0813 28.0155 38.0709 24.9836L35.0449 23.2842C33.8118 25.2442 31.8453 26.2254 29.1455 26.2276C27.3861 26.281 25.6595 25.7543 24.242 24.7321C22.8946 23.7041 21.9955 22.2136 21.7261 20.5617H38.9038C38.9818 20.0475 39.019 19.5282 39.0148 19.0084V19.0084ZM21.7157 17.5264C21.9417 15.8826 22.7736 14.3763 24.0547 13.2914C25.3039 12.2242 26.9037 11.7075 28.8019 11.7075C30.3731 11.6756 31.9029 12.202 33.1085 13.1894C34.3404 14.1785 35.1212 15.6163 35.4127 17.5264H21.7157Z" fill="#242424"/>
<path d="M60.0451 0.896484V12.3848C58.273 9.73137 55.6888 8.40467 52.2926 8.40467C50.9183 8.38794 49.5556 8.65365 48.2926 9.18465C47.0296 9.71565 45.8943 10.5001 44.96 11.4875C43.9726 12.4737 43.1963 13.6431 42.6767 14.9272C42.157 16.2113 41.9045 17.5841 41.934 18.9651C41.8998 20.3466 42.1501 21.7208 42.67 23.0055C43.1899 24.2902 43.9688 25.4592 44.96 26.4427C45.8938 27.4309 47.0289 28.2163 48.292 28.7479C49.555 29.2795 50.918 29.5456 52.2926 29.5289C55.6865 29.5289 58.2707 28.2033 60.0451 25.5521V29.019H63.6125V0.896484H60.0451ZM57.963 24.094C56.5755 25.4188 54.7144 26.1603 52.7767 26.1603C50.839 26.1603 48.978 25.4188 47.5905 24.094C46.9106 23.4255 46.3756 22.6292 46.0178 21.7531C45.66 20.877 45.4867 19.939 45.5083 18.9957C45.483 18.0467 45.6545 17.1026 46.0124 16.2205C46.3702 15.3383 46.9071 14.5364 47.5905 13.8633C48.6135 12.8513 49.9222 12.1623 51.3483 11.8846C52.7744 11.607 54.2527 11.7536 55.593 12.3055C56.9334 12.8573 58.0746 13.7893 58.8698 14.9815C59.6651 16.1738 60.078 17.5717 60.0556 18.9957C60.0783 19.941 59.9035 20.8809 59.5418 21.7576C59.1802 22.6344 58.6394 23.4294 57.9526 24.094H57.963Z" fill="#242424"/>
<path d="M72.6014 8.93555H69.0305V29.0163H72.6014V8.93555Z" fill="#242424"/>
<path d="M70.8231 0.585277C70.5016 0.574655 70.1814 0.629598 69.8827 0.746619C69.584 0.86364 69.3134 1.04019 69.088 1.26506C68.6422 1.7107 68.393 2.31002 68.394 2.93392C68.3901 3.24135 68.4496 3.54638 68.5689 3.83078C68.6881 4.11518 68.8647 4.37312 69.088 4.58919C69.3162 4.81032 69.5873 4.98441 69.8853 5.10117C70.1833 5.21793 70.5022 5.27499 70.8231 5.26897C71.1366 5.27323 71.4476 5.21519 71.7375 5.09835C72.0274 4.98151 72.2901 4.80829 72.5097 4.58919C72.7328 4.37301 72.9093 4.11505 73.0285 3.83067C73.1478 3.54629 73.2073 3.24132 73.2037 2.93392C73.2047 2.31002 72.9555 1.7107 72.5097 1.26506C72.2929 1.04232 72.0307 0.866703 71.7402 0.749595C71.4496 0.632487 71.1372 0.576504 70.8231 0.585277V0.585277Z" fill="#242424"/>
<path d="M91.3597 25.1413C90.2417 25.7684 88.9729 26.0911 87.6847 26.076C86.7282 26.1056 85.7759 25.9394 84.8886 25.5883C84.0013 25.2372 83.1985 24.7087 82.5314 24.0367C81.8544 23.3773 81.3209 22.5904 80.963 21.7235C80.6051 20.8566 80.4304 19.9276 80.4493 18.9927C80.4296 18.0496 80.6038 17.1122 80.9615 16.2364C81.3192 15.3605 81.8531 14.5641 82.5314 13.8944C83.2005 13.225 84.0037 12.6983 84.8905 12.3474C85.7773 11.9964 86.7286 11.8288 87.6847 11.855C88.9688 11.8231 90.2358 12.1484 91.3389 12.7931C92.3932 13.3902 93.2397 14.2844 93.768 15.3593L96.7559 13.6598C95.9672 12.0592 94.7127 10.7229 93.1503 9.81907C91.4968 8.86184 89.6052 8.3713 87.6847 8.40172C84.5892 8.40172 82.0155 9.41233 79.9634 11.4335C78.9585 12.4229 78.1682 13.6011 77.6398 14.8971C77.1115 16.1932 76.856 17.5805 76.8888 18.9757C76.856 20.3684 77.1115 21.7531 77.6399 23.0465C78.1683 24.3398 78.9587 25.5149 79.9634 26.5009C82.0224 28.5176 84.5962 29.5282 87.6847 29.5327C89.5983 29.5519 91.4813 29.062 93.133 28.1154C94.717 27.2092 96.0169 25.8949 96.8912 24.3154L93.8721 22.5752C93.3028 23.6486 92.4308 24.5393 91.3597 25.1413V25.1413Z" fill="#242424"/>
<path d="M102.226 0.584921C101.904 0.575941 101.584 0.631637 101.286 0.748564C100.988 0.86549 100.717 1.04116 100.49 1.2647C100.045 1.71034 99.7954 2.30966 99.7964 2.93356C99.7918 3.2411 99.8509 3.54636 99.9702 3.83088C100.089 4.11539 100.266 4.37324 100.49 4.58883C100.72 4.80873 100.991 4.98201 101.289 5.09869C101.586 5.21536 101.905 5.27311 102.226 5.26861C102.539 5.27288 102.85 5.21484 103.14 5.09799C103.43 4.98115 103.692 4.80794 103.912 4.58883C104.135 4.37265 104.312 4.11469 104.431 3.83032C104.55 3.54594 104.61 3.24097 104.606 2.93356C104.607 2.30966 104.358 1.71034 103.912 1.2647C103.695 1.04196 103.433 0.866347 103.143 0.749239C102.852 0.632131 102.54 0.576148 102.226 0.584921V0.584921Z" fill="#242424"/>
<path d="M104.002 8.93555H100.431V29.0163H104.002V8.93555Z" fill="#242424"/>
<path d="M119.646 8.40039C116.675 8.40039 114.466 9.54242 113.018 11.8265V8.93402H109.45V29.0147H113.018V18.3728C113.018 16.1068 113.564 14.4357 114.656 13.3594C115.745 12.2751 117.186 11.7415 118.962 11.7415C120.545 11.7415 121.794 12.1902 122.689 13.1011C123.585 14.012 124.043 15.273 124.043 16.8909V29.0147H127.614V16.6835C127.614 14.1343 126.874 12.1222 125.431 10.6403C123.987 9.15835 122.058 8.40039 119.646 8.40039Z" fill="#242424"/>
<path d="M149.521 11.5172C147.623 9.45065 145.159 8.40039 142.154 8.40039C138.985 8.40039 136.403 9.42006 134.415 11.4152C132.427 13.4104 131.41 15.9426 131.41 18.9744C131.405 19.5105 131.447 20.0461 131.535 20.5753H152.245C152.327 20.0569 152.368 19.533 152.366 19.0084C152.423 16.2481 151.406 13.57 149.521 11.5172V11.5172ZM135.064 17.5264C135.291 15.8821 136.124 14.3758 137.406 13.2914C138.652 12.2242 140.255 11.7075 142.154 11.7075C143.725 11.6756 145.255 12.202 146.46 13.1894C147.689 14.1717 148.466 15.6163 148.761 17.5264H135.064Z" fill="#242424"/>
<path d="M148.023 22.9612C147.659 23.722 147.124 24.3924 146.458 24.9224C145.255 25.916 143.724 26.4476 142.151 26.4179C140.253 26.4179 138.65 25.9047 137.404 24.834C136.755 24.3084 136.222 23.6584 135.839 22.9238C134.59 23.6818 133.465 24.3548 132.868 24.715C133.288 25.4466 133.808 26.1189 134.413 26.7136C136.401 28.7088 138.983 29.725 142.151 29.725C145.157 29.725 147.617 28.6748 149.519 26.6082C150.053 26.0311 150.519 25.3959 150.907 24.715C150.334 24.3582 149.234 23.6988 148.023 22.9612Z" fill="#242424"/>
<path d="M155.886 8.72439C155.302 8.72439 154.731 8.55475 154.245 8.23692C153.76 7.91909 153.381 7.46735 153.158 6.93882C152.934 6.41029 152.876 5.82871 152.99 5.26763C153.104 4.70655 153.385 4.19116 153.798 3.78664C154.211 3.38212 154.737 3.10664 155.31 2.99503C155.883 2.88343 156.477 2.94071 157.016 3.15963C157.556 3.37855 158.017 3.74929 158.342 4.22495C158.666 4.70062 158.839 5.25985 158.839 5.83192C158.838 6.59878 158.527 7.33396 157.973 7.87621C157.42 8.41846 156.669 8.72349 155.886 8.72439V8.72439ZM155.886 3.62603C155.438 3.62536 155.001 3.75476 154.628 3.99786C154.256 4.24095 153.965 4.58682 153.793 4.9917C153.621 5.39658 153.576 5.84227 153.663 6.27237C153.75 6.70247 153.965 7.09766 154.281 7.40792C154.598 7.71819 155.001 7.92959 155.44 8.01537C155.879 8.10115 156.334 8.05747 156.748 7.88984C157.161 7.72221 157.515 7.43817 157.764 7.07366C158.012 6.70916 158.145 6.28056 158.145 5.84212C158.146 5.55065 158.088 5.26186 157.975 4.99224C157.862 4.72262 157.696 4.47744 157.486 4.27071C157.277 4.06398 157.027 3.89975 156.753 3.78738C156.478 3.67502 156.184 3.61673 155.886 3.61584V3.62603Z" fill="#242424"/>
<path d="M156.484 7.36261L155.849 6.29196H155.381V7.36261H154.763V4.2832H156.019C156.295 4.2832 156.56 4.39063 156.755 4.58186C156.951 4.77308 157.06 5.03244 157.06 5.30287C157.06 5.49146 157.003 5.67584 156.897 5.8331C156.789 5.99379 156.636 6.12107 156.456 6.20019L157.15 7.36261H156.484ZM155.381 4.85082V5.76173H156.019C156.077 5.7621 156.133 5.75011 156.186 5.72662C156.238 5.70313 156.284 5.6687 156.321 5.62577C156.404 5.53799 156.448 5.42227 156.446 5.30287C156.449 5.18446 156.404 5.06973 156.321 4.98338C156.283 4.94159 156.237 4.90817 156.185 4.88531C156.133 4.86246 156.076 4.8507 156.019 4.85082H155.381Z" fill="#242424"/>
</g>
<defs>
<clipPath id="svg2039136257_8506_clip0_520_3526">
<rect width="158.083" height="31.6166" fill="white" transform="translate(0.766846 0.587891)"/>
</clipPath>
</defs>
</svg>

