<svg xmlns="http://www.w3.org/2000/svg" width="173" height="41" viewBox="0 0 173 41" fill="none" id="svg-2055519496_6995">
<path d="M59.5753 20.6359C58.9339 20.3795 58.0883 20.123 57.0313 19.8593C56.2149 19.6688 55.5734 19.4856 55.0996 19.3171C54.6258 19.1486 54.2321 18.9068 53.9114 18.6064C53.5907 18.2987 53.4303 17.903 53.4303 17.4121C53.4303 16.7454 53.7146 16.2032 54.2832 15.7782C54.8518 15.3606 55.7046 15.1481 56.8345 15.1481C57.476 15.1481 58.132 15.2433 58.7954 15.4412C59.466 15.639 60.0929 15.9247 60.676 16.3057L61.3394 14.6719C60.7635 14.2615 60.0783 13.9538 59.2765 13.734C58.4746 13.5142 57.6582 13.4043 56.8345 13.4043C55.6463 13.4043 54.6549 13.5875 53.8531 13.9538C53.0513 14.3202 52.4535 14.8111 52.0599 15.4192C51.6662 16.0273 51.4694 16.716 51.4694 17.478C51.4694 18.3866 51.7027 19.1119 52.1619 19.6468C52.6212 20.1817 53.1752 20.5846 53.8239 20.8411C54.4727 21.0975 55.3256 21.3613 56.3752 21.6177C57.2135 21.8229 57.8696 22.0061 58.3288 22.1673C58.7881 22.3284 59.1744 22.5629 59.4878 22.8706C59.8013 23.1784 59.9617 23.574 59.9617 24.0649C59.9617 24.7317 59.6774 25.2665 59.1015 25.6622C58.5256 26.0652 57.6582 26.263 56.4992 26.263C55.6172 26.263 54.757 26.1091 53.926 25.8014C53.095 25.4937 52.4098 25.098 51.8704 24.6071L51.1268 26.197C51.6881 26.7246 52.4608 27.1569 53.4376 27.4939C54.4217 27.8236 55.4349 27.9921 56.4919 27.9921C57.6801 27.9921 58.6787 27.8089 59.4951 27.4499C60.3116 27.0909 60.9166 26.6 61.3175 25.9846C61.7184 25.3691 61.9152 24.6804 61.9152 23.933C61.9152 23.0392 61.682 22.3211 61.2227 21.7936C60.7635 21.288 60.2168 20.8997 59.5753 20.6359Z" fill="#242424"/>
<path d="M76.8946 14.9141C75.8523 14.0275 74.4235 13.5879 72.6084 13.5879H67.1414V27.8607H69.146V23.5378H72.6084C74.4235 23.5378 75.8523 23.0982 76.8946 22.2116C77.937 21.3251 78.4546 20.1088 78.4546 18.5628C78.4619 17.0095 77.937 15.7933 76.8946 14.9141ZM75.4513 20.9368C74.7807 21.4863 73.8185 21.7647 72.5501 21.7647H69.146V15.361H72.5501C73.8185 15.361 74.788 15.6394 75.4513 16.1889C76.122 16.7385 76.45 17.5298 76.45 18.5628C76.4573 19.5959 76.122 20.3872 75.4513 20.9368Z" fill="#242424"/>
<path d="M87.2318 13.5879L80.8827 27.8607H82.9456L84.491 24.2925H91.9408L93.4862 27.8607H95.5855L89.2145 13.5879H87.2318ZM85.1908 22.6586L88.2159 15.6687L91.241 22.6586H85.1908Z" fill="#242424"/>
<path d="M110.485 21.3764C111.017 20.5997 111.287 19.6619 111.287 18.5628C111.287 17.0169 110.77 15.8006 109.727 14.9141C108.685 14.0275 107.256 13.5879 105.441 13.5879H99.9739V27.8607H101.978V23.5158H105.441C105.652 23.5158 105.951 23.5012 106.323 23.4719L109.348 27.8533H111.528L108.204 23.0615C109.188 22.7099 109.946 22.1457 110.485 21.3764ZM105.375 21.7793H101.971V15.361H105.375C106.644 15.361 107.613 15.6394 108.277 16.1889C108.947 16.7385 109.275 17.5298 109.275 18.5628C109.275 19.5959 108.94 20.3946 108.277 20.9514C107.613 21.5009 106.644 21.7793 105.375 21.7793Z" fill="#242424"/>
<path d="M127.346 21.3764C127.878 20.5997 128.148 19.6619 128.148 18.5628C128.148 17.0169 127.63 15.8006 126.588 14.9141C125.545 14.0275 124.117 13.5879 122.301 13.5879H116.834V27.8607H118.839V23.5158H122.301C122.513 23.5158 122.812 23.5012 123.183 23.4719L126.209 27.8533H128.388L125.064 23.0615C126.048 22.7099 126.814 22.1457 127.346 21.3764ZM122.236 21.7793H118.832V15.361H122.236C123.504 15.361 124.474 15.6394 125.137 16.1889C125.808 16.7385 126.136 17.5298 126.136 18.5628C126.136 19.5959 125.8 20.3946 125.137 20.9514C124.474 21.5009 123.504 21.7793 122.236 21.7793Z" fill="#242424"/>
<path d="M143.826 14.3729C142.689 13.7428 141.421 13.4277 140.021 13.4277C138.607 13.4277 137.332 13.7428 136.194 14.3729C135.057 15.003 134.168 15.8749 133.519 16.9959C132.87 18.1096 132.55 19.3552 132.55 20.7253C132.55 22.0954 132.87 23.341 133.519 24.4547C134.168 25.5684 135.057 26.4403 136.194 27.0777C137.332 27.7078 138.607 28.0229 140.021 28.0229C141.421 28.0229 142.689 27.7078 143.826 27.0777C144.964 26.4476 145.853 25.5757 146.487 24.4693C147.129 23.363 147.449 22.1174 147.449 20.7253C147.449 19.3405 147.129 18.095 146.487 16.9813C145.853 15.8749 144.964 15.003 143.826 14.3729ZM144.738 23.5242C144.264 24.3594 143.615 25.0189 142.791 25.4878C141.968 25.964 141.049 26.1985 140.014 26.1985C138.986 26.1985 138.053 25.964 137.222 25.4878C136.391 25.0115 135.735 24.3594 135.261 23.5242C134.788 22.6889 134.547 21.7511 134.547 20.718C134.547 19.6849 134.788 18.7544 135.261 17.9118C135.735 17.0765 136.391 16.4171 137.222 15.9482C138.053 15.4719 138.986 15.2375 140.014 15.2375C141.042 15.2375 141.968 15.4719 142.791 15.9482C143.615 16.4244 144.257 17.0765 144.738 17.9118C145.211 18.747 145.452 19.6849 145.452 20.718C145.452 21.7584 145.211 22.6889 144.738 23.5242Z" fill="#242424"/>
<path d="M170.288 13.5879L166.417 25.245L162.554 13.5879H160.709L156.766 25.1863L152.982 13.5879H150.92L155.607 27.8533H157.75L161.569 16.46L165.396 27.8533H167.503L172.19 13.5879H170.288Z" fill="#242424"/>
<path d="M27.0496 13.446H22.4646L22.399 7.07897H15.6198V4.71239H13.5131V7.15224L13.4329 7.16689C12.3031 7.34274 11.2096 7.797 10.2766 8.4784L10.211 8.52969L8.50526 6.80055L7.01821 8.30256L8.72394 10.0317L8.67291 10.0976C7.99499 11.0355 7.55034 12.1272 7.3681 13.2629L7.35352 13.3435H4.94071V15.4682H7.35352L7.3681 15.5488C7.54305 16.6845 7.99499 17.7835 8.67291 18.7214L8.72394 18.7873L7.01092 20.5165L8.49797 22.0185L10.211 20.2893L10.2766 20.3406C11.2096 21.022 12.2958 21.4763 13.4256 21.6521L13.5058 21.6668V24.114H15.6125V21.7401H15.7072L26.2478 21.7254C29.1271 21.784 31.4306 24.1066 31.4889 27.0154C31.5472 29.9901 29.2 32.4666 26.2478 32.5252H22.2094V26.1728H13.863C13.7537 26.1728 13.6516 26.1728 13.5423 26.1728C7.11296 26.0849 1.95204 20.7363 2.0468 14.252C2.09054 11.1088 3.34432 8.178 5.57489 5.98726C7.80547 3.79653 10.7577 2.60957 13.8703 2.66086H22.122V0.726562H13.8703C13.8557 0.726562 13.8484 0.726562 13.8339 0.726562C10.2693 0.726562 6.78495 2.18461 4.27009 4.73437C1.7042 7.32076 0.290039 10.7644 0.290039 14.4205C0.290039 18.0766 1.7042 21.5202 4.27009 24.1066C6.83597 26.693 10.2401 28.1144 13.8703 28.1144H20.3069V34.4668H25.1471V36.8188H27.2537V34.3936L27.3339 34.3789C28.4711 34.2104 29.5645 33.7561 30.5048 33.0747L30.5704 33.0235L32.2543 34.7233L33.7414 33.2213L32.0575 31.5288L32.1085 31.4628C32.7937 30.5177 33.2529 29.4113 33.4279 28.261L33.4425 28.1804H35.8116V26.0556H33.4352L33.4206 25.975C33.2384 24.8247 32.7791 23.7256 32.0939 22.7805L32.0429 22.7145L33.7341 21.0074L32.247 19.5054L30.5413 21.2198L30.4757 21.1686C29.5426 20.4945 28.4565 20.0475 27.3266 19.8717L27.2464 19.857V17.4172H25.1398V19.7984L14.5336 19.8131C11.6543 19.7545 9.35083 17.4319 9.29252 14.5231C9.2342 11.5484 11.5814 9.07188 14.5336 9.01327H20.4891L20.5547 15.3803H27.035C27.1371 15.3803 27.2464 15.3803 27.3558 15.3803C33.7486 15.4682 38.8804 20.7876 38.7929 27.2352C38.7492 30.3565 37.5027 33.2799 35.2794 35.456C33.0561 37.6321 30.1331 38.8117 27.035 38.7677H20.3215V40.702L27.0278 40.7094C34.4849 40.7094 40.5424 34.5914 40.5424 27.074C40.5643 19.564 34.4994 13.446 27.0496 13.446Z" fill="#242424"/>
</svg>

