<svg xmlns="http://www.w3.org/2000/svg" width="234" height="44" viewBox="0 0 234 44" fill="none" id="svg-1587934593_14111">
<g clip-path="url(#svg-1587934593_14111_clip0_520_3573)">
<mask id="svg-1587934593_14111_mask0_520_3573" style="mask-type:luminance" maskUnits="userSpaceOnUse" x="0" y="0" width="234" height="44">
<path d="M233.05 0.794922H0.849731V43.9949H233.05V0.794922Z" fill="white"/>
</mask>
<g mask="url(#svg-1587934593_14111_mask0_520_3573)">
<path d="M172.612 36.2036H169.703V33.2128H172.612V36.2036ZM182.608 34.237C183.538 34.2498 184.441 33.9352 185.158 33.349C185.501 33.0964 185.779 32.7676 185.969 32.3889C186.161 32.0103 186.26 31.5925 186.26 31.169H188.882L188.91 31.2566C188.919 31.967 188.757 32.6691 188.437 33.3048C188.119 33.9407 187.651 34.4918 187.074 34.9125C185.834 35.9659 184.251 36.5346 182.618 36.512C181.612 36.574 180.606 36.4019 179.677 36.0095C178.75 35.617 177.928 35.015 177.278 34.2514C176.008 32.6328 175.353 30.6214 175.429 28.5711V27.9525C175.357 25.9081 176.013 23.9041 177.285 22.2938C177.934 21.53 178.753 20.9273 179.679 20.5335C180.604 20.1395 181.608 19.9655 182.613 20.0251C184.302 19.9577 185.948 20.5475 187.204 21.669C187.774 22.1732 188.226 22.7973 188.523 23.4963C188.823 24.1951 188.96 24.9511 188.926 25.7094L188.898 25.797H186.267C186.274 25.3358 186.186 24.8779 186.006 24.4521C185.829 24.0261 185.563 23.6415 185.229 23.322C184.884 22.9845 184.476 22.7201 184.025 22.5447C183.575 22.3695 183.095 22.2869 182.611 22.3021C181.967 22.2485 181.32 22.3729 180.741 22.6613C180.164 22.9498 179.677 23.3911 179.336 23.9366C178.648 25.1593 178.307 26.5457 178.354 27.9463V28.5651C178.301 29.9793 178.639 31.3808 179.329 32.6189C179.673 33.1624 180.163 33.601 180.743 33.8864C181.322 34.1719 181.969 34.2932 182.613 34.237H182.608ZM191.493 28.1165C191.41 26.0149 192.093 23.9539 193.415 22.3114C194.051 21.5587 194.851 20.9613 195.755 20.5656C196.661 20.1697 197.646 19.9862 198.633 20.0291C199.627 19.9848 200.615 20.1668 201.527 20.5611C202.438 20.9555 203.245 21.5516 203.889 22.3042C205.221 23.9454 205.909 26.0104 205.824 28.1165V28.4393C205.914 30.5438 205.23 32.6089 203.901 34.2514C203.261 34.9993 202.455 35.5918 201.55 35.9835C200.642 36.3753 199.657 36.556 198.668 36.512C197.678 36.5555 196.691 36.3735 195.783 35.9804C194.876 35.5871 194.07 34.9929 193.428 34.2431C192.098 32.6044 191.412 30.5419 191.498 28.4393L191.493 28.1165ZM194.402 28.432C194.348 29.8951 194.726 31.3421 195.488 32.5953C195.824 33.1246 196.295 33.5555 196.855 33.8441C197.414 34.1325 198.04 34.2682 198.668 34.237C199.294 34.2662 199.919 34.1296 200.475 33.8412C201.031 33.5526 201.499 33.1227 201.833 32.5953C202.594 31.3423 202.971 29.8948 202.911 28.432V28.1092C202.966 26.6503 202.587 25.2077 201.824 23.9603C201.49 23.4288 201.017 22.9952 200.457 22.7042C199.898 22.4132 199.27 22.2751 198.64 22.3042C198.014 22.276 197.391 22.4146 196.837 22.7059C196.283 22.9971 195.817 23.4303 195.488 23.9603C194.731 25.2105 194.358 26.6518 194.411 28.1092L194.402 28.432ZM211.979 20.323L212.187 22.4073C212.695 21.6669 213.383 21.064 214.185 20.6531C215.054 20.2235 216.018 20.0109 216.989 20.0343C217.957 20.0078 218.908 20.2631 219.731 20.7685C220.528 21.2997 221.133 22.0718 221.454 22.9703C221.925 22.0985 222.609 21.3586 223.445 20.8191C224.312 20.2795 225.32 20.0037 226.344 20.026C227.072 19.9937 227.799 20.1269 228.467 20.4155C229.136 20.704 229.73 21.1405 230.202 21.6916C231.254 23.1447 231.757 24.9192 231.621 26.7035V36.2037H228.713V26.6777C228.821 25.5106 228.536 24.3408 227.899 23.3529C227.598 23.017 227.222 22.7545 226.801 22.5853C226.381 22.4161 225.927 22.345 225.475 22.3774C225.021 22.3619 224.569 22.4462 224.15 22.6245C223.733 22.8029 223.361 23.0705 223.058 23.4087C222.425 24.136 222.043 25.047 221.973 26.0064V36.2037H219.04V26.6777C219.135 25.5278 218.843 24.379 218.21 23.4116C217.918 23.0648 217.55 22.7908 217.132 22.6116C216.715 22.4324 216.261 22.3532 215.807 22.3804C215.04 22.3496 214.282 22.5383 213.62 22.924C213.04 23.2943 212.583 23.8248 212.303 24.4502V36.2068H209.395V20.3251L211.979 20.323Z" fill="#242424"/>
<path d="M13.6259 23.3498L9.34646 22.3879C7.7209 22.0144 5.8471 21.5195 5.8471 19.9695C5.8471 18.4195 7.15999 17.3324 9.53341 17.3324C14.3114 17.3324 13.8751 20.6521 16.2517 20.6521C16.5406 20.6813 16.8325 20.6514 17.1094 20.5645C17.3862 20.4774 17.6422 20.3352 17.8616 20.1463C18.0809 19.9573 18.259 19.7255 18.3847 19.4656C18.5105 19.2058 18.5814 18.9232 18.5928 18.635C18.5928 15.6578 13.8751 13.4238 9.87723 13.4238C5.53548 13.4238 0.912257 15.2803 0.912257 20.2489C0.912257 22.6363 1.75568 25.1805 6.41006 26.3593L12.1904 27.8183C13.9395 28.2515 14.3779 29.2437 14.3779 30.144C14.3779 31.6311 12.9071 33.0883 10.2532 33.0883C5.06807 33.0883 5.78685 29.06 3.00418 29.06C2.72028 29.0465 2.43661 29.0916 2.17109 29.1922C1.90556 29.2929 1.66394 29.4471 1.46144 29.6453C1.25894 29.8433 1.09997 30.0807 0.994546 30.3429C0.88912 30.605 0.839529 30.8858 0.848896 31.168C0.848896 33.5874 3.75725 36.8099 10.2532 36.8099C16.4387 36.8099 19.4975 33.8029 19.4975 29.7695C19.4996 27.1666 18.3135 24.4058 13.6259 23.3498Z" fill="#242424"/>
<path d="M29.3173 33.1509H28.6619C27.8497 33.1509 27.4757 32.7776 27.4757 32.098V23.0404H28.851C30.192 23.0404 30.9107 22.636 30.9107 21.5512C30.9107 20.4663 30.192 20.0632 28.851 20.0632H27.4789V17.3024C27.4988 16.9929 27.4546 16.6827 27.3491 16.3908C27.2435 16.0988 27.0787 15.8314 26.8652 15.6052C26.6514 15.379 26.3932 15.1987 26.1065 15.0755C25.8199 14.9522 25.5108 14.8887 25.1984 14.8887C24.886 14.8887 24.5769 14.9522 24.2902 15.0755C24.0037 15.1987 23.7454 15.379 23.5317 15.6052C23.318 15.8314 23.1533 16.0988 23.0478 16.3908C22.9422 16.6827 22.8981 16.9929 22.9179 17.3024V20.0632H22.1359C20.854 20.0632 20.3243 20.5581 20.3243 21.5512C20.3243 22.5442 20.854 23.0404 22.1359 23.0404H22.9179V32.656C22.9179 35.3228 24.2911 36.6881 27.6045 36.6881C29.7921 36.6881 30.9149 35.9748 30.9149 34.6701C30.931 34.4607 30.9002 34.2502 30.8245 34.0541C30.7489 33.858 30.6305 33.6809 30.4776 33.5357C30.3249 33.3904 30.1416 33.2807 29.9409 33.2141C29.7404 33.1476 29.5274 33.126 29.3173 33.1509Z" fill="#242424"/>
<path d="M40.0115 19.6621C34.5147 19.6621 31.5763 23.3839 31.5763 28.1618C31.5763 32.689 33.794 36.6903 40.0115 36.6903C46.2292 36.6903 48.4467 32.689 48.4467 28.1618C48.4467 23.3839 45.5083 19.6621 40.0115 19.6621ZM40.0115 33.3418C37.2933 33.3418 36.1392 30.9235 36.1392 28.1628C36.1392 25.2143 37.3577 23.0065 40.0115 23.0065C42.6654 23.0065 43.8859 25.2092 43.8859 28.1628C43.8859 30.9235 42.7287 33.3418 40.0115 33.3418Z" fill="#242424"/>
<path d="M63.4777 30.2383C61.0731 30.2383 61.7607 33.1515 58.5741 33.1515C56.0739 33.1515 54.7308 31.3221 54.7308 28.4985C54.7308 24.4065 56.8238 23.1969 58.6063 23.1969C61.8844 23.1969 61.1054 25.8627 63.2596 25.8627C63.5326 25.8906 63.8086 25.8606 64.069 25.774C64.3293 25.6876 64.5682 25.5466 64.7693 25.3612C64.9703 25.1756 65.1294 24.9496 65.2352 24.6982C65.3411 24.4467 65.3918 24.1756 65.3837 23.9031C65.3837 21.7941 62.5409 19.6543 58.7289 19.6543C53.1366 19.6543 50.17 23.2834 50.17 28.4935C50.17 33.2372 52.8238 36.6827 58.4473 36.6827C63.1338 36.6827 65.3827 33.954 65.3827 31.9677C65.3746 31.729 65.3186 31.4947 65.218 31.2779C65.1174 31.061 64.9742 30.8661 64.7967 30.705C64.6192 30.544 64.4111 30.4196 64.1847 30.3396C63.9581 30.2594 63.7179 30.225 63.4777 30.2383Z" fill="#242424"/>
<path d="M79.0945 19.6621C78.7582 19.6797 78.4292 19.7659 78.1279 19.9154C77.8265 20.0647 77.5595 20.2741 77.3433 20.5304L74.4859 23.6862C74.5946 23.6339 74.7184 23.6211 74.8357 23.6496C74.9531 23.6783 75.0567 23.7464 75.1288 23.8428L77.2207 26.6706L80.5621 23.1993C80.7873 23.0221 80.9669 22.7949 81.0865 22.5357C81.2059 22.2765 81.2619 21.993 81.2497 21.7082C81.2133 21.1613 80.9718 20.6477 80.5728 20.2691C80.1739 19.8903 79.6463 19.6736 79.0945 19.6621ZM68.0968 35.8232C68.3155 36.115 68.6049 36.3474 68.938 36.499C69.271 36.6505 69.6373 36.7164 70.0028 36.6903C70.3105 36.721 70.6213 36.6835 70.9126 36.5804C71.2039 36.4772 71.4685 36.311 71.6871 36.094C71.906 35.8767 72.0733 35.6143 72.1772 35.325C72.281 35.0357 72.3188 34.7271 72.2879 34.4216V31.2886L68.0968 35.8232ZM70.0028 13.5476C69.695 13.5167 69.3841 13.5541 69.0928 13.6572C68.8014 13.7602 68.5368 13.9264 68.318 14.1436C68.0993 14.3608 67.9318 14.6234 67.828 14.9128C67.7243 15.2021 67.6866 15.5108 67.7178 15.8164V30.8358L72.2796 25.9775V15.8154C72.3097 15.511 72.2715 15.2038 72.1679 14.9158C72.0641 14.6278 71.8974 14.3661 71.6798 14.1496C71.462 13.9332 71.1988 13.7673 70.9087 13.664C70.6188 13.5606 70.3094 13.5222 70.0028 13.5517V13.5476Z" fill="#242424"/>
<path d="M103.23 32.4989L97.0446 15.41C96.9421 15.0087 96.7384 14.6398 96.4527 14.3382C96.167 14.0365 95.8089 13.8119 95.4117 13.6855L93.6086 19.0708H93.6709L96.5792 28.0348H90.6088L89.4257 31.5689H97.7052L99.015 35.2917C99.1883 35.7474 99.5102 36.1324 99.9294 36.3854C100.349 36.6384 100.841 36.745 101.328 36.688C101.945 36.7065 102.543 36.4822 102.994 36.0638C103.444 35.6456 103.71 35.0674 103.733 34.4556C103.661 33.7827 103.492 33.1236 103.23 32.4989Z" fill="#242424"/>
<path d="M108.045 13.5514C107.737 13.5207 107.426 13.5583 107.135 13.6614C106.844 13.7646 106.579 13.9307 106.36 14.1479C106.142 14.365 105.974 14.6278 105.87 14.9171C105.766 15.2063 105.729 15.5149 105.76 15.8204V34.4287C105.739 34.7388 105.782 35.0497 105.887 35.3426C105.992 35.6353 106.156 35.9035 106.37 36.1306C106.584 36.3578 106.843 36.5389 107.13 36.6626C107.417 36.7863 107.726 36.8503 108.04 36.8503C108.353 36.8503 108.662 36.7863 108.95 36.6626C109.237 36.5389 109.495 36.3578 109.709 36.1306C109.923 35.9035 110.087 35.6353 110.192 35.3426C110.297 35.0497 110.341 34.7388 110.32 34.4287V15.8204C110.35 15.5158 110.313 15.2081 110.21 14.9196C110.106 14.6311 109.94 14.3689 109.723 14.1519C109.505 13.9349 109.242 13.7685 108.951 13.6647C108.661 13.5609 108.352 13.5221 108.045 13.5514Z" fill="#242424"/>
<path d="M127.058 19.6598C126.772 19.6313 126.483 19.6678 126.213 19.7666C125.943 19.8654 125.7 20.0241 125.501 20.2304C125.303 20.4367 125.154 20.6854 125.067 20.9572C124.979 21.2292 124.955 21.5172 124.997 21.7998V22.3586H124.935C124.475 21.5008 123.778 20.791 122.926 20.313C122.074 19.835 121.103 19.6088 120.125 19.6608C116.282 19.6608 112.971 22.4215 112.971 28.2832C112.971 32.7506 115.471 35.8538 120.28 35.8538C121.132 35.8474 121.972 35.6485 122.735 35.2723C123.498 34.8959 124.165 34.3521 124.685 33.682H124.748V34.6101C124.748 38.1762 123.622 39.5705 120.841 39.5705C118.282 39.5705 117.907 37.2448 116.001 37.2448C115.75 37.2481 115.503 37.3008 115.273 37.3994C115.043 37.4981 114.835 37.641 114.662 37.8199C114.488 37.9989 114.351 38.2102 114.26 38.4418C114.169 38.6735 114.125 38.921 114.131 39.1694C114.131 41.3713 117.537 42.9232 121.004 42.9232C125.754 42.9232 129.128 40.41 129.128 34.9485V21.8008C129.126 20.4065 128.465 19.6598 127.058 19.6598ZM121.154 32.5002C118.562 32.5002 117.531 30.2056 117.531 28.1296C117.531 25.338 118.435 23.1981 121.374 23.1981C123.498 23.1981 124.748 24.6551 124.748 27.9418C124.748 31.1686 123.185 32.5002 121.154 32.5002Z" fill="#242424"/>
<path d="M140.12 19.6621C134.615 19.6621 131.685 23.3839 131.685 28.1618C131.685 32.689 133.902 36.6903 140.12 36.6903C146.338 36.6903 148.552 32.689 148.552 28.1618C148.554 23.3839 145.619 19.6621 140.12 19.6621ZM140.12 33.3418C137.399 33.3418 136.244 30.9235 136.244 28.1628C136.244 25.2143 137.463 23.0065 140.12 23.0065C142.777 23.0065 143.992 25.2092 143.992 28.1628C143.994 30.9235 142.839 33.3418 140.12 33.3418Z" fill="#242424"/>
<path d="M159.251 26.454L157.345 26.0186C155.936 25.7092 154.908 25.4616 154.908 24.4088C154.908 23.4476 155.938 23.0105 157.531 23.0105C160.406 23.0105 160.469 25.0885 162.249 25.0885C162.507 25.0903 162.763 25.0395 163.001 24.9392C163.24 24.839 163.455 24.6915 163.633 24.5057C163.812 24.3199 163.95 24.1 164.04 23.8591C164.129 23.6184 164.168 23.3618 164.155 23.1053C164.155 21.0272 160.655 19.6621 157.188 19.6621C154.032 19.6621 150.346 21.0274 150.346 24.7151C150.346 27.7543 152.41 28.8402 155.064 29.4898L157.752 30.1417C159.374 30.5459 160.375 30.7317 160.375 31.8775C160.375 32.8056 159.343 33.5272 157.721 33.5272C154.344 33.5272 154.158 30.7357 152.189 30.7357C151.938 30.7215 151.686 30.7614 151.452 30.8525C151.218 30.9435 151.006 31.0838 150.832 31.2634C150.657 31.4429 150.523 31.6577 150.439 31.8932C150.356 32.1288 150.324 32.3795 150.347 32.6282C150.347 34.8619 153.783 36.6914 157.908 36.6914C161.345 36.6914 164.936 34.9845 164.936 31.2926C164.936 28.1307 161.841 27.0427 159.251 26.454Z" fill="#242424"/>
<path d="M100.078 9.05671L97.3258 7.96979L95.4126 13.6861L93.6093 19.0702L93.4744 19.4673L90.6055 28.0341L89.4224 31.5682L89.0007 32.8232L85.4349 43.4691C85.3895 43.6035 85.3078 43.7229 85.1986 43.814C85.0894 43.9052 84.9569 43.9647 84.8158 43.9861C84.6748 44.0074 84.5305 43.9897 84.3989 43.9349C84.2673 43.8802 84.1535 43.7901 84.07 43.6754L78.5295 36.0347C78.4017 35.9134 78.2873 35.7786 78.189 35.6326L75.426 31.755L73.8783 29.5893L73.8618 29.6036L73.8565 29.5945L73.7869 29.6698L72.2849 31.2939L68.098 35.8254C67.8362 35.4069 67.7057 34.9205 67.7231 34.4282V30.8403L72.2849 25.9819L74.3375 23.7967C74.3788 23.7521 74.4295 23.7167 74.4859 23.6935C74.5948 23.6411 74.7185 23.6284 74.8358 23.6569C74.9533 23.6856 75.0569 23.754 75.1289 23.8502L77.2208 26.6779L77.1896 26.7089L81.1648 32.0076L82.0373 33.1864L83.1269 34.658L93.492 6.46191L91.0064 5.48325C90.9522 5.45863 90.906 5.41977 90.8722 5.37097C90.8386 5.32217 90.8191 5.26532 90.8156 5.20631C90.812 5.14728 90.8247 5.08849 90.8523 5.0361C90.8799 4.98371 90.9213 4.93976 90.9721 4.90895L97.599 0.850841C97.6415 0.825057 97.6894 0.809052 97.739 0.804263C97.7888 0.799475 97.8387 0.805981 97.8855 0.823146C97.9323 0.840311 97.9745 0.867776 98.0092 0.903463C98.0437 0.93915 98.0697 0.982025 98.0852 1.0291L100.509 8.66067C100.526 8.71871 100.525 8.77997 100.509 8.83791C100.492 8.89586 100.46 8.94833 100.415 8.98923C100.371 9.03015 100.316 9.05788 100.256 9.06981C100.197 9.08171 100.135 9.07727 100.078 9.05671Z" fill="#242424"/>
</g>
</g>
<defs>
<clipPath id="svg-1587934593_14111_clip0_520_3573">
<rect width="232.2" height="43.2" fill="white" transform="translate(0.849731 0.794922)"/>
</clipPath>
</defs>
</svg>

