<svg xmlns="http://www.w3.org/2000/svg" width="122" height="43" viewBox="0 0 122 43" fill="none" id="svg-1322078376_18862">
<path fill-rule="evenodd" clip-rule="evenodd" d="M79.5988 17.8673C79.5988 24.694 75.4883 30.2532 70.4361 30.2532H69.4764C69.404 30.2532 69.3859 30.1626 69.4402 30.1264C73.0618 28.0802 75.5064 23.3359 75.5607 18.0302V17.6862C75.5245 15.7848 74.945 14.1008 74.0215 12.9057C73.9672 12.8151 73.8948 12.7427 73.8224 12.6703C73.7861 12.634 73.768 12.5978 73.7318 12.5616C73.6956 12.5254 73.6775 12.4892 73.6413 12.4711C73.6051 12.4349 73.587 12.3986 73.5507 12.3805C73.4964 12.3262 73.424 12.2538 73.3515 12.1994C73.2067 12.0727 73.0618 11.9459 72.8988 11.8373C72.2288 11.3484 71.4502 11.0949 70.6353 11.0949C70.4905 11.0949 70.3637 11.113 70.2188 11.1311C70.1645 11.1311 70.1102 11.1492 70.0559 11.1492C69.6756 11.2216 69.2953 11.3303 68.9513 11.5113C68.4262 11.7649 67.9735 12.127 67.5932 12.5797C66.4162 13.8835 65.7643 15.8029 65.7643 17.8854C65.7643 19.7686 66.3075 21.5432 67.2853 22.8108C67.3035 22.847 67.3035 22.8832 67.2853 22.9013C67.0681 23.1005 66.8145 23.2635 66.5429 23.4083C66.2713 23.5351 65.9997 23.6256 65.7099 23.68C65.6737 23.68 65.6194 23.6981 65.5832 23.6981C65.5289 23.6981 65.4926 23.7162 65.4383 23.7162C65.384 23.7162 65.3116 23.7343 65.2572 23.7343C63.0843 23.7343 61.3097 21.1086 61.3097 17.8854C61.3097 12.2719 64.1164 7.34649 68.1364 5.91596C68.6253 5.73487 69.1505 5.60812 69.6756 5.55379C69.8386 5.53569 70.0197 5.51758 70.2007 5.51758C70.3094 5.51758 70.3999 5.51758 70.5086 5.51758C75.5064 5.51758 79.5988 11.0586 79.5988 17.8673Z" fill="black"/>
<path fill-rule="evenodd" clip-rule="evenodd" d="M74.6008 17.7006V18.0265C74.5465 23.5676 71.7397 28.4205 67.7741 29.8329C67.5568 29.9054 67.3395 29.9778 67.1222 30.0321C67.086 30.0502 67.0498 30.0502 67.0135 30.0502C66.9773 30.0683 66.9411 30.0684 66.9049 30.0684C66.8868 30.0684 66.8687 30.0865 66.8506 30.0865C66.7781 30.1046 66.7057 30.1227 66.6152 30.1227C66.3617 30.177 66.1081 30.1951 65.8546 30.2132C65.8184 30.2132 65.7822 30.2132 65.746 30.2132C65.6735 30.2132 65.583 30.2132 65.5106 30.2132C65.4925 30.2132 65.4744 30.2132 65.4563 30.2132H65.4381C60.4041 30.1951 56.2936 24.654 56.2936 17.8273C56.2936 11.0006 60.4041 5.44141 65.4563 5.44141H66.416C66.4884 5.44141 66.5065 5.53195 66.4522 5.56816C62.8487 7.61437 60.386 12.3587 60.3317 17.6462V17.9903C60.3317 18.0989 60.3317 18.2257 60.3498 18.3343C60.3498 18.3706 60.3498 18.3887 60.3498 18.4249C60.3679 18.5878 60.3679 18.7689 60.4041 18.9319C60.4041 18.95 60.4041 18.95 60.4041 18.9681C60.4041 19.0224 60.4222 19.0949 60.4222 19.1492C60.4222 19.2035 60.4403 19.2578 60.4403 19.3122C60.4403 19.3484 60.4584 19.4027 60.4584 19.4389C60.4765 19.5114 60.4765 19.5838 60.4946 19.6562C60.4946 19.6743 60.4946 19.6743 60.4946 19.6924C60.5128 19.783 60.5309 19.8554 60.549 19.946C60.5671 20.0184 60.5852 20.0908 60.6033 20.1632C60.6214 20.2538 60.6576 20.3443 60.6757 20.4349C60.6757 20.453 60.6938 20.4711 60.6938 20.4892C60.7119 20.5616 60.7482 20.6522 60.7663 20.7246C60.7663 20.7427 60.7844 20.7608 60.7844 20.7789C60.8025 20.8514 60.8387 20.9238 60.8568 20.9962C60.8568 21.0143 60.8749 21.0505 60.8749 21.0687C60.893 21.123 60.9292 21.1954 60.9473 21.2497C60.9655 21.3041 61.0017 21.3765 61.0198 21.4308C61.0379 21.467 61.056 21.5032 61.0741 21.5576C61.0922 21.5938 61.1103 21.6119 61.1103 21.6481C61.1465 21.7205 61.1828 21.7749 61.2009 21.8473C61.2733 21.9922 61.3638 22.137 61.4544 22.2819C61.5449 22.4449 61.6536 22.5897 61.7622 22.7527C61.8165 22.8432 61.9252 22.97 61.9976 23.0605C62.0882 23.1692 62.1787 23.2778 62.2873 23.3684C62.396 23.477 62.4865 23.5676 62.5952 23.6581C63.3557 24.2919 64.243 24.6722 65.2027 24.6722C65.2752 24.6722 65.3295 24.6722 65.4019 24.654C65.42 24.654 65.4563 24.654 65.4744 24.654C65.5287 24.654 65.583 24.6359 65.6373 24.6359C66.0719 24.5816 66.4884 24.4549 66.8868 24.2557C67.4119 24.0022 67.8646 23.64 68.2449 23.1873C69.4219 21.9016 70.0738 19.9641 70.0738 17.8816C70.0738 15.9984 69.5306 14.2238 68.5527 12.9562C68.5346 12.92 68.5346 12.8838 68.5527 12.8657C68.77 12.6665 69.0235 12.5035 69.2952 12.3587C69.5668 12.2319 69.8384 12.1414 70.1281 12.0871C70.1643 12.0871 70.2187 12.069 70.2549 12.069C70.3635 12.0508 70.4541 12.0508 70.5627 12.0508C72.7719 12.0146 74.5465 14.5679 74.6008 17.7006Z" fill="black"/>
<path d="M53.7577 23.6058C53.7577 25.3623 52.9428 26.9015 51.3493 28.1872C49.6834 29.5996 47.5466 30.2877 44.8666 30.2877C43.3274 30.2696 41.7883 29.9799 40.3577 29.4004C39.2712 29.002 38.2572 28.3864 37.4061 27.5896C37.2612 27.4447 37.1345 27.2637 37.0621 27.0645C36.9896 26.8653 36.9534 26.6661 36.9534 26.4488C36.9715 26.1772 37.0621 25.9237 37.225 25.7064C37.388 25.4891 37.6053 25.3261 37.8588 25.2175C38.1123 25.1088 38.3839 25.0907 38.6556 25.145C38.9272 25.1993 39.1626 25.3261 39.3618 25.5072C39.742 25.8693 40.1585 26.1953 40.5931 26.4669C41.8969 27.1912 43.3818 27.5353 44.8847 27.4991C46.8947 27.4991 48.452 27.0101 49.629 26.0323C50.5344 25.2537 51.0053 24.4388 51.0053 23.6058C51.0053 21.8312 49.8463 20.5999 47.4561 19.8394C46.8766 19.6583 45.9893 19.3867 44.7942 19.0245L41.752 18.0829C39.8869 17.4853 38.5107 16.5618 37.5329 15.2761C36.6999 14.244 36.2472 12.9764 36.2472 11.6545C36.2472 9.89805 37.0621 8.35886 38.6556 7.07319C40.3215 5.66076 42.4583 4.97266 45.1382 4.97266C46.6955 4.99076 48.2347 5.2986 49.6834 5.85995C50.7698 6.27644 51.7658 6.874 52.6169 7.67076C52.9066 7.92427 53.0696 8.28643 53.1058 8.6667C53.1239 9.04697 52.9971 9.42724 52.7436 9.71696C52.4901 10.0067 52.1279 10.1697 51.7477 10.2059C51.3674 10.224 50.9871 10.0972 50.6974 9.84372C49.7558 9.06507 47.8001 7.74319 45.1745 7.7794C43.1283 7.81562 41.571 8.30454 40.4302 9.24616C39.5248 10.0248 39.0539 10.8397 39.0539 11.6726C39.0539 13.4291 40.1585 14.6424 42.4583 15.3848L43.9069 15.8375C45.1382 16.2178 46.605 16.6705 48.3072 17.1956C50.1723 17.7932 51.5485 18.7167 52.5263 20.0023C53.305 21.0164 53.7577 22.2839 53.7577 23.6058Z" fill="black"/>
<path d="M34.8535 16.4156C34.6181 13.6089 33.4229 10.9832 31.5035 8.93698C29.2581 6.47429 26.4876 5.24294 23.2643 5.24294C21.707 5.22483 20.1497 5.53267 18.7192 6.16645C17.2887 6.80023 16.003 7.72374 14.9708 8.90077C12.7254 11.3272 11.5846 14.3332 11.5846 17.8099C11.5303 21.1237 12.7435 24.3288 14.9708 26.7915C17.2706 29.2542 20.0592 30.4856 23.2643 30.4856C26.8135 30.4856 29.747 29.055 31.9924 26.2121C32.1192 26.0672 32.1916 25.8861 32.2459 25.705C32.2821 25.524 32.3002 25.3248 32.264 25.1437C32.2278 24.9626 32.1554 24.7815 32.0467 24.6367C31.9381 24.4918 31.7932 24.365 31.6302 24.2564L31.5578 24.2202C31.2862 24.0572 30.9602 24.0029 30.6524 24.0753C30.3446 24.1296 30.073 24.3107 29.8738 24.5461C28.1535 26.701 25.9262 27.7875 23.2462 27.7875C22.1416 27.7875 21.0551 27.5702 20.0411 27.1537C19.027 26.7372 18.1035 26.1034 17.3249 25.3248C15.5503 23.6226 14.5181 21.4134 14.3008 18.7515H33.1513C33.3867 18.7515 33.6221 18.6972 33.8394 18.6067C34.0567 18.5161 34.2559 18.3713 34.4189 18.2083C34.5819 18.0453 34.7086 17.8461 34.781 17.6288C34.8716 17.4116 34.9078 17.1761 34.8897 16.9407C34.8897 16.7234 34.8716 16.5243 34.8535 16.4156ZM32.2097 16.0716H14.2827C14.6449 13.627 15.7133 11.6351 17.4697 10.1502C19.2262 8.66536 21.1638 7.86861 23.2643 7.86861C25.3649 7.86861 27.2481 8.64726 29.0046 10.1502C30.7248 11.6713 31.8838 13.7718 32.2097 16.0716Z" fill="black"/>
<path d="M13.4319 7.0355C13.3413 7.30712 13.1421 7.56064 12.8886 7.7055C12.6351 7.85036 12.3454 7.9409 12.0375 7.90469C11.7478 7.86847 11.4762 7.86847 11.1865 7.86847C9.0316 7.83226 6.94917 8.6109 5.33756 10.0414C4.50459 10.7477 3.8527 11.6349 3.4 12.6309C2.94729 13.6268 2.73 14.7133 2.74811 15.7998V28.5841C2.74811 28.9462 2.60324 29.2903 2.34973 29.5257C2.09622 29.7792 1.75216 29.9241 1.40811 29.9241C1.04595 29.9241 0.701897 29.7792 0.466492 29.5257C0.21298 29.2722 0.0681152 28.9281 0.0681152 28.5841V7.01739C0.0681152 6.65523 0.21298 6.31118 0.466492 6.07578C0.720005 5.82226 1.06406 5.6774 1.40811 5.6774C1.77027 5.6774 2.11432 5.82226 2.34973 6.07578C2.60324 6.32929 2.74811 6.67334 2.74811 7.01739V8.8282C3.52675 7.81415 4.64945 6.98118 6.13431 6.32929C7.83647 5.60497 9.68349 5.2247 11.5305 5.24281C11.784 5.24281 12.0194 5.24281 12.2367 5.26091C12.4359 5.27902 12.6532 5.33335 12.8162 5.44199C12.9973 5.55064 13.1421 5.69551 13.2689 5.85848C13.3775 6.03956 13.45 6.23875 13.4862 6.43794C13.5405 6.63713 13.5043 6.85442 13.4319 7.0355Z" fill="black"/>
<path d="M56.7823 5.67969C56.4201 5.67969 56.0761 5.82455 55.8226 6.07806C55.5691 6.33158 55.4242 6.67563 55.4242 7.03779V39.1253C55.4423 39.4693 55.5872 39.7952 55.8407 40.0307C56.0942 40.2661 56.4201 40.4109 56.7642 40.4109C57.1082 40.4109 57.4523 40.2842 57.6877 40.0307C57.9412 39.7952 58.0861 39.4693 58.1042 39.1253V7.01968C58.1042 6.65752 57.9593 6.33158 57.7058 6.07806C57.4885 5.82455 57.1445 5.67969 56.7823 5.67969Z" fill="black"/>
<path d="M100.151 7.01926C100.223 6.82007 100.241 6.62088 100.223 6.40359C100.205 6.2044 100.133 6.00521 100.006 5.82413C99.8974 5.64305 99.7344 5.49818 99.5533 5.40764C99.3722 5.29899 99.173 5.24467 98.9739 5.24467C98.7566 5.22656 98.5212 5.22656 98.2495 5.22656C96.4025 5.22656 94.5555 5.58872 92.8533 6.31305C91.3685 6.98304 90.2458 7.79791 89.4671 8.81196V7.00115C89.4671 6.63899 89.3223 6.29494 89.0688 6.05953C88.8152 5.80602 88.4712 5.66116 88.1271 5.66116C87.765 5.66116 87.4209 5.80602 87.1674 6.05953C86.9139 6.31305 86.769 6.6571 86.769 7.00115V28.5497C86.769 28.7308 86.7872 28.9119 86.8596 29.0749C86.932 29.2378 87.0226 29.4008 87.1493 29.5276C87.2761 29.6543 87.4209 29.763 87.602 29.8354C87.765 29.9078 87.9461 29.944 88.1271 29.944C88.3082 29.944 88.4893 29.9078 88.6523 29.8354C88.8153 29.763 88.9782 29.6543 89.105 29.5276C89.2317 29.4008 89.3223 29.2378 89.3947 29.0749C89.4671 28.9119 89.4853 28.7308 89.4853 28.5497V15.8017C89.4671 14.7152 89.6844 13.6287 90.1371 12.6328C90.5898 11.6368 91.2417 10.7495 92.0747 10.0433C93.469 8.81196 95.2255 8.05142 97.0906 7.90655C97.652 7.85223 98.2133 7.85223 98.7928 7.90655C99.0825 7.94277 99.3903 7.87034 99.6439 7.70737C99.8612 7.54439 100.06 7.30899 100.151 7.01926Z" fill="black"/>
<path d="M82.64 5.69727C82.2778 5.69727 81.9338 5.84213 81.6802 6.09564C81.4267 6.34916 81.2819 6.69321 81.2819 7.03726V28.5858C81.2819 28.7669 81.3 28.948 81.3724 29.111C81.4448 29.2739 81.5354 29.4369 81.6621 29.5637C81.7889 29.6904 81.9338 29.7991 82.1148 29.8715C82.2959 29.9439 82.4589 29.9802 82.64 29.9802C82.821 29.9802 83.0021 29.9439 83.1651 29.8715C83.3281 29.7991 83.491 29.6904 83.6178 29.5637C83.7446 29.4369 83.8351 29.2739 83.9075 29.111C83.98 28.948 83.9981 28.7669 83.9981 28.5858V7.01915C83.9981 6.65699 83.8532 6.33105 83.5997 6.07753C83.3281 5.82402 82.984 5.69727 82.64 5.69727Z" fill="black"/>
<path d="M121.192 16.4156C120.957 13.6089 119.762 10.9832 117.842 8.93698C115.597 6.47429 112.826 5.24294 109.603 5.24294C108.046 5.22483 106.489 5.53267 105.058 6.16645C103.628 6.80023 102.342 7.72374 101.31 8.90077C99.0644 11.3454 97.9417 14.3513 97.9417 17.828C97.8874 21.1418 99.1006 24.3469 101.31 26.8096C103.61 29.2723 106.398 30.5037 109.603 30.5037C113.152 30.5037 116.086 29.0731 118.331 26.2302C118.458 26.0853 118.531 25.9042 118.585 25.7231C118.621 25.5421 118.639 25.3429 118.603 25.1618C118.567 24.9807 118.494 24.7996 118.386 24.6548C118.277 24.5099 118.132 24.3831 117.969 24.2745L117.897 24.2383C117.625 24.0753 117.299 24.021 116.991 24.0934C116.684 24.1477 116.412 24.3288 116.213 24.5642C114.492 26.7191 112.265 27.8056 109.585 27.8056C108.481 27.8056 107.394 27.5883 106.38 27.1718C105.366 26.7553 104.442 26.1215 103.664 25.3429C101.871 23.6407 100.857 21.4315 100.64 18.7697H119.49C119.726 18.7697 119.961 18.7153 120.178 18.6248C120.396 18.5342 120.595 18.3894 120.758 18.2264C120.921 18.0634 121.048 17.8643 121.12 17.647C121.211 17.4297 121.247 17.1943 121.229 16.9588C121.229 16.7234 121.211 16.5243 121.192 16.4156ZM103.809 10.1502C105.565 8.64726 107.503 7.86861 109.603 7.86861C111.686 7.86861 113.587 8.64726 115.344 10.1502C117.1 11.6713 118.241 13.7718 118.585 16.0716H100.64C100.984 13.627 102.052 11.6351 103.809 10.1502Z" fill="black"/>
<path d="M82.6404 0.644531C82.2601 0.644531 81.898 0.75318 81.572 0.970476C81.2642 1.18777 81.0107 1.4775 80.8658 1.83966C80.7209 2.18372 80.6847 2.58209 80.7572 2.94425C80.8296 3.32452 81.0107 3.65047 81.2823 3.92209C81.5539 4.19371 81.898 4.37479 82.2601 4.44722C82.6404 4.51965 83.0207 4.48344 83.3647 4.33857C83.7088 4.19371 84.0166 3.9402 84.2339 3.63236C84.4512 3.32452 84.5599 2.94425 84.5599 2.56398C84.5599 2.05696 84.3607 1.56804 83.9985 1.20588C83.6363 0.84372 83.1474 0.644531 82.6404 0.644531Z" fill="black"/>
<path d="M3.70751 40.2484H0.0496826V34.2727H3.70751V35.0151H0.864545V36.8803H3.41778V37.6046H0.864545V39.5059H3.70751V40.2484ZM5.98912 40.2484H5.10183L6.51426 38.2565L5.10183 36.2103H6.00723L7.03939 37.7132L8.03533 36.2103H8.92263L7.5102 38.2384L8.88641 40.2303H7.98101L6.96696 38.7454L5.98912 40.2484ZM10.3894 42.0592V36.2103H11.0956L11.1499 36.9346C11.4215 36.3732 11.9648 36.0835 12.6167 36.0835C13.7756 36.0835 14.4999 36.9527 14.4999 38.184C14.4999 39.4154 13.8299 40.3389 12.6167 40.3389C11.9648 40.3389 11.4396 40.0673 11.168 39.5784V42.0411H10.3894V42.0592ZM11.168 38.2203C11.168 39.0532 11.6388 39.6508 12.4356 39.6508C13.2323 39.6508 13.7032 39.0532 13.7032 38.2203C13.7032 37.3873 13.2323 36.7897 12.4356 36.7897C11.6569 36.7897 11.168 37.3873 11.168 38.2203ZM17.9042 40.3389C16.7091 40.3389 15.8942 39.4878 15.8942 38.2203C15.8942 36.9527 16.691 36.0835 17.868 36.0835C19.0088 36.0835 19.7693 36.8803 19.7693 38.0754V38.3651H16.6367C16.691 39.2162 17.1437 39.687 17.9042 39.687C18.5018 39.687 18.9002 39.4335 19.045 38.9808H19.7693C19.5883 39.85 18.9183 40.3389 17.9042 40.3389ZM17.8861 36.7354C17.2161 36.7354 16.7815 37.1338 16.6729 37.8581H19.0088C19.0088 37.1881 18.5742 36.7354 17.8861 36.7354ZM23.7893 36.1741V36.8803H23.4453C22.7029 36.8803 22.2502 37.333 22.2502 38.1116V40.2484H21.4715V36.2103H22.1958L22.2502 36.8259C22.4131 36.4095 22.8296 36.1197 23.3729 36.1197C23.5177 36.1197 23.6264 36.1378 23.7893 36.1741ZM25.7269 35.2324C25.4372 35.2324 25.2199 34.997 25.2199 34.7254C25.2199 34.4357 25.4553 34.2184 25.7269 34.2184C25.9985 34.2184 26.2339 34.4357 26.2339 34.7254C26.2339 35.0151 25.9985 35.2324 25.7269 35.2324ZM25.3466 40.2484V36.2103H26.1253V40.2484H25.3466ZM29.8193 40.3389C28.6242 40.3389 27.8093 39.4878 27.8093 38.2203C27.8093 36.9527 28.6061 36.0835 29.7831 36.0835C30.9239 36.0835 31.6844 36.8803 31.6844 38.0754V38.3651H28.5518C28.6061 39.2162 29.0588 39.687 29.8193 39.687C30.4169 39.687 30.8153 39.4335 30.9601 38.9808H31.6844C31.5034 39.85 30.8153 40.3389 29.8193 40.3389ZM29.7831 36.7354C29.1131 36.7354 28.6785 37.1338 28.5699 37.8581H30.9058C30.9058 37.1881 30.4712 36.7354 29.7831 36.7354ZM34.1652 40.2484H33.3866V36.2103H34.0928L34.1834 36.8259C34.4369 36.3551 34.9439 36.0835 35.5233 36.0835C36.5917 36.0835 37.0806 36.7354 37.0806 37.7676V40.2303H36.302V37.9486C36.302 37.1338 35.9217 36.8078 35.3242 36.8078C34.5998 36.8078 34.1834 37.333 34.1834 38.1116V40.2484H34.1652ZM40.1047 40.2484H39.326V36.8622H38.5293V36.2103H39.326V34.9427H40.1047V36.2103H40.9014V36.8622H40.1047V40.2484ZM42.8028 35.2324C42.5131 35.2324 42.2958 34.997 42.2958 34.7254C42.2958 34.4357 42.5312 34.2184 42.8028 34.2184C43.0925 34.2184 43.3098 34.4357 43.3098 34.7254C43.3098 35.0151 43.0925 35.2324 42.8028 35.2324ZM42.4225 40.2484V36.2103H43.2012V40.2484H42.4225ZM46.3339 40.3389C45.4647 40.3389 44.9576 39.85 44.9576 39.1076C44.9576 38.3651 45.519 37.8943 46.4606 37.8219L47.7282 37.7313V37.6227C47.7282 36.9527 47.3298 36.6992 46.7866 36.6992C46.1347 36.6992 45.7544 36.9889 45.7544 37.4778H45.0844C45.0844 36.6268 45.7725 36.0835 46.8228 36.0835C47.8187 36.0835 48.5068 36.6086 48.5068 37.6951V40.2303H47.8368L47.7463 39.5784C47.5471 40.0492 46.9857 40.3389 46.3339 40.3389ZM46.5693 39.7413C47.3117 39.7413 47.7463 39.2705 47.7463 38.51V38.2927L46.7141 38.3832C46.026 38.4557 45.7544 38.7092 45.7544 39.1076C45.7363 39.524 46.0622 39.7413 46.5693 39.7413ZM51.1868 40.2484H50.4082V34.1641H51.1868V40.2484Z" fill="black"/>
<path d="M62.6495 34.2711V39.5043H65.2751V40.2649H61.8346V34.2892H62.6495V34.2711ZM68.5165 40.3373C67.3213 40.3373 66.5065 39.4862 66.5065 38.2187C66.5065 36.9511 67.3032 36.0819 68.4802 36.0819C69.6211 36.0819 70.3816 36.8787 70.3816 38.0738V38.3635H67.2489C67.3032 39.2146 67.7559 39.6854 68.5165 39.6854C69.114 39.6854 69.5124 39.4319 69.6573 38.9792H70.3816C70.2005 39.8484 69.5124 40.3373 68.5165 40.3373ZM68.4802 36.7338C67.8103 36.7338 67.3757 37.1322 67.267 37.8565H69.6211C69.6211 37.1865 69.1684 36.7338 68.4802 36.7338ZM73.2246 40.3373C72.3554 40.3373 71.8483 39.8484 71.8483 39.106C71.8483 38.3635 72.4097 37.8927 73.3513 37.8203L74.6189 37.7298V37.6211C74.6189 36.9511 74.2205 36.6976 73.6773 36.6976C73.0254 36.6976 72.6451 36.9873 72.6451 37.4762H71.9751C71.9751 36.6252 72.6632 36.0819 73.7135 36.0819C74.7094 36.0819 75.3975 36.6071 75.3975 37.6935V40.2287H74.7275L74.637 39.5768C74.4378 40.0476 73.8764 40.3373 73.2246 40.3373ZM73.4419 39.7398C74.1843 39.7398 74.6189 39.2689 74.6189 38.5084V38.2911L73.5867 38.3816C72.8986 38.4541 72.627 38.7076 72.627 39.106C72.627 39.5225 72.9529 39.7398 73.4419 39.7398ZM79.5986 36.1725V36.8787H79.2545C78.5121 36.8787 78.0594 37.3314 78.0594 38.11V40.2468H77.2808V36.2087H78.0051L78.0594 36.8244C78.2224 36.4079 78.6208 36.1181 79.1821 36.1181C79.327 36.1181 79.4356 36.1363 79.5986 36.1725ZM81.9345 40.2468H81.1559V36.2087H81.8621L81.9526 36.8244C82.2061 36.3535 82.7132 36.0819 83.2926 36.0819C84.361 36.0819 84.8499 36.7338 84.8499 37.766V40.2287H84.0713V37.9471C84.0713 37.1322 83.691 36.8062 83.0934 36.8062C82.3691 36.8062 81.9526 37.3314 81.9526 38.11V40.2468H81.9345ZM87.1134 35.2308C86.8237 35.2308 86.6064 34.9954 86.6064 34.7238C86.6064 34.4341 86.8418 34.2168 87.1134 34.2168C87.385 34.2168 87.6205 34.4341 87.6205 34.7238C87.6386 35.0136 87.4032 35.2308 87.1134 35.2308ZM86.7332 40.2468V36.2087H87.5118V40.2468H86.7332ZM90.2461 40.2468H89.4675V36.2087H90.1737L90.2642 36.8244C90.5177 36.3535 91.0248 36.0819 91.6042 36.0819C92.6726 36.0819 93.1615 36.7338 93.1615 37.766V40.2287H92.3829V37.9471C92.3829 37.1322 92.0026 36.8062 91.405 36.8062C90.6807 36.8062 90.2642 37.3314 90.2642 38.11V40.2468H90.2461ZM94.7912 38.11C94.7912 36.9692 95.5337 36.0819 96.6926 36.0819C97.3445 36.0819 97.8515 36.3717 98.105 36.8787L98.1593 36.1906H98.8474V40.0657C98.8474 41.3333 98.0688 42.1481 96.8193 42.1481C95.7148 42.1481 94.9723 41.5325 94.8275 40.5003H95.6061C95.6966 41.0979 96.1493 41.4419 96.8374 41.4419C97.598 41.4419 98.0869 40.953 98.0869 40.1743V39.3595C97.8153 39.8303 97.2901 40.12 96.6564 40.12C95.5156 40.1381 94.7912 39.2508 94.7912 38.11ZM95.5699 38.0919C95.5699 38.8525 96.0407 39.45 96.8012 39.45C97.5799 39.45 98.0688 38.8887 98.0688 38.0919C98.0688 37.3133 97.598 36.7519 96.8193 36.7519C96.0407 36.7519 95.5699 37.3495 95.5699 38.0919Z" fill="black"/>
</svg>

