<svg xmlns="http://www.w3.org/2000/svg" width="100" height="34" viewBox="0 0 100 34" fill="none" id="svg-1040589619_8359">
<g clip-path="url(#svg-1040589619_8359_clip0_520_3684)">
<path d="M16.5548 33.214C25.5928 33.214 32.9195 25.8273 32.9195 16.7154C32.9195 7.60347 25.5928 0.216797 16.5548 0.216797C7.51689 0.216797 0.190186 7.60347 0.190186 16.7154C0.190186 25.8273 7.51689 33.214 16.5548 33.214Z" fill="#242424"/>
<path d="M27.7203 13.7813C27.2682 13.6688 26.7491 13.8798 26.4756 14.2962C26.2468 14.6423 25.9928 14.9996 25.7752 15.3231C25.7249 15.3991 25.5128 15.7114 25.3175 16.0012C25.2086 16.1588 25.0998 16.3191 24.9854 16.4851C24.0059 15.3091 23.0598 14.164 22.1054 13.0273C21.4831 12.2845 20.8524 11.5502 20.2161 10.8215C19.9538 10.5204 19.6161 10.4698 19.2282 10.5542C18.8459 10.6386 18.6282 10.8974 18.43 11.1957C17.4924 12.6081 16.5575 14.0205 15.6198 15.43C15.391 15.7733 15.1593 16.1194 14.897 16.5104C14.8524 16.4373 14.8328 16.3923 14.8049 16.3585C13.8952 15.2669 12.9826 14.1752 12.07 13.0864C11.4589 12.3577 10.8477 11.6318 10.2226 10.9143C9.71748 10.3347 8.8719 10.4023 8.4505 11.0466C6.99097 13.2636 5.53144 15.4807 4.06911 17.6978C3.72027 18.2267 3.84864 18.8766 4.35655 19.2593C4.98446 19.7319 5.62353 19.4815 5.97237 19.0117C6.2319 18.6628 6.43841 18.2773 6.67841 17.9144C6.92678 17.5402 7.18632 17.1773 7.44027 16.8059C7.49609 16.8481 7.5212 16.8593 7.53795 16.879C8.64306 18.2098 9.7426 19.5463 10.8533 20.8686C11.3193 21.4229 11.8021 21.9603 12.2905 22.4948C12.5166 22.7424 12.8068 22.7874 13.1333 22.734C13.5826 22.6608 13.8366 22.357 14.0654 22.0109C14.9779 20.6267 15.8905 19.2424 16.8059 17.8581C17.0375 17.5064 17.2831 17.1604 17.537 16.7918C17.7686 17.0675 17.9752 17.3151 18.1817 17.5655C19.0189 18.5756 19.8533 19.5913 20.6989 20.5957C21.2291 21.2259 21.7761 21.8421 22.3231 22.4583C22.6635 22.8409 23.0989 22.8437 23.5091 22.6355C23.7352 22.5202 23.9333 22.2979 24.0812 22.0784C24.5165 21.437 24.9407 20.7898 25.3677 20.1427C26.0654 19.0848 27.737 16.5836 28.4152 15.5088C28.5379 15.3147 28.6245 15.0502 28.6161 14.8251C28.5965 14.3328 28.1891 13.8995 27.7203 13.7813Z" fill="white"/>
<path d="M51.5562 8.83398H41.8641H41.7915C41.1748 8.87337 40.6948 9.38544 40.6948 10.0016C40.6948 10.6515 41.2194 11.1805 41.8641 11.1805H48.7738L40.0194 22.7441C39.7822 23.0564 39.7431 23.47 39.9162 23.8245C40.0892 24.179 40.4408 24.3985 40.8315 24.3985H50.5236C51.1655 24.3985 51.6901 23.8724 51.6901 23.2224C51.6901 22.5809 51.1906 22.0689 50.5459 22.052H43.6585L52.371 10.4883C52.6082 10.176 52.6473 9.76245 52.4715 9.40795C52.2957 9.05344 51.9469 8.83398 51.5562 8.83398Z" fill="#242424"/>
<path d="M55.0922 9.02539C54.7183 9.02539 54.389 9.16325 54.1211 9.43617C53.8504 9.70908 53.7136 10.0383 53.7136 10.4153C53.7136 10.7923 53.8504 11.1243 54.1211 11.3944C54.3918 11.6673 54.7183 11.8052 55.0922 11.8052C55.4662 11.8052 55.7955 11.6673 56.0634 11.3944C56.3313 11.1215 56.4708 10.7923 56.4708 10.4153C56.4708 10.0383 56.3341 9.70627 56.0634 9.43617C55.7955 9.16325 55.469 9.02539 55.0922 9.02539Z" fill="#242424"/>
<path d="M55.1368 13.8418H55.1313H55.0447C54.4252 13.8671 53.9368 14.3736 53.9285 15.0207V23.2418C53.9368 23.8805 54.4587 24.401 55.0922 24.401C55.734 24.401 56.2559 23.8749 56.2559 23.2278V15.0066C56.2559 14.3792 55.7647 13.8671 55.1368 13.8418Z" fill="#242424"/>
<path d="M79.2435 14.4372C79.076 14.0686 78.7188 13.8379 78.317 13.8379H71.597C71.0388 13.8379 70.5895 14.2768 70.5672 14.8367L70.5616 14.8536L70.5672 14.9352C70.5923 15.4951 71.0416 15.9312 71.597 15.9312H75.8388L70.1039 22.7034C69.8416 23.0128 69.7858 23.4321 69.9532 23.8034C70.1207 24.172 70.4779 24.4027 70.8798 24.4027H78.0965C78.6658 24.4027 79.1291 23.9329 79.1291 23.3589C79.1291 22.7849 78.6658 22.3151 78.0965 22.3151H73.3328L79.0928 15.5457C79.3551 15.2278 79.4137 14.8057 79.2435 14.4372Z" fill="#242424"/>
<path d="M98.8593 21.7995L95.6696 18.6708L98.8621 15.5393C99.3003 15.0976 99.2975 14.3745 98.8565 13.9272L98.8259 13.899C98.4045 13.5023 97.7542 13.4911 97.3217 13.8625L93.2891 17.9449V8.97817C93.2891 8.35075 92.7979 7.83868 92.1617 7.81055H92.0779C91.4584 7.83587 90.97 8.34231 90.9617 8.98942V23.2428C90.97 23.8646 91.4612 24.3682 92.0863 24.3964H92.17C92.7979 24.371 93.2891 23.859 93.2891 23.2287V19.3939L97.2575 23.4144L97.3189 23.4763H97.3245C97.757 23.8505 98.4128 23.8365 98.8286 23.4398L98.8593 23.4116C99.2975 22.9699 99.3031 22.2524 98.8593 21.7995Z" fill="#242424"/>
<path d="M67.701 13.584C67.4136 13.584 67.1652 13.6853 66.9643 13.8822C66.7661 14.082 66.6629 14.3296 66.6629 14.6194V14.7938C66.2247 14.4534 65.7447 14.1776 65.2312 13.9751C63.9168 13.4546 62.3791 13.4574 61.0536 13.9891C60.3894 14.2564 59.7838 14.6447 59.2508 15.1427C58.7205 15.6519 58.3075 16.2372 58.0256 16.8843C57.7466 17.5314 57.6042 18.2291 57.6042 18.955C57.6042 19.6809 57.7466 20.3787 58.0256 21.0286C58.3075 21.6757 58.7177 22.2553 59.2508 22.7533C59.7838 23.2485 60.3894 23.6368 61.0508 23.904C62.3763 24.4358 63.914 24.4414 65.2284 23.9125C65.7419 23.7071 66.2219 23.4286 66.6601 23.0853V24.7847C66.6601 25.2349 66.568 25.6625 66.3866 26.062C66.2024 26.4616 65.9512 26.8189 65.6415 27.1227C65.3317 27.4238 64.9577 27.6657 64.5308 27.8402C64.1038 28.0146 63.6433 28.1018 63.1577 28.1018C62.5801 28.1018 62.0359 27.9781 61.5419 27.7333C61.0703 27.4998 60.6601 27.1706 60.328 26.757C60.1577 26.5375 59.9317 26.4109 59.6554 26.38C59.3791 26.349 59.1308 26.4194 58.9187 26.5853C58.6842 26.757 58.5503 26.9933 58.5224 27.2803C58.4917 27.5645 58.5615 27.8177 58.7317 28.0343C59.2396 28.6955 59.8898 29.2188 60.6684 29.5874C61.0563 29.7618 61.461 29.9025 61.8712 30.0038C62.2843 30.1051 62.7168 30.1557 63.1605 30.1557C63.8945 30.1557 64.6033 30.0207 65.2675 29.7506C65.9317 29.4833 66.5373 29.095 67.0703 28.5998C67.6145 28.0878 68.0303 27.4997 68.3038 26.8526C68.5773 26.2055 68.7168 25.5078 68.7168 24.7791V14.6278C68.7168 14.338 68.6163 14.0876 68.4154 13.885C68.2201 13.6853 67.9801 13.584 67.701 13.584ZM66.3949 19.1464C66.3949 20.1114 66.1159 20.8936 65.5633 21.4703C65.0052 22.0527 64.2629 22.3369 63.2973 22.3369C62.3429 22.3369 61.5782 22.0443 61.0284 21.4703C60.4759 20.8936 60.1968 20.1114 60.1968 19.1464C60.1968 18.6624 60.2722 18.2066 60.4173 17.7959C60.5624 17.3907 60.7689 17.0418 61.0312 16.7548C61.2936 16.4735 61.6173 16.2456 61.9996 16.0796C62.3819 15.9136 62.8173 15.8292 63.2973 15.8292C63.7745 15.8292 64.2098 15.9136 64.5922 16.0796C64.9745 16.2456 65.301 16.4735 65.5605 16.7548C65.8229 17.039 66.0294 17.3907 66.1745 17.7959C66.3196 18.2038 66.3949 18.6568 66.3949 19.1464Z" fill="#242424"/>
<path d="M89.9112 18.9775C89.8972 18.3389 89.8079 17.7227 89.6488 17.1487C89.4647 16.4904 89.1633 15.8911 88.753 15.365C88.34 14.836 87.807 14.4027 87.1679 14.0764C86.5261 13.75 85.7335 13.584 84.8126 13.584C84.0395 13.584 83.314 13.7275 82.6526 14.006C81.994 14.2874 81.4163 14.6813 80.9391 15.1764C80.4619 15.6716 80.0851 16.2625 79.8144 16.9321C79.5437 17.6017 79.407 18.3389 79.407 19.1182C79.407 19.8948 79.5326 20.6291 79.7809 21.2987C80.0293 21.9683 80.3893 22.562 80.8526 23.06C81.3158 23.558 81.8907 23.9519 82.5577 24.2332C83.2247 24.5146 83.9782 24.6553 84.793 24.6553C86.6377 24.6553 88.0637 24.0447 89.1577 22.7843L89.2023 22.7336C89.2442 22.6858 89.2888 22.6351 89.3279 22.5845C89.3586 22.5423 89.3865 22.5001 89.4116 22.4579C89.66 22.0105 89.5902 21.4703 89.2358 21.113C88.8005 20.6741 88.0916 20.6713 87.6674 21.0933L87.6395 21.1243C87.2879 21.5604 86.9 21.9149 86.4842 22.1793C86.074 22.4382 85.6051 22.5648 85.047 22.5648C84.634 22.5648 84.2265 22.4973 83.8442 22.3622C83.4591 22.2272 83.1158 22.0387 82.8256 21.7995C82.5381 21.5632 82.3009 21.2706 82.1251 20.9358C81.9828 20.6628 81.8963 20.359 81.8712 20.0354H88.9344H88.9958C89.4954 20.0185 89.8916 19.6218 89.9223 19.107C89.9223 19.0788 89.9195 19.0507 89.9168 19.0226C89.9112 19.0057 89.9112 18.9916 89.9112 18.9775ZM87.4526 18.0744H81.8684C81.8935 17.8296 81.9577 17.5792 82.0637 17.3316C82.2005 17.0081 82.3986 16.7098 82.647 16.4425C82.8954 16.1781 83.2051 15.9614 83.5679 15.7954C83.9279 15.6294 84.3298 15.5478 84.7651 15.5478C85.2172 15.5478 85.6135 15.6182 85.9484 15.756C86.2777 15.8939 86.5568 16.0852 86.7744 16.3244C86.9949 16.5663 87.1623 16.8561 87.2712 17.1797C87.3661 17.4526 87.4275 17.7536 87.4526 18.0744Z" fill="#242424"/>
</g>
<defs>
<clipPath id="svg-1040589619_8359_clip0_520_3684">
<rect width="99" height="33" fill="white" transform="translate(0.190186 0.216797)"/>
</clipPath>
</defs>
</svg>

