<svg xmlns="http://www.w3.org/2000/svg" width="187" height="43" viewBox="0 0 187 43" fill="none" id="svg-1400199752_3877">
<path d="M19.9557 40.3429L22.3022 42.6895L42.8347 22.157L24.6488 3.97107L10.2772 18.3427L15.557 23.6225L24.6488 14.5306L35.2084 25.0902L19.9557 40.3429Z" fill="#242424" stroke="#FAFAFA" stroke-width="0.45"/>
<path d="M23.7686 3.08912L21.422 0.742553L0.889524 21.275L19.0754 39.4609L33.447 25.0893L28.1672 19.8096L19.0754 28.9014L8.51587 18.3418L23.7686 3.08912Z" fill="#242424" stroke="#FAFAFA" stroke-width="0.45"/>
<path d="M154.336 30.5317C153.704 30.5317 153.131 30.3634 152.615 30.0268C152.1 29.6734 151.684 29.219 151.368 28.6636C151.052 28.1082 150.894 27.5192 150.894 26.8964V15.915C150.894 15.2586 151.052 14.6696 151.368 14.1478C151.684 13.6093 152.1 13.1801 152.615 12.8604C153.131 12.5238 153.704 12.3555 154.336 12.3555H165.237C165.869 12.3555 166.443 12.5238 166.958 12.8604C167.474 13.1801 167.89 13.6093 168.205 14.1478C168.521 14.6696 168.679 15.2586 168.679 15.915V26.8964C168.679 27.5192 168.521 28.1082 168.205 28.6636C167.89 29.219 167.474 29.6734 166.958 30.0268C166.443 30.3634 165.869 30.5317 165.237 30.5317H154.336ZM155.658 27.0479H165.112C165.196 27.0479 165.262 27.0227 165.312 26.9722C165.378 26.9049 165.412 26.8291 165.412 26.745V18.8181L155.658 27.0479ZM154.162 23.9681L163.915 15.7383H154.461C154.378 15.7383 154.303 15.7719 154.237 15.8392C154.187 15.8897 154.162 15.9571 154.162 16.0412V23.9681Z" fill="#242424"/>
<path d="M171.423 30.5317V29.6481L176.736 23.0845L171.423 16.7733V15.8897H174.965L178.856 20.5348L182.748 15.8897H186.29V16.7733L180.977 23.0845L186.29 29.6481V30.5317H182.773L178.856 25.6847L174.965 30.5317H171.423Z" fill="#242424"/>
<path d="M49.49 30.5317V12.3555H63.8559C64.4834 12.3555 65.0613 12.5154 65.5897 12.8351C66.1181 13.1549 66.5392 13.584 66.8529 14.1226C67.1666 14.6443 67.3235 15.225 67.3235 15.8645V27.0227C67.3235 27.6622 67.1666 28.2512 66.8529 28.7898C66.5392 29.3115 66.1181 29.7323 65.5897 30.052C65.0613 30.3718 64.4834 30.5317 63.8559 30.5317H49.49ZM53.0319 27.1741H63.7073C63.7898 27.1741 63.8641 27.1489 63.9302 27.0984C63.9962 27.0311 64.0293 26.9554 64.0293 26.8712V16.016C64.0293 15.9318 63.9962 15.8645 63.9302 15.814C63.8641 15.7467 63.7898 15.713 63.7073 15.713H53.0319C52.9494 15.713 52.8751 15.7467 52.809 15.814C52.7595 15.8645 52.7347 15.9318 52.7347 16.016V26.8712C52.7347 26.9554 52.7595 27.0311 52.809 27.0984C52.8751 27.1489 52.9494 27.1741 53.0319 27.1741Z" fill="#242424"/>
<path d="M73.4905 30.5317C72.8631 30.5317 72.2851 30.3718 71.7567 30.052C71.2448 29.7323 70.832 29.3115 70.5183 28.7898C70.2046 28.2512 70.0477 27.6622 70.0477 27.0227V12.3555H73.3172V26.8712C73.3172 26.9554 73.3419 27.0311 73.3915 27.0984C73.4575 27.1489 73.5318 27.1741 73.6144 27.1741H84.265C84.3475 27.1741 84.4218 27.1489 84.4879 27.0984C84.5539 27.0311 84.587 26.9554 84.587 26.8712V12.3555H87.8812V27.0227C87.8812 27.6622 87.7243 28.2512 87.4106 28.7898C87.0969 29.3115 86.6758 29.7323 86.1474 30.052C85.6355 30.3718 85.0658 30.5317 84.4383 30.5317H73.4905Z" fill="#242424"/>
<path d="M96.9992 30.5317V15.713H89.7172V12.3555H107.551V15.713H100.293V30.5317H96.9992Z" fill="#242424"/>
<path d="M112.846 30.5317C112.219 30.5317 111.641 30.3718 111.112 30.052C110.6 29.7323 110.187 29.3115 109.874 28.7898C109.56 28.2512 109.403 27.6622 109.403 27.0227V15.8645C109.403 15.225 109.56 14.6443 109.874 14.1226C110.187 13.584 110.6 13.1549 111.112 12.8351C111.641 12.5154 112.219 12.3555 112.846 12.3555H127.187V15.713H113.54C113.275 15.713 113.061 15.7888 112.896 15.9402C112.747 16.0917 112.673 16.3105 112.673 16.5966V26.2906C112.673 26.5598 112.747 26.7786 112.896 26.9469C113.061 27.0984 113.275 27.1741 113.54 27.1741H127.187V30.5317H112.846Z" fill="#242424"/>
<path d="M129.794 30.5317V12.3555H133.064V19.7522H144.755V12.3555H148.024V30.5317H144.755V23.135H133.064V30.5317H129.794Z" fill="#242424"/>
</svg>

