<svg xmlns="http://www.w3.org/2000/svg" width="107" height="57" viewBox="0 0 107 57" fill="none" id="svg-1549629878_9063">
<g clip-path="url(#svg-1549629878_9063_clip0_520_3544)">
<path d="M58.0147 42.5883L57.5398 34.6742L54.0849 42.5883H52.9113L49.4379 34.6742L48.907 42.5883H46.4845L47.426 30.1953H49.9577L53.6199 38.3552L57.1474 30.1953H59.6283L60.5696 42.5883H58.0147Z" fill="#242424"/>
<path d="M1.26965 42.5883V30.1953H9.98103L9.33777 32.2531H3.85146V35.4898H8.93185V37.5369H3.85146V42.5883H1.26965Z" fill="#242424"/>
<path d="M67.1993 42.5883V30.1953H75.5502L74.9073 32.2529H69.7823V35.1031H74.8394V37.151H69.7823V40.4725H75.3985V42.5883H67.1993Z" fill="#242424"/>
<path d="M20.8032 38.1319L18.9504 33.3077L17.1229 38.1319H20.8032ZM22.4016 42.5846L21.4673 40.0791H16.4699L15.548 42.5846H12.9181L17.8436 30.1914H20.2564L25.234 42.5846H22.4016Z" fill="#242424"/>
<path d="M86.2088 35.8648C87.848 35.8648 88.5218 35.0359 88.5218 34.0299C88.5218 33.0242 87.8539 32.1946 86.2283 32.1946H84.6551V35.8648H86.2088ZM89.1394 42.5885L85.8118 37.8255H84.6551V42.5885H82.0626V30.1953H86.4713C89.9149 30.1953 91.1291 32.1143 91.1291 33.9336C91.1291 35.5791 90.1321 36.8386 88.5128 37.4034L92.2942 42.5885H89.1394Z" fill="#242424"/>
<path d="M34.8509 35.8648C36.4901 35.8648 37.1642 35.0359 37.1642 34.0299C37.1642 33.0242 36.4962 32.1946 34.8709 32.1946H33.2974V35.8648H34.8509ZM37.7817 42.5885L34.4541 37.8255H33.2974V42.5885H30.7052V30.1953H35.1138C38.5577 30.1953 39.7717 32.1143 39.7717 33.9336C39.7717 35.5791 38.7751 36.8386 37.1559 37.4034L40.9365 42.5885H37.7817Z" fill="#242424"/>
<path d="M101.761 42.7789C100.098 42.7789 98.7115 42.3886 97.1251 41.3571L98.27 39.4118C99.4827 40.2206 100.388 40.6167 101.761 40.6167C103.119 40.6167 103.868 40.0791 103.868 39.1573C103.868 38.2943 103.029 37.9471 102.546 37.7688C102.064 37.5906 100.94 37.1777 100.15 36.8728C98.5409 36.2529 97.7288 35.1469 97.7288 33.6036C97.7288 31.9409 98.9014 30 102.205 30C103.298 30 104.666 30.2876 105.554 30.6453V33.0461C104.56 32.4651 103.365 32.0464 102.128 32.0464C101.271 32.0464 100.253 32.3017 100.253 33.3722C100.253 34.1811 101.005 34.5178 101.463 34.6985C101.975 34.9001 103.112 35.3159 103.873 35.5982C105.563 36.2241 106.429 37.3283 106.429 38.8867C106.429 40.8241 104.985 42.7789 101.761 42.7789Z" fill="#242424"/>
<path d="M84.2775 56.2182V49.4023H88.9015L88.5641 50.4661H85.654V52.1179H88.5147V53.1917H85.654V55.1231H88.8307V56.2182H84.2775Z" fill="#717171"/>
<path d="M18.795 56.2182V49.4023H20.1711V56.2182H18.795Z" fill="#717171"/>
<path d="M28.2232 56.2182L24.9582 51.5849V56.2182H23.6583V49.4023H24.8826L28.0912 53.9411V49.4023H29.3904V56.2182H28.2232Z" fill="#717171"/>
<path d="M71.0152 56.2182L67.7482 51.5849V56.2182H66.4493V49.4023H67.6737L70.8825 53.9411V49.4023H72.1814V56.2182H71.0152Z" fill="#717171"/>
<path d="M44.73 49.4023H46.1054V53.514C46.1054 54.4259 45.9639 55.0484 45.4939 55.5626C45.0353 56.0677 44.359 56.3245 43.343 56.3245C42.3384 56.3245 41.6505 56.0782 41.1921 55.5626C40.723 55.0588 40.5704 54.4369 40.5704 53.5245V49.4023H41.9462V53.588C41.9462 54.1788 42.0113 54.4473 42.2296 54.705C42.4589 54.973 42.8187 55.134 43.3323 55.134C43.8569 55.134 44.2164 54.973 44.4457 54.705C44.6643 54.4473 44.73 54.1788 44.73 53.588V49.4023Z" fill="#717171"/>
<path d="M52.6213 50.6592C52.3808 50.4978 52.1193 50.4342 51.7364 50.4342H50.9506V52.5585H51.7255C52.1193 52.5585 52.3808 52.4939 52.6213 52.3328C52.8613 52.1718 53.0363 51.8609 53.0363 51.4966C53.0363 51.1314 52.8613 50.8204 52.6213 50.6592ZM53.3364 56.2182L51.5502 53.5671H50.9506V56.2182H49.5743V49.4023H51.8891C52.5884 49.4023 53.2106 49.5419 53.6368 49.8638C54.0837 50.2071 54.4007 50.7453 54.4007 51.4424C54.4007 52.4085 53.8218 53.0737 52.981 53.3521L55.0012 56.2182H53.3364Z" fill="#717171"/>
<path d="M35.1876 49.2969C33.332 49.2969 32.6981 50.3826 32.6981 51.2625C32.6981 52.2604 33.3425 52.7762 34.0411 53.044C34.2268 53.1191 35.1114 53.4296 35.3838 53.5376C35.6574 53.6448 36.1705 53.8381 36.1705 54.3533C36.1705 54.8681 35.7553 55.1903 34.9369 55.1903C34.1175 55.1903 33.5781 54.9318 32.9766 54.5367L32.3712 55.565C33.0762 56.0226 33.8894 56.3275 34.9369 56.3275C36.8253 56.3275 37.5352 55.1798 37.5352 54.2033C37.5352 53.4405 37.1525 52.7866 36.116 52.411C35.9191 52.3354 35.0455 52.0244 34.7947 51.9276C34.5433 51.8212 34.0411 51.6382 34.0411 51.1339C34.0411 50.6297 34.4345 50.3711 35.1438 50.3711C35.7699 50.3711 36.4283 50.5564 37.0403 50.8978V49.6432C36.5936 49.4674 35.8264 49.2969 35.1876 49.2969Z" fill="#717171"/>
<path d="M78.7193 49.2969C76.91 49.2969 75.3107 50.5544 75.3107 52.8081C75.3107 55.0614 76.7459 56.3275 78.6653 56.3275C79.6146 56.3275 80.4087 56.0802 81.1136 55.6674L80.5964 54.5456C80.0879 54.8965 79.4849 55.1042 78.7631 55.1042C77.5514 55.1042 76.7074 54.1814 76.7074 52.7866C76.7074 51.3911 77.584 50.4787 78.7855 50.4787C79.62 50.4787 80.2685 50.6836 80.8237 51.0203V49.6684C80.2366 49.4413 79.6322 49.2969 78.7193 49.2969Z" fill="#717171"/>
<path d="M59.413 53.739L60.3996 50.9724L61.4008 53.739H59.413ZM62.2689 56.2182H63.7323L61.0756 49.4023H59.8315L57.2032 56.2182H58.5567L59.0464 54.8238H61.772L62.2689 56.2182Z" fill="#717171"/>
<path d="M53.8429 0.46875C40.8556 0.46875 30.1818 11.0718 30.1818 24.1047V25.2303H49.6908C50.8417 26.3576 52.2054 27.2993 53.8429 28.0297C55.4802 27.2993 56.8436 26.3576 57.9938 25.2303H77.5036V24.1047C77.5036 11.0718 66.8293 0.46875 53.8429 0.46875Z" fill="white"/>
<path d="M53.8419 26.7897C58.9445 24.3267 60.7651 19.6771 61.0117 14.2148H53.8419V26.7897Z" fill="#525252"/>
<path d="M53.8423 26.7897C48.7391 24.3267 46.9183 19.6771 46.672 14.2148H53.8423V26.7897Z" fill="#717171"/>
<path d="M43.4368 24.1006C42.0256 23.1997 40.6866 22.1974 39.5532 21.2868C35.0599 22.5079 31.3107 24.1008 31.3107 24.1008L43.4368 24.1006ZM76.3742 24.1008C76.3742 24.1008 72.6265 22.5079 68.1313 21.2868C66.9981 22.1974 65.659 23.1997 64.2501 24.1006L76.3742 24.1008ZM45.4243 17.9903C44.8124 16.4305 44.3177 14.8339 43.9375 13.4316C39.6172 11.7952 35.618 10.8685 35.618 10.8685C35.6176 10.8687 37.7146 14.3605 40.6296 17.9842C42.0807 17.9145 43.7535 17.8909 45.4243 17.9903ZM62.2611 17.9903C63.9327 17.8911 65.6055 17.9144 67.0565 17.984C69.972 14.3602 72.0688 10.8685 72.0686 10.8682C72.0686 10.8682 68.0675 11.7949 63.7494 13.4313C63.3667 14.8336 62.8741 16.4305 62.2611 17.9903ZM57.0592 14.2141C58.3532 13.1522 59.7186 12.1876 60.9345 11.394C61.1606 6.7475 60.8044 2.69141 60.8044 2.69141C60.8044 2.69141 58.1144 5.78509 55.5806 9.65396C56.0981 11.0093 56.6368 12.5937 57.0592 14.2141ZM46.8826 2.69141C46.8826 2.69141 49.5722 5.78509 52.1058 9.65396C51.5885 11.0093 51.0501 12.5937 50.6275 14.2141C49.3334 13.1522 47.9659 12.1876 46.75 11.394C46.5258 6.7475 46.8826 2.69141 46.8826 2.69141Z" fill="#C0C0C0"/>
<path d="M76.3745 24.098C76.373 19.1508 74.7769 14.5787 72.0693 10.8672C72.0661 10.872 69.9722 14.3577 67.0568 17.9815C69.6064 18.106 71.478 18.3749 71.478 18.3749C70.3135 19.4871 69.3503 20.3379 68.1315 21.284C72.6268 22.5051 76.3745 24.098 76.3745 24.098Z" fill="#242424"/>
<path d="M72.0689 10.8685C69.3002 7.07307 65.3724 4.17199 60.8048 2.69141C60.8048 2.69141 61.1609 6.7475 60.9349 11.394C63.0714 9.99753 64.741 9.11681 64.741 9.11681C64.741 9.11681 64.4192 10.9752 63.7498 13.4316C68.0679 11.7952 72.0689 10.8685 72.0689 10.8685Z" fill="#242424"/>
<path d="M46.8829 2.68867C46.8829 2.68867 49.5725 5.78235 52.1061 9.65122C53.0048 7.28579 53.8424 5.57665 53.8424 5.57665C53.8424 5.57665 54.6819 7.28579 55.5809 9.65122C58.1147 5.78235 60.8048 2.68867 60.8048 2.68867C58.6108 1.97866 56.2715 1.59375 53.8431 1.59375C51.414 1.59375 49.0745 1.97866 46.8829 2.68867Z" fill="#242424"/>
<path d="M35.6175 10.8672C32.9095 14.5787 31.3116 19.1508 31.3107 24.098C31.3107 24.098 35.0599 22.5051 39.5532 21.284C38.3346 20.3379 37.3731 19.4871 36.2086 18.3749C36.2086 18.3749 38.081 18.106 40.6296 17.9815C37.7146 14.3577 35.6205 10.8716 35.6175 10.8672Z" fill="#242424"/>
<path d="M35.6174 10.8685C35.6174 10.8685 39.6166 11.7952 43.9368 13.4316C43.2667 10.9752 42.9449 9.11681 42.9449 9.11681C42.9449 9.11681 44.6157 9.99753 46.7493 11.394C46.5251 6.7475 46.8819 2.69141 46.8819 2.69141C42.3139 4.17199 38.3839 7.07307 35.6174 10.8685Z" fill="#242424"/>
<path d="M105.318 26.3527H105.117V26.813H105.318C105.473 26.813 105.57 26.7398 105.57 26.5805C105.573 26.4263 105.473 26.3527 105.318 26.3527ZM105.612 27.4853L105.303 26.9674H105.121V27.4853H104.92V26.1983H105.337C105.574 26.1983 105.779 26.3179 105.779 26.5805C105.779 26.8475 105.566 26.9326 105.512 26.9443L105.844 27.4853H105.612ZM105.314 25.881C104.772 25.881 104.351 26.3065 104.351 26.8439C104.351 27.3849 104.772 27.81 105.314 27.81C105.856 27.81 106.278 27.3849 106.278 26.8439C106.278 26.3065 105.856 25.881 105.314 25.881ZM105.314 27.9609C104.691 27.9609 104.195 27.47 104.195 26.8475C104.195 26.2214 104.691 25.7305 105.314 25.7305C105.937 25.7305 106.428 26.2214 106.428 26.8439C106.428 27.47 105.937 27.9609 105.314 27.9609Z" fill="#242424"/>
</g>
<defs>
<clipPath id="svg-1549629878_9063_clip0_520_3544">
<rect width="106" height="56.6977" fill="white" transform="translate(0.849731 0.046875)"/>
</clipPath>
</defs>
</svg>

