<svg xmlns="http://www.w3.org/2000/svg" width="166" height="35" viewBox="0 0 166 35" fill="none" id="svg-1329908665_12242">
<g clip-path="url(#svg-1329908665_12242_clip0_520_3699)">
<mask id="svg-1329908665_12242_mask0_520_3699" style="mask-type:alpha" maskUnits="userSpaceOnUse" x="0" y="0" width="33" height="35">
<path d="M17.1753 2.25962C18.0276 1.91138 19.001 2.04429 19.7288 2.60827L30.1598 10.6914C30.8876 11.2554 31.2596 12.1655 31.135 13.0777L29.3497 26.1536C29.2328 27.0086 28.6966 27.7444 27.928 28.12L27.7706 28.1902L15.5542 33.182C14.7552 33.5084 13.8494 33.4123 13.1398 32.9342L13.0008 32.8334L2.56982 24.7493C1.84221 24.1854 1.47108 23.2762 1.59546 22.3641L3.38084 9.28814C3.49763 8.43275 4.03354 7.69631 4.80264 7.3208L4.95909 7.2505L17.1753 2.25962Z" stroke="black" stroke-width="2.69587"/>
<path d="M22.7969 4.9222C22.9012 13.2395 22.143 17.8251 18.9817 25.8158" stroke="black" stroke-width="2.69587"/>
<path d="M2.22822 18.9764C10.0691 13.9973 14.6423 11.9521 23.2951 10.4648" stroke="black" stroke-width="2.69587"/>
<path d="M25.5684 29.4736C17.3836 25.3357 13.324 22.1902 7.07491 15.032" stroke="black" stroke-width="2.69587"/>
</mask>
<g mask="url(#svg-1329908665_12242_mask0_520_3699)">
<rect x="-2.42688" y="0.255859" width="40.1567" height="34.6656" fill="#242424"/>
</g>
</g>
<path d="M43.8425 12.4351L43.6876 13.7123C45.0398 12.5369 46.3356 11.9492 47.5751 11.9492C49.1527 11.9492 50.1481 12.8007 50.5612 14.5037C50.6739 14.9664 50.7303 15.406 50.7303 15.8225C50.7303 16.2298 50.7162 16.5583 50.688 16.8082L49.3358 28.442C49.2982 28.6734 49.1809 28.7984 48.9837 28.8169L46.1384 28.9141C45.9319 28.8955 45.8286 28.8076 45.8286 28.6503L47.1103 17.6551C47.1385 17.4144 47.1526 17.1969 47.1526 17.0026C47.1526 16.2436 46.9695 15.73 46.6033 15.4616C46.2464 15.1839 45.791 15.0451 45.237 15.0451C44.683 15.0451 44.1055 15.1608 43.5045 15.3922L41.9974 28.442C41.9598 28.6734 41.8424 28.7984 41.6452 28.8169L38.8 28.9141C38.5934 28.8955 38.4901 28.8076 38.4901 28.6503L40.3494 12.5045C40.3869 12.3009 40.5043 12.1898 40.7015 12.1713L43.4622 12.0742C43.7158 12.0834 43.8425 12.2037 43.8425 12.4351Z" fill="#242424"/>
<path d="M66.0269 12.4351L64.1958 28.442C64.1676 28.6827 64.0456 28.8076 63.8296 28.8169L60.9844 28.9141C60.7872 28.8955 60.6886 28.8076 60.6886 28.6503L60.9562 26.7622C60.5242 27.4841 60.05 28.0394 59.5336 28.4282C59.0265 28.8169 58.4537 29.0112 57.8152 29.0112C57.1766 29.0112 56.632 28.9048 56.1813 28.6919C55.7305 28.4698 55.3596 28.1829 55.0685 27.8312C54.7868 27.4702 54.5568 27.0399 54.3783 26.5401C54.0497 25.6516 53.8854 24.4392 53.8854 22.9028C53.8854 21.3572 53.9887 20.0475 54.1952 18.9739C54.4112 17.9003 54.599 17.0859 54.7587 16.5305C54.9183 15.966 55.1296 15.3875 55.3925 14.7952C55.6648 14.2029 55.97 13.7077 56.308 13.3097C57.078 12.4027 58.0499 11.9492 59.2237 11.9492C60.097 11.9492 60.7637 12.1574 61.2238 12.5739C61.6839 12.9812 62.0689 13.5874 62.3788 14.3926L62.5478 12.5045C62.5666 12.3009 62.684 12.1898 62.9 12.1713L65.6607 12.0742C65.9048 12.0927 66.0269 12.213 66.0269 12.4351ZM57.4349 22.5002C57.4349 24.7122 58.0358 25.8182 59.2378 25.8182C59.7636 25.8182 60.1909 25.5822 60.5195 25.1102C60.8482 24.6289 61.1299 23.671 61.3647 22.2364C61.6088 20.8018 61.7309 19.756 61.7309 19.0989C61.7309 18.4418 61.7262 18.0253 61.7168 17.8494C61.7074 17.6736 61.6886 17.4422 61.6605 17.1553C61.6323 16.8591 61.5806 16.6138 61.5055 16.4195C61.4304 16.2159 61.3318 16.0123 61.2097 15.8086C60.9656 15.4107 60.5712 15.2117 60.0266 15.2117C59.4819 15.2117 59.05 15.4523 58.7307 15.9336C58.4114 16.4056 58.1626 17.0396 57.9842 17.8355C57.618 19.5385 57.4349 21.0934 57.4349 22.5002Z" fill="#242424"/>
<path d="M77.8586 15.6143L76.3514 15.4616C75.1307 15.4616 74.1072 15.7022 73.2808 16.1835L71.8864 28.4282C71.8488 28.6595 71.7315 28.7845 71.5343 28.803L68.689 28.9141C68.4824 28.8955 68.3792 28.8076 68.3792 28.6503L70.2384 12.5045C70.276 12.3009 70.3934 12.1898 70.5905 12.1713L73.3372 12.0742C73.5907 12.0834 73.7175 12.2037 73.7175 12.4351L73.5485 13.865C74.1494 13.2635 74.7316 12.7961 75.295 12.4629C75.8585 12.1204 76.4219 11.9492 76.9853 11.9492C77.5581 11.9492 77.9947 11.9723 78.2952 12.0186C78.4924 12.0556 78.591 12.1852 78.591 12.4073C78.591 13.046 78.483 13.9946 78.267 15.2533C78.2201 15.494 78.0839 15.6143 77.8586 15.6143Z" fill="#242424"/>
<path d="M89.0423 15.6143L87.5352 15.4616C86.3145 15.4616 85.2909 15.7022 84.4646 16.1835L83.0701 28.4282C83.0326 28.6595 82.9152 28.7845 82.718 28.803L79.8728 28.9141C79.6662 28.8955 79.5629 28.8076 79.5629 28.6503L81.4222 12.5045C81.4597 12.3009 81.5771 12.1898 81.7743 12.1713L84.5209 12.0742C84.7745 12.0834 84.9012 12.2037 84.9012 12.4351L84.7322 13.865C85.3332 13.2635 85.9154 12.7961 86.4788 12.4629C87.0422 12.1204 87.6056 11.9492 88.169 11.9492C88.7418 11.9492 89.1785 11.9723 89.479 12.0186C89.6761 12.0556 89.7747 12.1852 89.7747 12.4073C89.7747 13.046 89.6668 13.9946 89.4508 15.2533C89.4038 15.494 89.2677 15.6143 89.0423 15.6143Z" fill="#242424"/>
<path d="M103.24 12.4351L101.409 28.442C101.381 28.6827 101.259 28.8076 101.043 28.8169L98.1978 28.9141C98.0006 28.8955 97.902 28.8076 97.902 28.6503L98.1696 26.7622C97.7376 27.4841 97.2634 28.0394 96.747 28.4282C96.2399 28.8169 95.6671 29.0112 95.0286 29.0112C94.39 29.0112 93.8454 28.9048 93.3947 28.6919C92.9439 28.4698 92.573 28.1829 92.2819 27.8312C92.0002 27.4702 91.7702 27.0399 91.5918 26.5401C91.2631 25.6516 91.0988 24.4392 91.0988 22.9028C91.0988 21.3572 91.2021 20.0475 91.4086 18.9739C91.6246 17.9003 91.8124 17.0859 91.9721 16.5305C92.1317 15.966 92.343 15.3875 92.6059 14.7952C92.8782 14.2029 93.1834 13.7077 93.5214 13.3097C94.2914 12.4027 95.2633 11.9492 96.4371 11.9492C97.3104 11.9492 97.9771 12.1574 98.4372 12.5739C98.8973 12.9812 99.2823 13.5874 99.5922 14.3926L99.7612 12.5045C99.78 12.3009 99.8974 12.1898 100.113 12.1713L102.874 12.0742C103.118 12.0927 103.24 12.213 103.24 12.4351ZM94.6483 22.5002C94.6483 24.7122 95.2492 25.8182 96.4512 25.8182C96.977 25.8182 97.4043 25.5822 97.7329 25.1102C98.0616 24.6289 98.3433 23.671 98.5781 22.2364C98.8222 20.8018 98.9443 19.756 98.9443 19.0989C98.9443 18.4418 98.9396 18.0253 98.9302 17.8494C98.9208 17.6736 98.902 17.4422 98.8739 17.1553C98.8457 16.8591 98.794 16.6138 98.7189 16.4195C98.6438 16.2159 98.5452 16.0123 98.4231 15.8086C98.179 15.4107 97.7846 15.2117 97.24 15.2117C96.6953 15.2117 96.2634 15.4523 95.9441 15.9336C95.6248 16.4056 95.376 17.0396 95.1976 17.8355C94.8314 19.5385 94.6483 21.0934 94.6483 22.5002Z" fill="#242424"/>
<path d="M107.818 12.1297C108.034 10.0935 108.175 9.04306 108.241 8.97827C108.306 8.90423 108.405 8.86258 108.536 8.85333L111.227 8.75615C111.48 8.77466 111.607 8.89035 111.607 9.10322C111.429 10.1306 111.278 11.1162 111.156 12.0603L114.438 11.9492C114.663 11.9585 114.776 12.0788 114.776 12.3102L114.382 14.5175C114.344 14.7397 114.227 14.8554 114.03 14.8646L110.804 14.9896C110.166 20.6538 109.846 23.7774 109.846 24.3605C109.846 25.4433 110.316 25.9848 111.255 25.9848C111.734 25.9848 112.199 25.9107 112.649 25.7627C113.1 25.6146 113.382 25.5405 113.494 25.5405C113.692 25.5405 113.79 25.6608 113.79 25.9015L113.494 28.331C113.476 28.4698 113.438 28.5716 113.382 28.6364C113.335 28.7012 113.105 28.7799 112.692 28.8724C112.288 28.965 111.593 29.0112 110.607 29.0112C109.161 29.0112 108.09 28.6827 107.395 28.0256C106.701 27.3592 106.353 26.3689 106.353 25.0546C106.353 23.7404 106.724 20.3992 107.466 15.0312L106.086 15.0867C105.851 15.0775 105.733 14.9618 105.733 14.7397L106.114 12.5045C106.142 12.2917 106.264 12.1806 106.48 12.1713L107.818 12.1297Z" fill="#242424"/>
<path d="M119.875 10.5609C119.293 10.5609 118.828 10.3804 118.481 10.0195C118.133 9.65853 117.959 9.19577 117.959 8.6312C117.959 8.05738 118.19 7.54834 118.65 7.10409C119.119 6.65058 119.645 6.42383 120.227 6.42383C120.809 6.42383 121.279 6.60431 121.636 6.96526C122.002 7.32621 122.185 7.7936 122.185 8.36743C122.185 8.932 121.946 9.44104 121.467 9.89454C120.988 10.3388 120.457 10.5609 119.875 10.5609ZM121.439 12.4351L119.607 28.442C119.589 28.5716 119.556 28.6642 119.509 28.7197C119.462 28.7752 119.373 28.8076 119.241 28.8169L116.41 28.9141C116.203 28.8955 116.1 28.8076 116.1 28.6503L117.959 12.5045C117.997 12.3009 118.114 12.1898 118.312 12.1713L121.058 12.0742C121.312 12.0927 121.439 12.213 121.439 12.4351Z" fill="#242424"/>
<path d="M133.89 12.3796C134.097 12.4536 134.2 12.6295 134.2 12.9071L133.876 15.4199C133.857 15.605 133.726 15.6976 133.481 15.6976C133.247 15.6976 133.021 15.6513 132.805 15.5588C131.895 15.1608 131.139 14.9618 130.538 14.9618C129.937 14.9618 129.458 15.2071 129.101 15.6976C128.744 16.1881 128.458 16.8915 128.242 17.8078C127.838 19.52 127.636 21.0841 127.636 22.5002C127.636 24.777 128.232 25.9154 129.425 25.9154C130.289 25.9154 130.988 25.8089 131.524 25.5961C132.059 25.3739 132.406 25.2629 132.566 25.2629C132.895 25.2629 133.059 25.4017 133.059 25.6794L132.763 28.1227C132.744 28.2893 132.707 28.3911 132.65 28.4282C132.603 28.4559 132.538 28.4883 132.453 28.5253C131.317 28.8493 130.247 29.0112 129.242 29.0112C128.246 29.0112 127.458 28.8863 126.875 28.6364C126.303 28.3865 125.847 28.0672 125.509 27.6785C125.171 27.2805 124.899 26.8039 124.692 26.2486C124.326 25.2953 124.143 24.1245 124.143 22.7362C124.143 21.3386 124.232 20.1262 124.411 19.0989C124.598 18.0623 124.791 17.2201 124.988 16.5722C125.195 15.9243 125.467 15.3042 125.805 14.7119C126.143 14.1103 126.537 13.6151 126.988 13.2264C127.974 12.3749 129.279 11.9492 130.904 11.9492C131.993 11.9492 132.988 12.0927 133.89 12.3796Z" fill="#242424"/>
<path d="M138.2 29.0112C137.59 29.0112 137.097 28.8215 136.721 28.442C136.355 28.0533 136.172 27.5628 136.172 26.9705C136.172 26.3689 136.416 25.8321 136.904 25.36C137.402 24.888 137.956 24.652 138.566 24.652C139.186 24.652 139.684 24.8418 140.059 25.2212C140.435 25.6007 140.623 26.0912 140.623 26.6928C140.623 27.2944 140.374 27.8312 139.876 28.3032C139.379 28.7752 138.82 29.0112 138.2 29.0112Z" fill="#242424"/>
<path d="M157.018 12.4351L155.187 28.442C155.159 28.6827 155.037 28.8076 154.821 28.8169L151.975 28.9141C151.778 28.8955 151.68 28.8076 151.68 28.6503L151.947 26.7622C151.515 27.4841 151.041 28.0394 150.525 28.4282C150.018 28.8169 149.445 29.0112 148.806 29.0112C148.168 29.0112 147.623 28.9048 147.172 28.6919C146.722 28.4698 146.351 28.1829 146.06 27.8312C145.778 27.4702 145.548 27.0399 145.369 26.5401C145.041 25.6516 144.876 24.4392 144.876 22.9028C144.876 21.3572 144.98 20.0475 145.186 18.9739C145.402 17.9003 145.59 17.0859 145.75 16.5305C145.909 15.966 146.121 15.3875 146.384 14.7952C146.656 14.2029 146.961 13.7077 147.299 13.3097C148.069 12.4027 149.041 11.9492 150.215 11.9492C151.088 11.9492 151.755 12.1574 152.215 12.5739C152.675 12.9812 153.06 13.5874 153.37 14.3926L153.539 12.5045C153.558 12.3009 153.675 12.1898 153.891 12.1713L156.652 12.0742C156.896 12.0927 157.018 12.213 157.018 12.4351ZM148.426 22.5002C148.426 24.7122 149.027 25.8182 150.229 25.8182C150.755 25.8182 151.182 25.5822 151.511 25.1102C151.839 24.6289 152.121 23.671 152.356 22.2364C152.6 20.8018 152.722 19.756 152.722 19.0989C152.722 18.4418 152.717 18.0253 152.708 17.8494C152.699 17.6736 152.68 17.4422 152.652 17.1553C152.623 16.8591 152.572 16.6138 152.497 16.4195C152.422 16.2159 152.323 16.0123 152.201 15.8086C151.957 15.4107 151.562 15.2117 151.018 15.2117C150.473 15.2117 150.041 15.4523 149.722 15.9336C149.403 16.4056 149.154 17.0396 148.975 17.8355C148.609 19.5385 148.426 21.0934 148.426 22.5002Z" fill="#242424"/>
<path d="M163.145 10.5609C162.563 10.5609 162.098 10.3804 161.751 10.0195C161.403 9.65853 161.23 9.19577 161.23 8.6312C161.23 8.05738 161.46 7.54834 161.92 7.10409C162.389 6.65058 162.915 6.42383 163.497 6.42383C164.079 6.42383 164.549 6.60431 164.906 6.96526C165.272 7.32621 165.455 7.7936 165.455 8.36743C165.455 8.932 165.216 9.44104 164.737 9.89454C164.258 10.3388 163.727 10.5609 163.145 10.5609ZM164.709 12.4351L162.878 28.442C162.859 28.5716 162.826 28.6642 162.779 28.7197C162.732 28.7752 162.643 28.8076 162.511 28.8169L159.68 28.9141C159.474 28.8955 159.37 28.8076 159.37 28.6503L161.23 12.5045C161.267 12.3009 161.384 12.1898 161.582 12.1713L164.328 12.0742C164.582 12.0927 164.709 12.213 164.709 12.4351Z" fill="#242424"/>
<defs>
<clipPath id="svg-1329908665_12242_clip0_520_3699">
<rect width="32.5936" height="34" fill="white" transform="translate(0.190186 0.716797)"/>
</clipPath>
</defs>
</svg>

