<svg xmlns="http://www.w3.org/2000/svg" width="48" height="48" fill="none"><path stroke="#000" stroke-miterlimit="10" stroke-width="1.5" d="M41.603 31.078V16.883m-14.965 25.92 12.328-7.117m-29.932-.001 12.328 7.118M6.396 16.922v14.195M21.362 5.195 9.034 12.313m29.932 0L26.638 5.195M24 7.031a2.813 2.813 0 1 0 0-5.625 2.813 2.813 0 0 0 0 5.625Zm0 39.563a2.813 2.813 0 1 0 0-5.625 2.813 2.813 0 0 0 0 5.625ZM6.87 16.922a2.813 2.813 0 1 0 0-5.625 2.813 2.813 0 0 0 0 5.625Zm34.261 19.781a2.813 2.813 0 1 0 0-5.625 2.813 2.813 0 0 0 0 5.625Zm-34.261 0a2.813 2.813 0 1 0 0-5.625 2.813 2.813 0 0 0 0 5.625Zm34.261-19.781a2.813 2.813 0 1 0 0-5.625 2.813 2.813 0 0 0 0 5.625Z"/><path stroke="#000" stroke-linecap="square" stroke-miterlimit="10" stroke-width="1.5" d="M22.595 29.23V18.771h-6.646V29.23"/><path stroke="#000" stroke-miterlimit="10" stroke-width="1.5" d="M22.595 25.373h-6.646"/><path stroke="#000" stroke-linecap="square" stroke-miterlimit="10" stroke-width="1.5" d="M30.146 18.771V29.23M28.24 18.771h3.812M28.24 29.23h3.812"/></svg>