<svg xmlns="http://www.w3.org/2000/svg" width="48" height="48" fill="none"><mask id="a" width="48" height="48" x="0" y="0" maskUnits="userSpaceOnUse" style="mask-type:luminance"><path fill="#fff" d="M0 0h48v48H0V0Z"/></mask><g stroke="#000" stroke-linecap="round" stroke-linejoin="round" stroke-miterlimit="22.926" stroke-width="1.5" mask="url(#a)"><path d="m14.156 21.346-11.26-1.082 9.084-9.085c2.991-2.99 7.517-3.551 11.083-1.68m3.619 24.533 1.065 11.081 9.084-9.084c3.1-3.1 3.589-7.847 1.468-11.466"/><path d="M38.134 24.47a43.42 43.42 0 0 1-2.146 2.308c-3.79 3.789-8.014 6.63-12.185 8.412a3.132 3.132 0 0 1-3.504-.677l-6.82-6.82a3.132 3.132 0 0 1-.676-3.504c1.782-4.17 4.623-8.395 8.412-12.184C29.165 4.054 39.03.277 46.297 1.694c1.283 6.578-1.69 15.286-8.163 22.775ZM34.372 3.24l10.042 10.04m-28.746 7.592 11.504 11.505"/><path d="M33.256 14.736a3.185 3.185 0 1 1-4.505 4.505 3.185 3.185 0 0 1 4.505-4.505Zm-20.51 20.527L1.41 46.6m6.832-15.841-3.83 3.829m12.839 5.179-3.829 3.829"/></g></svg>