<svg xmlns="http://www.w3.org/2000/svg" width="48" height="48" fill="none"><mask id="a" width="48" height="48" x="0" y="0" maskUnits="userSpaceOnUse" style="mask-type:luminance"><path fill="#fff" d="M0 0h48v48H0V0Z"/></mask><g stroke="#000" stroke-linecap="round" stroke-linejoin="round" stroke-miterlimit="10" stroke-width="1.5" mask="url(#a)"><path d="M46.594 31.031c0 7.767-6.39 14.063-14.157 14.063-7.766 0-14.062-6.296-14.062-14.063 0-7.766 6.296-14.062 14.063-14.062 7.766 0 14.156 6.296 14.156 14.062Z"/><path d="M29.625 31.031c0 7.767-6.296 14.063-14.063 14.063-7.766 0-14.156-6.296-14.156-14.063 0-7.766 6.39-14.062 14.156-14.062 7.767 0 14.063 6.296 14.063 14.062Z"/><path d="M38.063 16.969c0 7.766-6.297 14.062-14.063 14.062-7.767 0-14.063-6.296-14.063-14.062C9.938 9.202 16.233 2.906 24 2.906S38.063 9.202 38.063 16.97Z"/></g></svg>