<svg xmlns="http://www.w3.org/2000/svg" width="166" height="28" fill="none"><g clip-path="url(#a)"><path fill="#242424" fill-rule="evenodd" d="M16.229 1.142c-.914-.02-1.974-.02-3.23-.02-4.038 0-6.057 0-7.65.66a8.666 8.666 0 0 0-4.69 4.69C0 8.064 0 10.083 0 14.12s0 6.056.66 7.649a8.666 8.666 0 0 0 4.69 4.69c.91.377 1.96.539 3.449.608l2.368-8.346H6.5l5.249-6.647H7.444l8.785-10.933ZM9.585 27.095l8.974-11.167h-4.305l5.245-6.675H14.85l2.29-8.082c1.518.068 2.585.229 3.508.611a8.666 8.666 0 0 1 4.69 4.69c.66 1.592.66 3.611.66 7.649s0 6.056-.66 7.649a8.667 8.667 0 0 1-4.69 4.69c-1.593.66-3.612.66-7.65.66-1.34 0-2.46 0-3.413-.025Z" clip-rule="evenodd"/></g><path fill="#242424" d="M42.004 14.269c.811.286 1.455.751 1.93 1.396.485.637.727 1.434.727 2.39 0 1.338-.48 2.376-1.44 3.11-.96.736-2.262 1.103-3.909 1.103h-6.377V6.184h6.377c1.615 0 2.883.404 3.804 1.213.92.8 1.38 1.862 1.38 3.185 0 .939-.222 1.719-.666 2.34-.437.612-1.046 1.061-1.826 1.347Zm-6.015-5.317v4.104h3.183c.718 0 1.268-.2 1.65-.6.382-.4.573-.878.573-1.433 0-.54-.19-1.017-.573-1.434-.382-.424-.932-.637-1.65-.637h-3.183Zm3.394 10.56c.67 0 1.209-.18 1.615-.54.413-.359.62-.84.62-1.445 0-.62-.215-1.123-.644-1.506-.421-.384-.952-.576-1.591-.576h-3.394v4.067h3.394Zm17.214-8.489v11.245h-2.47l-.198-1.335a3.673 3.673 0 0 1-1.428 1.25c-.561.277-1.201.416-1.919.416-1.28 0-2.266-.4-2.96-1.2-.695-.81-1.042-1.891-1.042-3.247v-7.13h2.995v6.628c0 .8.172 1.372.515 1.715.344.343.835.514 1.475.514.64 0 1.143-.216 1.51-.649.366-.433.55-1.009.55-1.727v-6.48h2.972Zm2.282 8.513 5.079-5.77h-5.079v-2.743h8.824v2.768l-5.231 5.696h5.23v2.781H58.88v-2.732Zm10.883 0 5.08-5.77h-5.08v-2.743h8.824v2.768l-5.23 5.696h5.23v2.781h-8.824v-2.732ZM82.471 9.075c-.577 0-1.06-.196-1.45-.588-.39-.4-.586-.882-.586-1.446 0-.571.195-1.053.585-1.445.39-.392.874-.588 1.451-.588.593 0 1.077.192 1.451.576.375.383.562.87.562 1.457 0 .572-.191 1.054-.573 1.446-.383.392-.862.588-1.44.588Zm-1.486 1.948h2.972v11.245h-2.972V11.023Zm11.843-.368c1.264 0 2.255.42 2.972 1.262.718.833 1.077 1.96 1.077 3.38v6.971h-2.996v-6.247c0-1.707-.655-2.56-1.966-2.56-.718 0-1.264.224-1.638.673-.375.441-.562 1.03-.562 1.764v6.37h-2.972V11.023h2.492l.188 1.31c.335-.514.807-.922 1.416-1.225a4.41 4.41 0 0 1 1.989-.453Zm17.741.368v11.245c0 1.119-.238 2.099-.714 2.94a4.758 4.758 0 0 1-2.024 1.96c-.874.466-1.912.698-3.113.698-1.568 0-2.867-.433-3.897-1.298-1.03-.858-1.615-2.013-1.755-3.467h2.949c.109.67.409 1.172.901 1.507.499.343 1.107.514 1.825.514.897 0 1.592-.245 2.083-.735.5-.49.749-1.155.749-1.996v-1.875c-.335.482-.807.866-1.416 1.152-.608.286-1.295.429-2.059.429-.991 0-1.877-.237-2.657-.71a4.991 4.991 0 0 1-1.814-1.998c-.437-.857-.655-1.837-.655-2.94 0-1.119.222-2.119.667-3 .445-.891 1.057-1.577 1.837-2.059.788-.49 1.678-.735 2.668-.735.781 0 1.479.155 2.095.466.616.31 1.085.722 1.404 1.237l.164-1.335h2.762Zm-5.851 8.354c.803 0 1.463-.282 1.978-.845.522-.572.784-1.29.784-2.156 0-.89-.262-1.613-.784-2.168-.515-.564-1.182-.846-2.002-.846-.795 0-1.443.286-1.942.858-.492.563-.737 1.282-.737 2.156 0 .89.253 1.613.76 2.168.515.555 1.163.833 1.943.833Zm19.637-8.354v11.245h-2.856v-1.433c-.366.539-.885.968-1.556 1.286a5.066 5.066 0 0 1-2.2.478c-.991 0-1.873-.241-2.645-.723-.765-.49-1.361-1.176-1.791-2.058-.429-.89-.643-1.923-.643-3.1 0-1.2.222-2.257.667-3.172.445-.923 1.073-1.633 1.884-2.131.819-.507 1.748-.76 2.785-.76.796 0 1.506.143 2.13.429a3.695 3.695 0 0 1 1.521 1.225l.234-1.286h2.47Zm-5.852 8.734c.851 0 1.537-.286 2.06-.858.531-.58.796-1.347.796-2.303 0-.955-.262-1.719-.784-2.29-.515-.58-1.198-.87-2.048-.87-.866 0-1.553.294-2.06.882-.507.58-.761 1.34-.761 2.278 0 .94.258 1.703.773 2.291.523.58 1.197.87 2.024.87Zm21.755 2.842c-1.552 0-2.937-.347-4.154-1.041-1.209-.695-2.153-1.675-2.832-2.94-.679-1.266-1.018-2.732-1.018-4.398 0-1.658.331-3.116.995-4.373.663-1.266 1.599-2.246 2.808-2.94 1.217-.695 2.618-1.042 4.201-1.042 1.295 0 2.485.233 3.57.699a6.73 6.73 0 0 1 2.679 2.033c.703.882 1.143 1.92 1.323 3.112h-3.476c-.21-.833-.69-1.515-1.439-2.046-.749-.531-1.65-.796-2.703-.796-1.436 0-2.575.49-3.418 1.47-.842.98-1.263 2.282-1.263 3.907 0 1.642.425 2.94 1.275 3.896.858.947 1.993 1.42 3.406 1.42 1.022 0 1.911-.256 2.668-.77.756-.524 1.248-1.214 1.474-2.071h3.476a6.247 6.247 0 0 1-1.276 3.062c-.686.89-1.576 1.585-2.668 2.083-1.092.49-2.301.735-3.628.735Zm8.824-5.979c0-1.15.246-2.176.737-3.074a5.357 5.357 0 0 1 2.095-2.12c.905-.514 1.931-.77 3.078-.77 1.147 0 2.173.256 3.078.77a5.247 5.247 0 0 1 2.094 2.12c.5.898.749 1.923.749 3.075 0 1.151-.249 2.18-.749 3.087a5.328 5.328 0 0 1-2.094 2.131c-.898.507-1.924.76-3.078.76-1.147 0-2.169-.253-3.066-.76a5.56 5.56 0 0 1-2.095-2.119c-.499-.906-.749-1.94-.749-3.1Zm3.043 0c0 .924.265 1.691.795 2.304.539.604 1.229.906 2.072.906.85 0 1.541-.302 2.071-.906.538-.613.808-1.38.808-2.303 0-.94-.266-1.703-.796-2.29-.523-.597-1.217-.895-2.083-.895-.851 0-1.541.298-2.072.894-.53.596-.795 1.36-.795 2.29Zm11.831 5.954c-.554 0-1.014-.183-1.381-.55a1.897 1.897 0 0 1-.538-1.36c0-.54.179-1.001.538-1.385.367-.384.827-.576 1.381-.576.546 0 .999.192 1.357.576.359.384.539.845.539 1.384 0 .515-.176.964-.527 1.348-.351.376-.807.563-1.369.563Z"/><defs><clipPath id="a"><path fill="#fff" d="M0 1.001h25.997v25.997H0z"/></clipPath></defs></svg>