<svg xmlns="http://www.w3.org/2000/svg" width="80" height="81" viewBox="0 0 80 81" fill="none">
<path d="M35 25.9375C46.3218 25.9375 55.5 35.1157 55.5 46.4375C55.5 57.7593 46.3218 66.9375 35 66.9375C23.6782 66.9375 14.5 57.7593 14.5 46.4375C14.5 35.1157 23.6782 25.9375 35 25.9375ZM35 34.9375C28.6487 34.9375 23.5 40.0862 23.5 46.4375C23.5 52.7888 28.6487 57.9375 35 57.9375C41.3513 57.9375 46.5 52.7888 46.5 46.4375C46.5 40.0862 41.3513 34.9375 35 34.9375Z" fill="#8CF5A8"/>
<path d="M59.7044 63.871C62.5155 59.2997 63.9922 53.9073 63.8341 48.6081C64.4604 39.6896 61.2201 31.903 55.3849 26.3223C55.7599 25.9057 56.1384 25.4902 56.5121 25.0734C59.7654 25.0103 63.0244 25.2384 66.2364 25.7596C69.2201 22.9386 72.4386 19.8892 75.3743 17.0182C75.2736 16.7449 75.1481 16.424 75.0242 16.1059C75.3955 15.5374 75.0741 14.9059 74.5108 14.7765C72.1473 14.2292 67.8898 13.6498 65.3788 13.1164C64.6104 10.7976 63.5396 6.56168 62.7903 4.45711C62.6904 4.17621 62.4548 3.96481 62.1647 3.8953C61.8741 3.82809 61.569 3.90852 61.3525 4.11302C58.2794 7.0242 55.8185 10.9009 53.3946 14.3434C53.2413 14.5617 53.1942 14.8374 53.2677 15.0942C53.8802 17.2311 55.2943 20.6267 56.0355 22.9686C55.3878 23.6935 54.7281 24.4154 54.0761 25.1393C45.7339 18.0848 33.72 15.6283 23.1187 20.0618C22.7716 20.1423 22.451 20.2343 22.2147 20.3457C13.3155 24.5423 6.6919 33.2519 5.02521 42.9488C3.35859 52.6457 7.03083 62.7282 14.0181 69.6553C26.8602 82.3867 50.3971 79.0056 59.7044 63.871ZM72.5347 16.1718C70.4352 18.289 67.6852 21.1005 65.6338 23.1589C63.4079 23.0183 61.01 22.9382 58.596 22.6186C60.0882 20.9561 65.3053 15.1882 65.4841 14.9388C67.55 15.3509 70.3791 15.7692 72.5347 16.1718ZM61.5673 6.39818C62.258 8.65206 63.2021 12.2689 63.8616 14.1324L57.3589 21.3555C56.6418 19.2984 55.6204 16.7392 55.0841 15.008C57.0864 12.146 59.1696 8.94882 61.5673 6.39818ZM52.8908 26.4525C51.5121 27.9764 50.1268 29.4954 48.7324 31.0124C40.6499 24.1587 28.5264 24.113 20.8148 31.0943C13.9737 37.2897 11.8959 47.612 15.8751 55.6376C19.2941 62.5321 27.7555 67.6298 35.5695 67.6298C54.1983 67.6298 62.4131 44.6353 50.0381 32.1992C51.4338 30.6807 52.8205 29.1601 54.2004 27.6345C66.1895 39.1584 63.8015 58.5746 52.4365 67.9228C36.8167 80.77 8.78873 70.7335 7.54869 47.7921C6.67882 22.8901 34.6912 11.1064 52.8908 26.4525ZM38.108 42.3434C35.9751 40.6905 34.0386 41.4658 33.9209 41.4647C31.612 42.1603 30.1283 44.8705 30.7865 47.1903C31.4447 49.5102 34.1306 51.0374 36.4608 50.4168C39.067 49.7227 40.8988 46.363 39.2858 43.6647C40.5842 42.3078 41.8782 40.9464 43.17 39.5767C50.6673 47.9585 41.7076 61.3811 30.5155 56.3264C27.4031 54.9207 25.1542 52.3701 24.3459 49.329C23.2286 45.1229 24.5522 40.7416 27.7179 38.1675C31.8197 34.8325 37.7068 34.9557 41.8937 38.3581C40.6346 39.6931 39.3735 41.0205 38.108 42.3434ZM43.1186 37.0551C38.4197 33.1615 31.495 32.8228 26.6047 36.798C22.9012 39.8098 21.345 44.9063 22.641 49.7817C24.1411 55.431 29.7229 59.1601 35.3604 59.1601C46.1215 59.1601 51.5733 46.0898 44.3964 38.272C45.8845 36.6868 47.3651 35.0972 48.8401 33.4997C52.3781 37.083 54.1279 41.5278 54.1621 46.4749C54.2539 59.9445 41.978 68.8263 30.0565 65.0074C24.4235 63.2014 19.713 59.406 17.456 54.8541C13.8209 47.5207 15.7315 38.0784 21.9993 32.4029C29.0632 26.0071 40.1576 26.0992 47.538 32.309C46.0711 33.8977 44.5986 35.4787 43.1186 37.0551Z" fill="#262D30"/>
<path d="M7.51477 20.351C7.07244 20.146 6.54797 20.3361 6.34232 20.779C6.13667 21.2208 6.32853 21.7458 6.77028 21.9515L12.258 24.5055C12.7025 24.7108 13.2252 24.5178 13.4304 24.0775C13.6361 23.6357 13.4442 23.1107 13.0025 22.905L7.51477 20.351Z" fill="#262D30"/>
<path d="M16.1635 21.2051C16.5323 20.8869 16.5731 20.3297 16.2543 19.9609C15.1232 18.6517 14.2546 17.1627 13.6722 15.5347C13.5079 15.0758 13.0024 14.8368 12.5445 15.0011C12.0855 15.1648 11.8466 15.6703 12.0109 16.1287C12.6669 17.9629 13.6452 19.6403 14.9193 21.1144C15.239 21.4846 15.7965 21.5228 16.1635 21.2051Z" fill="#262D30"/>
<path d="M20.6647 13.0069C20.1884 12.9109 19.7208 13.2165 19.6232 13.6945C19.2975 15.2851 19.2975 16.9671 19.6232 18.5578C19.7088 18.9754 20.0764 19.2632 20.4866 19.2632C21.0434 19.2632 21.4647 18.7532 21.3523 18.2039C21.0737 16.8448 21.0737 15.4075 21.3523 14.0483C21.4499 13.571 21.142 13.1051 20.6647 13.0069Z" fill="#262D30"/>
</svg>

