<svg xmlns="http://www.w3.org/2000/svg" width="80" height="81" viewBox="0 0 80 81" fill="none">
<path d="M12.9473 75.6903H15.1879C17.3057 73.5647 19.4642 71.5496 21.8568 69.7388C20.581 69.3712 19.1098 70.0395 18.004 70.7743C16.0899 72.0463 14.1886 73.7562 12.9473 75.6903Z" fill="#262D30"/>
<path d="M45.9991 42.1889C47.4799 43.9944 48.0788 46.3506 48.5351 48.6407C49.308 52.5199 49.7913 56.4918 49.4387 60.4316C49.2703 62.314 48.8388 64.317 47.4542 65.6033C46.3469 66.6319 44.8112 67.0317 43.3402 67.379C35.3058 69.2759 27.3862 69.9645 19.1797 70.8602C19.617 69.9731 19.5126 70.2068 19.9499 69.3197C27.1619 68.6195 33.8601 68.2835 40.4203 66.5407C42.1917 66.0701 44.0313 65.4726 45.276 64.1271C46.7432 62.5409 47.0926 60.2349 47.1794 58.0759C47.3208 54.5556 46.9438 51.015 46.0642 47.6035C45.6178 45.8719 45.0274 44.1434 43.9756 42.6971C43.0845 41.4719 40.8265 40.6145 39.4853 39.9816C39.9616 39.3508 42.8186 40.0446 43.4246 40.2889C44.4209 40.6906 45.3184 41.3589 45.9991 42.1889Z" fill="#262D30"/>
<path d="M48.9164 42.6007C48.5311 42.9418 49.3028 42.9496 50.1438 42.9058C51.0161 42.8603 51.7872 42.3577 52.1795 41.6004C52.7376 40.5228 53.9461 38.7962 54.4024 37.6894C54.5162 37.4133 54.6124 37.4464 54.6346 37.1496C54.6567 36.8529 54.0239 36.8915 53.7931 36.6953C52.0302 38.6726 50.35 40.3862 48.9164 42.6007Z" fill="#262D30"/>
<path d="M53.325 38.4894C57.7658 39.8451 61.9387 39.9671 65.9988 38.3127C70.0589 36.6583 73.3185 33.4592 74.4206 29.3182C74.7918 27.9234 75.1796 26.3444 74.7966 24.9512C73.9562 29.0471 71.591 33.105 67.9164 35.2708C65.8915 36.4643 63.4962 37.1032 61.1771 37.501C58.7968 37.9094 56.009 37.427 53.6999 36.8158C53.6799 37.4927 53.5277 38.1654 53.2539 38.7877" fill="#262D30"/>
<path d="M42.029 24.5129C41.5879 28.9911 43.8565 33.5846 47.825 35.9142C47.6928 35.2478 47.3262 34.7064 47.3311 34.028C44.315 31.0146 43.0765 26.4282 44.1837 22.372C45.2909 18.3159 50.964 14.0678 55.1179 12.9131C53.797 13.2803 50.8578 13.9319 49.571 14.4894C48.2812 15.0482 46.5855 16.2261 45.5744 17.1782C43.4777 19.1526 42.3084 21.6765 42.029 24.5129Z" fill="#262D30"/>
<path d="M24.0093 39.4904C24.7247 38.9429 25.2537 38.2164 25.9691 37.6689C25.5966 34.9557 25.4655 32.3409 25.7114 29.6133C25.1195 30.1734 24.2605 30.6097 23.4473 30.5583C23.5586 33.4535 23.898 36.5951 24.0093 39.4904Z" fill="#262D30"/>
<path d="M35.7927 6.80443C36.8023 7.70533 37.5641 8.95197 38.1854 10.083C39.375 12.2486 40.5646 14.4142 41.7542 16.5797C42.196 17.3839 42.6524 18.2624 42.5215 19.1705C42.3252 20.5317 40.9407 21.3424 39.7084 21.953C40.5937 21.4486 40.9399 20.2982 40.7962 19.2894C40.6525 18.2807 40.1178 17.3763 39.5943 16.5022C38.4395 14.5742 37.2847 12.6462 36.1299 10.7182C35.6227 9.87145 35.2593 9.11343 34.9237 8.22262C34.6541 7.50689 34.0695 6.90621 33.3691 6.60304C32.5517 6.24924 31.5709 6.29834 30.793 6.732C31.2187 5.86075 32.298 5.45001 33.2593 5.57745C34.2511 5.70892 35.0831 6.1713 35.7927 6.80443Z" fill="#262D30"/>
<path d="M13.0636 75.8112C12.9341 75.8112 12.8025 75.7802 12.6826 75.717C12.3562 75.5469 12.1828 75.1798 12.2599 74.8191C12.5617 73.3882 12.9427 72.0109 13.3108 70.6785C13.6458 69.4638 13.9925 68.2106 14.2729 66.9317C13.268 65.0535 12.0127 62.393 11.439 59.9037C10.7787 57.0483 11.1479 54.3054 12.4793 52.1789C13.8877 49.9293 16.301 48.4257 18.6982 47.1361C23.7218 44.4328 29.0493 42.2217 34.533 40.564C36.8693 39.8587 39.335 39.3129 41.5503 40.0888C43.8695 40.9054 45.5315 43.0008 46.6327 46.495C47.9512 50.6796 48.4585 55.0385 48.1428 59.4531C48.0112 61.2885 47.6826 63.3797 46.2378 64.9711C44.5501 66.829 42.003 67.3758 39.3222 67.8135C34.9814 68.5199 27.6141 69.5237 23.2124 70.1241C21.5364 70.3521 20.0627 70.5533 19.6282 70.6196C17.5734 71.8643 15.6203 73.4803 13.6608 75.5533C13.5013 75.7224 13.2841 75.8112 13.0636 75.8112ZM39.152 41.3495C37.7746 41.3495 36.3256 41.7391 35.0082 42.1372C29.6293 43.7628 24.4035 45.9321 19.4773 48.583C17.429 49.6853 15.1387 51.0306 13.8727 53.0522C12.7746 54.8041 12.4793 57.1061 13.0401 59.5334C13.6008 61.9638 14.8851 64.6179 15.8633 66.4159C15.9564 66.5882 15.9853 66.7872 15.9446 66.9788C15.6428 68.4075 15.2629 69.7849 14.8947 71.1162C14.7791 71.5346 14.6625 71.9574 14.5469 72.3855C15.9703 71.1012 17.414 70.0267 18.9123 69.132C18.9123 69.131 18.9133 69.131 18.9133 69.131C19.0889 69.0261 19.0889 69.0261 22.9908 68.4953C27.384 67.896 34.7385 66.8942 39.0578 66.1911C41.4401 65.8026 43.6897 65.3317 45.0199 63.8666C46.1287 62.6455 46.3919 60.8904 46.5032 59.3354C46.805 55.1284 46.3202 50.9749 45.0649 46.9895C44.1295 44.0218 42.8025 42.2731 41.0045 41.6395C40.4159 41.433 39.792 41.3495 39.152 41.3495Z" fill="#262D30"/>
<path d="M23.6952 39.5903C23.5914 39.5903 23.4876 39.5711 23.3881 39.5304C22.121 39.021 20.9384 38.3703 19.7943 37.741C18.5968 37.0828 17.4602 36.4578 16.3697 36.0758L15.3851 36.6537C14.0505 37.4307 12.3296 37.0497 11.4638 35.7836C9.70871 33.2151 7.73097 29.936 5.41826 25.7601C4.67768 24.4234 5.07472 22.7614 6.34185 21.8945C15.5253 15.6151 21.1963 11.7891 30.9534 6.17211C31.649 5.77131 32.4591 5.66911 33.2308 5.88529C33.997 6.0988 34.6306 6.59805 35.0137 7.29208C36.3814 9.76264 38.113 12.6442 39.6413 15.1859C40.1924 16.102 40.7211 16.9812 41.2038 17.794C41.985 19.1087 41.6415 20.7783 40.4043 21.6772C36.5377 24.4881 33.9735 25.8703 31.0047 27.4713C29.2089 28.4399 27.183 29.5315 24.5888 31.0951C24.2111 33.4142 24.1747 36.4589 24.5075 38.6443C24.5525 38.9364 24.4369 39.2297 24.2057 39.4127C24.058 39.5293 23.8772 39.5903 23.6952 39.5903ZM16.2734 34.357C16.3536 34.357 16.435 34.3688 16.5131 34.3924C17.869 34.8065 19.1886 35.5321 20.5863 36.3005C21.2819 36.6826 21.9915 37.0732 22.7171 37.4285C22.5383 35.1672 22.6496 32.5216 23.0349 30.4369C23.0777 30.2057 23.2158 30.0045 23.417 29.8825C26.2006 28.1937 28.3378 27.0411 30.2246 26.0244C33.1419 24.4518 35.6612 23.0937 39.4379 20.3475C39.9838 19.9505 40.1357 19.2142 39.7911 18.6341C39.3095 17.8234 38.7819 16.9464 38.2329 16.033C36.6972 13.4789 34.957 10.5846 33.5754 8.08777C33.4063 7.78276 33.128 7.56284 32.7898 7.46866C32.4409 7.37073 32.0835 7.41782 31.7731 7.59655C22.0685 13.183 16.42 16.9951 7.27078 23.2515C6.70679 23.6368 6.52913 24.3726 6.85661 24.9633C9.11261 29.037 11.1192 32.3654 12.8209 34.8568C13.2029 35.4133 13.9638 35.5771 14.5557 35.2346L15.8549 34.4715C15.9823 34.3956 16.1278 34.357 16.2734 34.357Z" fill="#262D30"/>
<path d="M49.0586 43.115C48.9323 43.115 48.8038 43.0925 48.6808 43.0454C48.2827 42.8945 48.0172 42.5253 48.0033 42.1058C47.6512 39.9119 47.206 37.3455 46.4077 34.0857C45.7538 33.4939 45.1544 32.841 44.6225 32.1422C41.931 28.5816 41.6463 23.679 43.8948 19.6486C45.4509 16.8404 48.1318 14.6631 51.6442 13.3542C55.0164 12.0796 58.8648 11.743 62.48 12.4071C64.3989 12.7543 66.1711 13.374 67.7476 14.2489C71.4547 16.3101 74.1431 19.9857 74.766 23.8417C74.9843 25.1495 74.9618 26.4492 74.6953 27.6998C73.6669 32.5649 69.0682 36.6863 63.2527 37.9566C61.4162 38.3622 59.5273 38.5206 57.6384 38.4264C56.5949 38.3697 55.6596 38.2563 54.7745 38.0797C54.6761 38.0615 54.5658 38.0358 54.4524 38.0091C54.2202 37.9566 53.7375 37.8421 53.6294 37.9245C53.3319 38.1407 52.8781 38.7464 52.5785 39.1467L52.3666 39.4281C52.0872 39.8006 51.8272 40.1677 51.5714 40.5272C51.0352 41.2807 50.529 41.9934 49.8633 42.7565C49.6407 42.993 49.3518 43.115 49.0586 43.115ZM49.6247 41.8736C49.629 41.8993 49.6333 41.9249 49.6375 41.9506C49.6375 41.9271 49.6333 41.9003 49.6247 41.8736ZM58.7889 13.7175C56.5339 13.7175 54.2812 14.1151 52.221 14.8932C49.0778 16.0645 46.6966 17.985 45.3321 20.4475C43.3993 23.9107 43.6358 28.1102 45.9336 31.149C46.4483 31.8275 47.038 32.4579 47.6844 33.0208C47.8118 33.1321 47.9027 33.2787 47.9434 33.4436C48.6465 36.285 49.0864 38.6094 49.431 40.6781C49.7028 40.3175 49.9629 39.9515 50.2315 39.5748C50.4948 39.2045 50.7634 38.8267 51.0566 38.435L51.2621 38.1621C51.6634 37.6259 52.1632 36.957 52.6598 36.5964C53.3736 36.0752 54.2437 36.2743 54.8216 36.408L55.0902 36.4669C55.9036 36.6285 56.763 36.7323 57.724 36.7847C59.4567 36.8725 61.2032 36.7269 62.9006 36.3513C68.0964 35.2158 72.19 31.6028 73.0879 27.3589C73.3105 26.3101 73.3297 25.2164 73.1446 24.1082C72.5988 20.7333 70.2262 17.5077 66.9502 15.6856C65.5312 14.899 63.928 14.3399 62.1868 14.0241C62.1857 14.0241 62.1857 14.0241 62.1846 14.0241C61.0684 13.8192 59.9286 13.7175 58.7889 13.7175Z" fill="#262D30"/>
<path d="M11.8092 26.3881C11.5427 26.3881 11.2816 26.2591 11.1232 26.02C10.8727 25.6416 10.9755 25.1317 11.3543 24.8813L26.7824 14.6587C27.1613 14.4072 27.6707 14.5115 27.9211 14.8898C28.1715 15.2681 28.0688 15.7781 27.6899 16.0285L12.2619 26.2511C12.1227 26.3437 11.9643 26.3881 11.8092 26.3881Z" fill="#262D30"/>
<path d="M14.6847 31.1113C14.4214 31.1113 14.1635 30.985 14.004 30.7517C13.7483 30.3761 13.8457 29.8645 14.2213 29.6098C17.4555 27.41 20.1588 25.7822 22.3302 24.4744L22.7476 24.2235C23.1361 23.9891 23.6412 24.1148 23.8756 24.5033C24.11 24.8923 23.9848 25.3975 23.5952 25.6319L23.1789 25.8828C21.0235 27.1804 18.3427 28.7943 15.146 30.969C15.0047 31.0653 14.8431 31.1113 14.6847 31.1113Z" fill="#262D30"/>
<path d="M50.9242 27.3104C50.4929 27.3104 50.0584 27.1568 49.7042 26.8738C49.2954 26.5468 49.0353 26.077 48.9914 25.5847C48.9433 25.056 49.1434 24.5241 49.5415 24.1265C49.8636 23.8055 50.2735 23.6161 50.6973 23.5872C51.0195 23.462 51.3758 23.4448 51.7023 23.547C52.3808 23.7627 52.8709 24.4487 52.8966 25.216C52.9298 26.2306 52.1507 27.1633 51.1607 27.2949C51.0826 27.3051 51.0034 27.3104 50.9242 27.3104ZM50.8322 25.6484C50.8718 25.6628 50.9082 25.6693 50.9446 25.665C51.0751 25.6478 51.2078 25.5023 51.2442 25.3546C51.1415 25.4921 50.9981 25.5959 50.8322 25.6484Z" fill="#262D30"/>
<path d="M58.4152 27.3784C57.9828 27.3784 57.5483 27.2243 57.193 26.9406C56.7853 26.6142 56.5252 26.1444 56.4814 25.6527C56.4343 25.1224 56.6355 24.5905 57.0346 24.1929C57.3557 23.8724 57.7656 23.684 58.1883 23.6551C58.5126 23.5288 58.8711 23.5122 59.1933 23.615C59.8718 23.8306 60.3619 24.5166 60.3876 25.284C60.4208 26.2991 59.6417 27.2317 58.6507 27.3628C58.5725 27.373 58.4933 27.3784 58.4152 27.3784ZM58.3232 25.7163C58.3628 25.7308 58.4034 25.7377 58.4345 25.7329C58.565 25.7158 58.6988 25.5702 58.7352 25.4226C58.6325 25.5601 58.4891 25.6639 58.3232 25.7163Z" fill="#262D30"/>
<path d="M65.6281 27.9394C65.1957 27.9399 64.7612 27.7858 64.4059 27.5022C63.9982 27.1758 63.7381 26.706 63.6942 26.2142C63.6472 25.6839 63.8484 25.1515 64.2475 24.7539C64.5686 24.4334 64.9785 24.245 65.4012 24.2162C65.7244 24.0904 66.0829 24.0738 66.4061 24.1766C67.0847 24.3922 67.5748 25.0782 67.6005 25.845C67.6337 26.8596 66.8546 27.7922 65.8635 27.9244C65.7854 27.9346 65.7073 27.9394 65.6281 27.9394ZM65.5361 26.2779C65.5757 26.2923 65.6163 26.2988 65.6474 26.2945C65.7779 26.2774 65.9106 26.1318 65.947 25.9847C65.8454 26.1217 65.7019 26.2255 65.5361 26.2779Z" fill="#262D30"/>
<path d="M20.0993 61.707C19.8896 61.707 19.6755 61.676 19.4658 61.6117C18.8472 61.4234 18.3292 60.975 18.0809 60.412C17.6411 59.4114 18.0028 58.1314 18.9232 57.4326C19.2164 57.2078 19.6145 57.2143 19.8992 57.4197C20.0661 57.332 20.2459 57.2753 20.4322 57.2571C21.0293 57.1929 21.6179 57.5171 21.9401 58.0747C22.1466 58.4322 22.2354 58.857 22.2087 59.3707C22.1616 60.2676 21.7742 61.0124 21.1428 61.4116C20.8346 61.6075 20.4728 61.707 20.0993 61.707ZM20.5691 59.2113C20.5574 59.2915 20.5499 59.3707 20.5435 59.4456C20.5199 59.7036 20.3808 59.9219 20.1828 60.0557C20.2128 60.0492 20.2406 60.0385 20.2641 60.0236C20.43 59.9176 20.5488 59.6276 20.567 59.2851C20.5681 59.2594 20.5691 59.2348 20.5691 59.2113Z" fill="#262D30"/>
<path d="M28.223 58.9084C28.0133 58.9084 27.7992 58.8774 27.5895 58.8132C26.9709 58.6248 26.4529 58.1764 26.2046 57.6135C25.7637 56.6139 26.1254 55.3329 27.0469 54.634C27.3401 54.4103 27.7382 54.4168 28.0229 54.6212C28.1898 54.5334 28.3686 54.4767 28.5537 54.4585C29.1648 54.3932 29.7395 54.7175 30.0627 55.274C30.2693 55.6336 30.3592 56.0713 30.3313 56.5743C30.2842 57.469 29.8968 58.2138 29.2654 58.613C28.9572 58.8089 28.5955 58.9084 28.223 58.9084ZM28.6918 56.4159C28.68 56.4951 28.6736 56.5732 28.6672 56.6449C28.6458 56.9028 28.5066 57.1222 28.3065 57.2571C28.3365 57.2496 28.3632 57.2389 28.3868 57.225C28.5526 57.119 28.6714 56.829 28.6896 56.4865C28.6907 56.4619 28.6918 56.4373 28.6918 56.4159Z" fill="#262D30"/>
<path d="M36.7645 56.6695C36.5547 56.6695 36.3418 56.6374 36.132 56.5742C35.5134 56.3859 34.9955 55.9375 34.7461 55.3735C34.3041 54.3739 34.6669 53.0928 35.5883 52.394C35.8837 52.1703 36.2797 52.1768 36.5644 52.3812C36.7313 52.2934 36.9111 52.2367 37.0952 52.2185C37.7052 52.1521 38.281 52.4775 38.6042 53.034C38.8107 53.3936 38.9006 53.8313 38.8728 54.3343C38.8257 55.2311 38.4372 55.9749 37.8058 56.3741C37.4987 56.5689 37.138 56.6695 36.7645 56.6695ZM37.2333 54.1759C37.2215 54.2551 37.2151 54.3332 37.2086 54.4049C37.1872 54.6628 37.047 54.8833 36.848 55.0171C36.8769 55.0107 36.9036 55 36.9272 54.985C37.0941 54.8801 37.2129 54.5901 37.2311 54.2465C37.2322 54.2219 37.2333 54.1984 37.2333 54.1759Z" fill="#262D30"/>
<path d="M40.0187 39.7638C38.2294 39.5779 36.3424 40.0206 34.5319 40.5672C29.0481 42.2249 23.7207 44.4359 18.6971 47.1393C16.2999 48.4289 13.8865 49.9325 12.4781 52.1821C9.63475 56.7238 11.7437 62.2098 14.2718 66.9349C13.6877 69.599 12.8355 72.0877 12.2588 74.8223C12.1486 75.3379 12.5469 75.8144 13.0625 75.8144C13.2043 75.8144 13.3384 75.7649 13.4631 75.6936H15.1878C16.9403 73.9346 18.7289 72.2591 20.6467 70.7047C28.3311 69.8812 35.786 69.1643 43.3395 67.3811C44.8104 67.0338 46.3461 66.634 47.4535 65.6053C50.7731 62.5215 49.4176 53.0753 48.5344 48.6427C47.8372 45.1447 46.7383 41.6273 43.4239 40.291C42.9362 40.0943 41.0081 39.618 40.0187 39.7638ZM13.8716 53.0554C15.1376 51.0338 17.4278 49.6885 19.4762 48.5862C24.4024 45.9353 29.6282 43.766 35.007 42.1404C36.3245 41.7422 37.7735 41.3527 39.1509 41.3527C42.4533 41.3527 44.0506 43.7782 45.0638 46.9927C46.3191 50.9781 46.8039 55.1316 46.5021 59.3386C46.1447 64.3317 44.1197 65.3687 39.0567 66.1943C30.6367 67.5649 19.3179 68.8918 18.9122 69.1341C18.9122 69.1341 18.9112 69.1341 18.9112 69.1352C17.4129 70.0299 15.9692 71.1044 14.5458 72.3886C15.9543 67.172 16.1021 66.863 15.8621 66.419C13.5935 62.249 11.361 57.0611 13.8716 53.0554Z" fill="#262D30"/>
<path d="M68.7881 35.2288L62.8791 37.9561H56.0609H52.8791C52.4246 37.9561 52.4246 39.3197 51.97 39.3197C51.5155 39.3197 51.5155 39.7742 51.5155 40.2288C51.5155 40.6833 50.1519 41.1379 50.1519 41.5924C50.1519 41.9561 49.5458 42.047 49.2428 42.047L48.7881 41.1379V40.6833C48.6367 40.0773 48.3337 38.7742 48.3337 38.4106C48.3337 38.047 48.0306 37.047 47.8791 36.5924L46.5154 34.3197C46.2124 33.7136 45.6064 32.4106 45.6064 32.047C45.6064 31.5924 44.6973 30.6833 44.6973 30.2288C44.6973 29.7743 43.7885 28.8655 43.3338 28.4108L43.3336 28.4106C42.97 28.047 43.1821 27.047 43.3336 26.5924V24.3197L44.2427 20.6833L46.5154 17.9561L48.7881 15.6833L54.2427 13.4106L60.6063 12.9561L66.5154 14.3197L70.1518 17.047L72.879 20.6833L74.2427 25.6833L72.879 31.1379L68.7881 35.2288Z" fill="#ABEAF8"/>
<path d="M46.6513 35.1131C48.299 42.188 47.6776 42.6674 48.6804 43.0475C49.0327 43.1823 49.3349 43.1156 49.6358 42.9205C49.7961 42.9184 49.9665 42.9126 50.1428 42.9034C51.015 42.8579 51.7863 42.3553 52.1785 41.598C52.5921 40.7994 53.3619 39.6452 53.919 38.6501C58.1371 39.8375 62.1199 39.8914 65.9971 38.3114C70.0572 36.657 73.3168 33.4579 74.4188 29.317C74.7442 28.0948 75.0818 26.7313 74.9028 25.4751C74.775 15.3448 62.5566 9.23148 51.6438 13.3563C49.7349 14.0676 48.0821 15.0432 46.7116 16.2294C46.2878 16.55 45.8941 16.8744 45.5732 17.1765C40.2996 22.1425 40.977 30.7489 46.6513 35.1131ZM66.9499 15.6877C71.2037 18.0537 74.0369 22.8876 73.0875 27.361C71.9927 32.5353 66.011 37.2065 57.7236 36.7868C55.7633 36.6798 55.005 36.4408 54.8212 36.4101C54.2433 36.2763 53.3732 36.0773 52.6594 36.5984C51.8177 37.2098 50.3697 39.4342 49.4306 40.6802C49.086 38.6115 48.6461 36.287 47.943 33.4456C47.9023 33.2808 47.8114 33.1342 47.684 33.0229C47.0376 32.46 46.4479 31.8296 45.9332 31.1511C43.6354 28.1123 43.3989 23.9128 45.3317 20.4496C49.0801 13.6848 60.0861 11.8831 66.9499 15.6877Z" fill="#262D30"/>
<path d="M11.4638 35.7855C12.3296 37.0516 14.0505 37.4326 15.3851 36.6556L16.3697 36.0777C18.3326 36.7654 22.828 39.5922 23.6952 39.5922C23.8772 39.5922 24.058 39.5312 24.2057 39.4146C24.2897 39.348 24.3394 39.2553 24.3907 39.165C24.926 38.6758 25.389 38.117 25.9703 37.6722C25.6366 35.2416 25.513 32.8861 25.6643 30.4616C31.8714 26.8089 34.5661 25.9233 40.4043 21.6792C40.518 21.5965 40.6158 21.5012 40.7142 21.4064C41.6016 20.8633 42.3783 20.1653 42.5216 19.1725C42.6526 18.2643 42.1961 17.3859 41.7544 16.5817C37.9075 9.57923 37.2519 8.10835 35.7928 6.80637C35.0833 6.17321 34.2512 5.71088 33.2594 5.57938C32.7093 5.50647 32.1341 5.62868 31.6511 5.89375C31.4109 5.96017 31.1752 6.04619 30.9534 6.17401C21.1963 11.791 15.5253 15.617 6.34185 21.8964C5.07472 22.7633 4.67768 24.4253 5.41826 25.762C7.73097 29.9379 9.70871 33.217 11.4638 35.7855ZM7.27078 23.2534C16.42 16.997 22.0685 13.1849 31.7731 7.59846C32.0835 7.41973 32.4409 7.37264 32.7898 7.47057C33.128 7.56475 33.4063 7.78467 33.5754 8.08968C35.4607 11.4967 38.0145 15.6454 39.7911 18.636C40.1357 19.2161 39.9837 19.9524 39.4379 20.3494C33.346 24.779 30.3536 25.676 23.417 29.8844C23.2158 30.0064 23.0777 30.2076 23.0349 30.4388C22.6496 32.5235 22.5383 35.1691 22.7171 37.4304C20.5776 36.3828 18.5605 35.0196 16.5131 34.3943C16.294 34.3282 16.0535 34.355 15.8549 34.4735L14.5557 35.2365C13.9638 35.579 13.2029 35.4152 12.8209 34.8587C11.1192 32.3673 9.11261 29.039 6.85661 24.9652C6.52913 24.3745 6.70679 23.6387 7.27078 23.2534Z" fill="#262D30"/>
<path d="M11.8091 26.3881C12.2776 26.3881 11.4186 26.7476 27.6899 16.0285C28.0687 15.7781 28.1714 15.2681 27.921 14.8898C27.6706 14.5115 27.1612 14.4072 26.7823 14.6587L11.3542 24.8813C10.6779 25.3283 10.9951 26.3881 11.8091 26.3881Z" fill="#262D30"/>
<path d="M22.7476 24.2244L22.3302 24.4754C20.1588 25.7832 17.4555 27.411 14.2213 29.6108C13.8457 29.8655 13.7483 30.3771 14.004 30.7527C14.2624 31.1306 14.7742 31.2234 15.146 30.97C18.3427 28.7953 21.0235 27.1814 23.1789 25.8838L23.5952 25.6328C23.9848 25.3985 24.11 24.8933 23.8756 24.5043C23.6412 24.1158 23.1361 23.9901 22.7476 24.2244Z" fill="#262D30"/>
<path d="M50.6959 23.5896C50.2721 23.6185 49.8622 23.808 49.54 24.129C48.1973 25.4699 49.4832 27.5155 51.1593 27.2974C52.1492 27.1657 52.9283 26.2331 52.8951 25.2185C52.8567 24.0698 51.7996 23.1606 50.6959 23.5896ZM50.8307 25.6509C50.9966 25.5984 51.14 25.4946 51.2427 25.3571C51.2022 25.5217 51.0299 25.7235 50.8307 25.6509Z" fill="#262D30"/>
<path d="M58.4152 27.3803C59.5083 27.3803 60.4235 26.3857 60.3876 25.2859C60.349 24.1329 59.2878 23.2289 58.1883 23.657C57.2074 23.7241 56.3918 24.646 56.4813 25.6546C56.5671 26.6153 57.445 27.3803 58.4152 27.3803ZM58.7352 25.4245C58.6941 25.5915 58.5192 25.7898 58.3232 25.7183C58.4891 25.6658 58.6325 25.562 58.7352 25.4245Z" fill="#262D30"/>
<path d="M65.6281 27.9406C66.7292 27.9406 67.6362 26.9372 67.6005 25.8462C67.5619 24.6945 66.5008 23.7896 65.4012 24.2174C64.4198 24.2844 63.6047 25.2067 63.6942 26.2154C63.7381 26.7072 64.656 27.9418 65.6281 27.9406ZM65.947 25.9859C65.9063 26.1505 65.7338 26.3512 65.5361 26.2791C65.7019 26.2267 65.8454 26.1229 65.947 25.9859Z" fill="#262D30"/>
<path d="M22.2087 59.3749C22.2354 58.8612 22.1466 58.4363 21.9401 58.0789C21.5219 57.355 20.6566 57.0258 19.8992 57.4239C19.6145 57.2184 19.2164 57.212 18.9232 57.4368C18.0028 58.1356 17.6411 59.4156 18.0809 60.4162C18.9198 62.3182 22.0582 62.2412 22.2087 59.3749ZM20.5691 59.2154C20.5691 59.5152 20.4538 60.0018 20.1828 60.0598C20.3808 59.9261 20.5381 59.4274 20.5691 59.2154Z" fill="#262D30"/>
<path d="M29.2654 58.6135C30.3718 57.914 30.5925 56.1969 30.0627 55.2744C29.6224 54.5164 28.7526 54.2381 28.0229 54.6216C27.7382 54.4172 27.3401 54.4108 27.0469 54.6345C26.1254 55.3333 25.7637 56.6143 26.2046 57.6139C26.7058 58.7501 28.2067 59.2862 29.2654 58.6135ZM28.6918 56.4163C28.6918 56.7047 28.5857 57.1877 28.3065 57.2575C28.6898 56.9992 28.6601 56.6294 28.6918 56.4163Z" fill="#262D30"/>
<path d="M38.8728 54.3346C38.9674 52.6247 37.6047 51.8346 36.5644 52.3815C36.2797 52.1771 35.8837 52.1706 35.5883 52.3943C34.6669 53.0932 34.3041 54.3742 34.7461 55.3738C35.5907 57.284 38.7226 57.1952 38.8728 54.3346ZM37.2333 54.1762C37.2333 54.4639 37.1225 54.9564 36.848 55.0174C37.047 54.8836 37.2016 54.3889 37.2333 54.1762Z" fill="#262D30"/>
</svg>

