<svg xmlns="http://www.w3.org/2000/svg" width="80" height="81" viewBox="0 0 80 81" fill="none">
<path d="M8 48.4365C11.6 48.4365 14.1667 52.7699 15 54.9365L23.5 55.4365C28.3 62.2365 36.5 58.2699 40 55.4365C49.2 63.0365 54.8333 58.6032 56.5 55.4365H65.5C65.5 52.4365 67.5 48.9365 72 48.9365C76.5 48.9365 78.5 52.4365 78.5 55.4365C78.5 57.8365 76.8333 60.1032 76 60.9365C78 62.1365 78.5 64.4365 78.5 65.4365C78.6667 67.7699 77.6 72.4365 72 72.4365C66.4 72.4365 65.3333 68.1032 65.5 65.9365L15 66.4365C14.1667 68.6032 11.6 72.9365 8 72.9365C3.5 72.9365 1.5 69.4365 1.5 66.4365C1.5 64.0365 2.83333 61.1032 3.5 59.9365C2.83333 59.4365 1.5 57.7365 1.5 54.9365C1.5 51.4365 3.5 48.4365 8 48.4365Z" fill="#FFC6BA"/>
<path d="M77.5171 20.4086C76.7304 16.538 77.1264 11.718 73.8211 8.77531C70.9371 6.15265 66.3998 6.25265 63.3731 8.58331C61.2184 9.93531 58.8918 10.1206 56.7891 11.654C51.7211 9.50198 45.8144 11.8166 39.9998 12.042C34.6904 12.182 28.6731 9.68865 23.5878 11.9086C21.6464 9.84198 19.1731 9.48598 16.9611 8.06865C15.5704 7.09131 13.9598 6.33798 12.2571 6.24465C7.44911 5.73398 3.52511 9.90598 3.35444 14.422C2.99844 18.4553 3.04778 22.4526 1.15444 26.0846C0.218442 27.6526 0.950442 30.0753 2.74911 30.762C4.96778 31.5086 7.16644 31.878 9.50644 31.846C8.32511 36.6873 8.27178 41.8953 9.33844 47.466C7.71578 47.1633 5.99178 47.3567 4.40911 48.206C-0.360224 50.45 -1.27489 57.0793 2.18644 60.7006C-1.16422 64.3313 -0.170891 70.806 4.51311 72.958C9.13178 75.4153 15.0998 71.966 15.5704 66.938C19.7678 66.8793 25.1798 66.818 31.0264 66.762C31.6931 68.69 33.0384 69.9567 34.5758 70.7367C39.1931 72.7793 48.4264 73.2313 49.1278 66.614C55.1051 66.574 60.6304 66.546 64.8451 66.5393C65.0038 68.8007 66.2678 70.966 68.2198 72.1473C75.9144 76.662 83.1331 66.4487 76.9038 60.6887C82.6384 55.5113 77.4331 46.7433 70.6944 47.974C72.1664 42.622 72.2798 37.222 71.1358 32.114C72.7051 32.2566 74.2904 32.1206 75.8038 31.798L76.5918 31.614C78.3438 31.3046 79.8811 29.678 79.8678 27.846C79.9211 27.2046 79.6584 26.338 79.3851 25.8326C78.5224 24.1393 77.8864 22.3286 77.5171 20.4086ZM57.2478 14.058C67.7638 23.4006 71.5371 35.3766 67.8904 49.054L67.9011 49.0566C66.0571 50.19 64.7638 52.1713 64.4304 54.3393L57.3851 54.1766C58.1278 51.4193 58.0998 48.53 57.3904 45.7646C55.3518 41.1153 50.6264 38.978 45.7638 38.03C45.5504 37.8953 45.3264 37.7726 45.0918 37.662C44.7744 35.7126 44.6344 33.7633 44.5611 31.814C44.1358 25.7687 45.6424 19.0526 45.2211 12.9833C45.9411 12.8993 46.6558 12.802 47.3624 12.678C50.8184 12.2833 54.4398 11.8913 57.2451 14.058H57.2478ZM56.1371 54.2087C56.0118 53.87 55.7638 53.4167 55.4611 52.9193C55.2624 52.5927 55.0531 52.2446 54.8278 51.914C54.2784 51.1073 53.7518 50.3807 53.6024 50.1153C53.4758 49.89 53.2878 49.706 53.1371 49.4993C52.7478 48.9673 52.3864 48.4606 52.0078 48.09C51.3064 47.4033 50.7491 47.306 50.2718 47.1913C50.1944 47.1726 50.0944 47.198 50.0024 47.29C49.9078 47.386 49.8744 47.538 49.9504 47.658C50.7691 48.946 51.6798 50.1793 52.6344 51.3486C52.8278 51.586 53.0251 51.8193 53.2211 52.05C53.5158 52.3967 53.8158 52.734 54.1144 53.0687C54.6438 53.662 55.1704 54.2206 55.7104 54.7033C55.8158 54.746 55.8971 54.766 55.9678 54.7753C55.8118 55.1953 55.6278 55.598 55.3944 55.9713C55.3011 56.1113 55.1878 56.2273 55.0838 56.3553C54.8624 56.0313 54.5864 55.6673 54.2758 55.286C53.2011 53.966 51.8144 52.5046 51.6504 52.2513C50.9491 51.5086 50.2518 50.7607 49.5331 50.0327C48.8144 49.3047 48.0744 48.5967 47.2891 47.93C47.1718 47.8313 46.9998 47.818 46.8678 47.91C46.7104 48.0193 46.6718 48.2353 46.7811 48.3927C47.9931 50.0513 49.2864 51.638 50.6611 53.15C51.3491 53.906 52.0558 54.6447 52.7838 55.3647C53.3398 55.9153 53.9184 56.4446 54.4984 56.9726C54.0184 57.3993 53.4718 57.7366 52.8704 57.9886C52.8638 57.7846 52.6744 57.462 52.3731 57.078C52.2011 56.8607 51.9944 56.626 51.7691 56.382C51.1811 55.746 50.4624 55.074 49.9238 54.57C49.6491 54.3126 49.4478 54.1073 49.3518 54.0207C48.7091 53.4473 48.0598 52.8847 47.4171 52.3473C47.2424 52.202 47.0704 52.054 46.8931 51.9166C46.3664 51.5086 45.8571 51.142 45.3891 50.8486C45.2864 50.7846 45.1518 50.79 45.0558 50.866C44.9304 50.966 44.8958 51.1433 44.9744 51.278C45.0451 51.3993 45.1278 51.518 45.2211 51.6273C46.2411 52.8313 47.3304 53.9553 48.4731 55.0113L48.5811 55.11C49.1704 55.65 49.7771 56.17 50.3971 56.6726C51.0411 57.1953 51.6998 57.7006 52.3744 58.1846C51.6824 58.414 50.9371 58.542 50.1678 58.5833C50.1264 58.4233 50.0024 58.226 49.7931 57.9953C49.6451 57.8327 49.4624 57.6593 49.2611 57.478C48.7624 57.0313 48.1304 56.5687 47.5851 56.1713C47.3638 56.0113 47.1824 55.8713 47.0531 55.7887C46.4531 55.4073 45.8678 55.006 45.2998 54.6607C45.1451 54.566 44.9944 54.4713 44.8424 54.3873C44.3144 54.098 43.8398 53.8753 43.4891 53.766C43.3998 53.738 43.3051 53.7606 43.2438 53.8206C43.1518 53.9113 43.1224 54.0487 43.1678 54.162C43.2091 54.266 43.2731 54.3673 43.3584 54.45C44.2731 55.3486 45.2598 56.146 46.2851 56.87L46.3811 56.938C46.9104 57.3073 47.4544 57.6526 48.0091 57.9806C48.3744 58.1966 48.7531 58.3887 49.1278 58.586C45.9571 58.4433 42.6118 56.9406 41.0464 54.7686C40.9944 54.658 40.8798 54.5487 40.7478 54.4473C40.4718 53.6647 40.4678 52.8526 40.6371 52.01C40.8131 51.0686 41.4664 50.0926 41.3184 49.1206C44.7304 48.4753 47.5384 45.6326 47.8584 42.01C47.9078 41.0233 47.6811 40.2126 47.2798 39.538C51.1344 40.5366 54.6864 42.4726 56.1238 45.7326C56.1078 46.0753 56.1304 46.4926 56.1851 46.9406C56.2664 47.6126 56.4104 48.3366 56.5638 48.922C56.6291 49.1713 56.6944 49.3873 56.7584 49.5713C56.7424 49.8526 56.7491 50.122 56.7078 50.4153C56.6958 50.61 56.6744 50.8073 56.6611 51.0033C56.6478 50.9647 56.6371 50.9286 56.6224 50.8886C56.5184 50.5953 56.4104 50.274 56.2718 49.9606C55.9811 49.306 55.6744 48.6833 55.5291 48.3167C55.4504 48.1193 55.3291 47.9447 55.2371 47.762C54.9558 47.2073 54.7091 46.722 54.4584 46.486C53.7744 45.8407 53.5171 46.2633 53.2318 46.79C53.2064 46.8353 53.1664 46.9086 53.1158 47.0086C53.0784 47.082 53.0571 47.1793 53.0984 47.262C53.5438 48.1673 54.0504 49.0593 54.5851 49.8873C54.6931 50.0553 54.8051 50.218 54.9144 50.3806C55.0851 50.6326 55.2584 50.8753 55.4251 51.1127C55.7544 51.5833 56.0624 51.9967 56.3744 52.2793C56.4318 52.3127 56.4744 52.3247 56.5224 52.3447C56.4384 52.9833 56.3118 53.6046 56.1358 54.2033L56.1371 54.2087ZM39.1744 56.21C39.1678 56.2033 39.1558 56.2006 39.1504 56.194C39.0078 56.0233 39.0931 56.1207 39.0984 56.1313C39.1211 56.1593 39.1504 56.1833 39.1731 56.21H39.1744ZM36.6438 46.9673C34.6491 45.5633 32.7491 41.602 35.2171 40.01C37.3624 38.6606 45.2331 38.678 45.4731 42.0166C45.5704 46.2366 40.3664 50.07 36.6438 46.9673ZM38.6971 49.0473C38.4984 50.0446 39.1798 51.0473 39.3611 52.0153C39.5291 52.8566 39.5251 53.6686 39.2504 54.45C39.1024 54.57 38.9651 54.7127 38.8384 54.8753C35.9144 58.09 27.8371 59.7113 25.1318 55.6633C23.7824 53.146 23.4731 49.2366 24.1358 46.3153C25.6971 42.5673 29.3184 40.6286 33.2504 39.626C32.9731 40.0566 32.7518 40.5287 32.6691 41.0873C32.3318 44.7367 35.2078 48.206 38.6958 49.0487L38.6971 49.0473ZM42.7384 13.1926C42.4531 16.8873 43.1518 21.7926 43.3598 25.3353C43.5584 29.234 43.5224 33.1233 42.9784 36.9966C41.6651 36.7473 40.2931 36.73 39.1478 36.878C38.4984 36.9206 37.7624 37.0353 37.0251 37.2286C36.7558 35.4246 36.6304 33.6206 36.5638 31.8153C36.1424 25.8153 37.6211 19.154 37.2304 13.1206C39.0598 13.2673 40.9064 13.2913 42.7384 13.1926ZM4.61578 29.7393C2.77578 29.6566 1.30644 28.4993 2.17444 26.562C3.96111 22.846 4.04244 18.5513 4.61844 14.614C5.10111 10.834 8.23178 7.90998 12.0091 8.54865C13.3224 8.67665 14.5264 9.47665 15.5331 10.258C17.1931 11.4833 19.9011 12.3193 21.4171 13.2606C15.9064 18.0926 12.1384 23.4953 10.1758 29.486C8.41978 29.966 6.49311 30.0246 4.61444 29.738L4.61578 29.7393ZM11.0198 31.498C12.2718 25.6126 15.7251 20.4446 19.9211 16.1993C23.4478 11.778 27.3838 11.6113 32.6598 12.498C33.3544 12.6366 34.0584 12.75 34.7678 12.8513C34.4091 16.5806 35.1464 21.682 35.3611 25.3353C35.5731 29.4873 35.5331 33.6286 34.8798 37.7486C28.4411 38.73 21.6624 41.8366 21.5358 48.9406C21.5571 50.7006 21.5584 52.41 21.9398 54.1273C19.9238 54.0926 17.9091 54.0606 15.8931 54.0446C15.5278 51.61 13.9718 49.594 11.9238 48.4246C10.2371 42.9646 9.68911 37.0846 11.0198 31.498ZM39.9998 70.71C37.2744 71.066 33.2611 69.7326 33.1518 66.7406C37.5704 66.6993 42.1571 66.662 46.5824 66.63C45.6091 69.142 42.8398 70.562 39.9998 70.71ZM77.9491 54.8287C78.1811 56.8567 77.2504 58.95 75.5971 60.1913C75.2664 60.422 75.2611 60.9433 75.5971 61.174C81.7371 65.9006 75.4184 75.0993 68.7904 71.222C66.9944 70.1513 65.8558 68.1086 65.8544 66.0153C65.8531 65.7286 65.6211 65.4953 65.3344 65.494C52.7078 65.4753 27.2958 65.2646 14.6678 65.082C14.1504 65.0753 13.7291 65.498 13.7344 66.0153C13.7931 70.086 9.05044 72.97 5.50911 70.9793C1.92644 69.266 1.48911 63.89 4.77311 61.6726C5.43444 61.214 5.45311 60.182 4.79444 59.7073C3.29178 58.5927 2.44378 56.714 2.65044 54.8793C3.48644 48.1793 13.1131 48.6247 13.3491 55.354C13.3504 56.0793 13.9398 56.6673 14.6664 56.666C17.3731 56.6606 20.0784 56.5993 22.7851 56.5566C22.8464 56.682 22.8944 56.8073 22.9611 56.934C26.2931 62.5526 35.8198 61.4393 40.0784 57.1073C44.3931 60.8406 53.4251 61.846 56.5091 56.6247C56.5224 56.5967 56.5304 56.5687 56.5438 56.5407C57.6211 56.5167 65.3704 56.334 65.3838 56.3367C65.9158 56.3233 66.3358 55.8806 66.3211 55.3486C66.4051 47.9086 77.0411 47.4793 77.9478 54.8273L77.9491 54.8287ZM75.9584 29.0273C74.1451 29.446 72.2731 29.5913 70.4358 29.4993C68.7451 24.1393 65.6411 19.1886 61.2064 15.094C60.4598 14.1673 59.6811 13.4273 58.8758 12.834C59.9984 11.9606 61.6038 11.3246 62.7904 10.5953C63.6518 10.1113 64.5211 9.45398 65.3278 8.87398C67.6891 7.35798 71.0558 7.65265 73.1171 9.55532C74.5078 10.8126 75.1731 12.6966 75.3811 14.614C75.6784 18.6166 75.5304 22.994 77.2864 26.8153C77.8224 27.9513 77.0998 28.9326 75.9584 29.026V29.0273Z" fill="#262D30"/>
<path d="M19.3595 32.6817C19.7848 38.7351 28.7422 38.8231 29.1928 32.6817C29.4008 25.7924 19.1902 25.9017 19.3595 32.6817ZM26.8062 32.6817C27.0875 37.0591 20.5622 37.2844 20.6395 32.6817C21.0728 28.8364 26.2848 29.0044 26.8062 32.6817Z" fill="#262D30"/>
<path d="M61.1928 32.6817C61.4008 25.7924 51.1902 25.9017 51.3595 32.6817C51.7848 38.7351 60.7422 38.8231 61.1928 32.6817ZM58.8048 32.6817C59.0862 37.0591 52.5608 37.2844 52.6382 32.6817C53.0715 28.8364 58.2835 29.0044 58.8048 32.6817Z" fill="#262D30"/>
<path d="M19.2377 25.0624C21.487 23.5624 23.879 22.8704 26.579 22.669C26.7804 22.6357 26.9657 22.5184 27.0777 22.3304C27.635 21.0757 25.3084 20.693 24.4324 20.5637C21.8284 20.285 19.0164 21.7677 18.0937 24.2997C17.8524 24.9864 18.6844 25.5104 19.2377 25.0624Z" fill="#262D30"/>
<path d="M53.4233 22.6709C54.178 22.7962 54.886 22.8256 55.5353 22.9469C57.4553 23.2109 59.1193 24.0629 60.762 25.0642C60.974 25.2016 61.2233 25.2922 61.4807 25.1936C62.7367 24.5402 61.0273 22.7362 60.4327 22.1576C58.5273 20.3962 55.39 19.9736 53.166 21.3496C52.6033 21.6602 52.774 22.5909 53.4233 22.6709Z" fill="#262D30"/>
</svg>

