<svg xmlns="http://www.w3.org/2000/svg" width="80" height="81" viewBox="0 0 80 81" fill="none">
<path d="M39.168 14.2217L49.668 8.72168L47.668 20.2217L56.668 28.7217L45.168 31.2217L39.168 42.2217L33.668 32.2217L21.668 29.7217L29.668 21.2217L27.668 8.72168L39.168 14.2217Z" fill="#FEE7A9"/>
<path d="M12.4065 42.8156L12.4051 42.817C8.87225 47.5263 11.3966 53.6407 16.2499 55.2573C20.8873 56.8017 27.6268 53.2564 27.6393 47.7305C28.3628 43.393 25.0574 39.0874 20.1574 38.7852C17.0743 38.6204 14.0975 40.1942 12.4065 42.8156ZM23.843 50.9475C21.5213 52.947 18.8793 52.82 18.997 52.7972C17.2403 52.7926 15.5101 52.055 14.3681 50.8257C10.435 46.5922 14.7533 40.1916 20.0494 40.5476C25.432 40.8762 28.1601 47.2292 23.843 50.9475Z" fill="#242424"/>
<path d="M2.93512 73.1154C3.49966 73.5876 4.29635 73.6312 5.03208 73.6529C14.4968 73.9308 23.9847 74.2083 33.4219 73.4356C34.6139 73.3381 35.9221 73.083 36.0598 71.8993C36.1697 71.7229 36.2321 71.5207 36.2014 71.3122C35.419 66.056 31.9953 61.2823 27.2652 58.8558C19.4292 54.8341 9.25754 57.4687 4.74593 66.0956C3.43711 68.0372 1.17169 71.64 2.93512 73.1154ZM34.2632 70.539C24.6923 70.38 14.3089 70.7558 4.93988 70.593C5.89116 66.2858 8.81166 62.453 12.742 60.4321C21.306 56.0303 32.0641 60.7662 34.2632 70.539Z" fill="#242424"/>
<path d="M61.6582 38.0178C58.563 37.8518 55.5903 39.4302 53.9013 42.0576C50.3904 46.747 52.8824 52.8688 57.7511 54.4902C62.3878 56.0346 69.1261 52.4906 69.1407 46.966C69.3339 45.8102 66.56 38.3199 61.6582 38.0178ZM65.3439 50.1812C63.0212 52.1796 60.3801 52.0525 60.4979 52.0297C58.7423 52.0251 57.0121 51.2887 55.869 50.0582C51.9509 45.8382 56.2417 39.4229 61.5503 39.7802C66.936 40.109 69.66 46.4661 65.3439 50.1812Z" fill="#242424"/>
<path d="M77.7029 70.5449C76.9205 65.2876 73.4968 60.5151 68.768 58.0897C60.9476 54.0779 50.7722 56.6832 46.25 65.3255C44.9492 67.2547 42.67 70.8702 44.4371 72.3486C45.0016 72.8209 45.7983 72.8646 46.5339 72.8861C55.9986 73.1641 65.4866 73.4414 74.9238 72.669C75.763 72.6003 76.6835 72.4846 77.2531 71.8644C77.4345 71.6671 77.5306 71.4023 77.5619 71.1312C77.6713 70.9549 77.7336 70.7532 77.7029 70.5449ZM75.7648 69.7717C70.9876 69.6936 65.967 69.7464 61.0979 69.8004C56.2289 69.8521 51.2025 69.9073 46.4415 69.8269C47.3939 65.5197 50.3144 61.6858 54.2436 59.6649C62.7974 55.2718 73.5586 59.979 75.7648 69.7717Z" fill="#242424"/>
<path d="M20.7563 31.351C21.6846 32.0459 24.0962 32.0901 25.2411 32.3129C28.1316 32.8753 31.0425 33.3291 33.9644 33.696L38.7226 42.9227C38.8869 43.2414 39.2566 43.4737 39.7024 43.3722C40.5317 43.515 41.1078 42.6861 41.4934 41.9376C43.2316 38.5626 44.9698 35.1874 46.708 31.8123L57.2991 30.0803C57.63 30.0263 57.9022 29.7885 58.001 29.4668C58.0987 29.1462 58.0056 28.797 57.7609 28.5672L49.004 20.3285L50.825 8.44427C50.9355 7.719 50.163 7.18617 49.5291 7.53779L38.9891 13.3202L28.2481 7.91693C27.9318 7.75699 27.5115 7.78235 27.2064 8.11511C27.0284 8.16049 26.8797 8.22368 26.9219 8.30353C26.0913 9.34457 26.2602 10.8379 26.4937 12.1489C27.044 15.24 27.7165 18.309 28.5091 21.347C25.8296 23.471 23.2583 25.8065 21.1309 28.4839C20.4763 29.3077 19.7563 30.6023 20.7563 31.351ZM38.61 15.1056C38.8696 15.2365 39.1775 15.2297 39.4303 15.0906L48.8099 9.94473L47.1899 20.5203C47.1463 20.8075 47.2462 21.0971 47.4576 21.2958L55.2494 28.6269L44.6911 30.3537C44.405 30.4008 44.1591 30.5858 44.0351 30.8478L39.4716 40.5249L34.5681 31.0166C34.4349 30.7581 34.1833 30.5824 33.8949 30.5456L23.2814 29.1956L30.8089 21.5922C31.0135 21.3866 31.1031 21.0925 31.0491 20.8075L29.0523 10.2963L38.61 15.1056Z" fill="#242424"/>
<path d="M61.0262 18.3729C60.5666 18.211 60.0623 18.4499 59.8991 18.9095C59.5866 19.7918 59.1546 20.6225 58.6146 21.3808C58.332 21.7771 58.4251 22.3286 58.8226 22.6112C58.9777 22.7215 59.1558 22.7744 59.3327 22.7744C59.6084 22.7744 59.8807 22.6457 60.0531 22.4033C60.6873 21.5129 61.1951 20.5363 61.5627 19.5C61.7259 19.0405 61.4857 18.5361 61.0262 18.3729Z" fill="#242424"/>
<path d="M62.9033 22.4605L60.5389 23.3199C60.0805 23.4865 59.8438 23.992 60.0104 24.4504C60.1402 24.8088 60.4791 25.0317 60.8399 25.0317C60.9398 25.0317 61.0421 25.0145 61.1409 24.9789L63.5053 24.1195C63.9637 23.9529 64.2004 23.4474 64.0338 22.989C63.8684 22.5317 63.3594 22.2962 62.9033 22.4605Z" fill="#242424"/>
<path d="M61.4535 26.4705C61.0353 26.2246 60.493 26.3694 60.2483 26.791C60.0036 27.2115 60.1472 27.7515 60.5688 27.9962C61.419 28.4902 62.3278 28.8877 63.2687 29.1773C63.3549 29.2037 63.4422 29.2163 63.5284 29.2163C63.9052 29.2163 64.2545 28.9728 64.3717 28.5936C64.5153 28.1283 64.2533 27.6343 63.788 27.4907C62.9746 27.2402 62.1888 26.8967 61.4535 26.4705Z" fill="#242424"/>
</svg>

